<svg width="31" height="27" viewBox="0 0 31 27" fill="none" xmlns="http://www.w3.org/2000/svg">
<path d="M12.9136 24.5C12.9136 24.8956 12.7923 25.2822 12.565 25.6111C12.3376 25.94 12.0145 26.1964 11.6364 26.3478C11.2584 26.4991 10.8424 26.5387 10.4411 26.4616C10.0397 26.3844 9.67108 26.1939 9.38174 25.9142C9.09239 25.6345 8.89534 25.2781 8.81551 24.8902C8.73568 24.5022 8.77665 24.1001 8.93325 23.7346C9.08984 23.3692 9.35502 23.0568 9.69526 22.8371C10.0355 22.6173 10.4355 22.5 10.8447 22.5C11.3934 22.5 11.9197 22.7107 12.3077 23.0858C12.6957 23.4609 12.9136 23.9696 12.9136 24.5ZM24.2928 22.5C23.8836 22.5 23.4836 22.6173 23.1434 22.8371C22.8031 23.0568 22.5379 23.3692 22.3813 23.7346C22.2248 24.1001 22.1838 24.5022 22.2636 24.8902C22.3434 25.2781 22.5405 25.6345 22.8298 25.9142C23.1192 26.1939 23.4878 26.3844 23.8892 26.4616C24.2905 26.5387 24.7065 26.4991 25.0846 26.3478C25.4626 26.1964 25.7857 25.94 26.0131 25.6111C26.2404 25.2822 26.3617 24.8956 26.3617 24.5C26.3617 23.9696 26.1438 23.4609 25.7558 23.0858C25.3678 22.7107 24.8415 22.5 24.2928 22.5ZM30.4544 6.79375L26.7652 18.3825C26.572 18.9968 26.179 19.5346 25.6447 19.916C25.1104 20.2975 24.4631 20.5022 23.7988 20.5H11.371C10.6973 20.4976 10.0425 20.2842 9.50468 19.8919C8.9669 19.4996 8.57505 18.9494 8.38783 18.3237L3.70944 2.5H1.53447C1.26011 2.5 0.99699 2.39464 0.802989 2.20711C0.608988 2.01957 0.5 1.76522 0.5 1.5C0.5 1.23478 0.608988 0.98043 0.802989 0.792893C0.99699 0.605357 1.26011 0.5 1.53447 0.5H3.70944C4.15867 0.501441 4.59534 0.643485 4.95408 0.904872C5.31282 1.16626 5.57435 1.53293 5.6995 1.95L6.7482 5.5H29.4651C29.627 5.49994 29.7867 5.53661 29.9312 5.60706C30.0758 5.67751 30.2012 5.77976 30.2974 5.90561C30.3936 6.03145 30.458 6.17737 30.4852 6.33163C30.5125 6.48588 30.5019 6.64417 30.4544 6.79375ZM28.0647 7.5H7.33914L10.3766 17.775C10.4384 17.9839 10.5689 18.1676 10.7483 18.2984C10.9277 18.4292 11.1463 18.5 11.371 18.5H23.7988C24.0202 18.5001 24.2357 18.4315 24.4138 18.3044C24.5919 18.1773 24.723 17.9983 24.7881 17.7938L28.0647 7.5Z" fill="#25745A"/>
<mask id="path-2-inside-1_4329_7164" fill="white">
<path d="M21.3125 13.4062C21.3125 13.5306 21.2631 13.6498 21.1752 13.7377C21.0873 13.8256 20.9681 13.875 20.8438 13.875H17.875V16.8438C17.875 16.9681 17.8256 17.0873 17.7377 17.1752C17.6498 17.2631 17.5306 17.3125 17.4062 17.3125C17.2819 17.3125 17.1627 17.2631 17.0748 17.1752C16.9869 17.0873 16.9375 16.9681 16.9375 16.8438V13.875H13.9688C13.8444 13.875 13.7252 13.8256 13.6373 13.7377C13.5494 13.6498 13.5 13.5306 13.5 13.4062C13.5 13.2819 13.5494 13.1627 13.6373 13.0748C13.7252 12.9869 13.8444 12.9375 13.9688 12.9375H16.9375V9.96875C16.9375 9.84443 16.9869 9.7252 17.0748 9.63729C17.1627 9.54939 17.2819 9.5 17.4062 9.5C17.5306 9.5 17.6498 9.54939 17.7377 9.63729C17.8256 9.7252 17.875 9.84443 17.875 9.96875V12.9375H20.8438C20.9681 12.9375 21.0873 12.9869 21.1752 13.0748C21.2631 13.1627 21.3125 13.2819 21.3125 13.4062Z"/>
</mask>
<path d="M21.3125 13.4062C21.3125 13.5306 21.2631 13.6498 21.1752 13.7377C21.0873 13.8256 20.9681 13.875 20.8438 13.875H17.875V16.8438C17.875 16.9681 17.8256 17.0873 17.7377 17.1752C17.6498 17.2631 17.5306 17.3125 17.4062 17.3125C17.2819 17.3125 17.1627 17.2631 17.0748 17.1752C16.9869 17.0873 16.9375 16.9681 16.9375 16.8438V13.875H13.9688C13.8444 13.875 13.7252 13.8256 13.6373 13.7377C13.5494 13.6498 13.5 13.5306 13.5 13.4062C13.5 13.2819 13.5494 13.1627 13.6373 13.0748C13.7252 12.9869 13.8444 12.9375 13.9688 12.9375H16.9375V9.96875C16.9375 9.84443 16.9869 9.7252 17.0748 9.63729C17.1627 9.54939 17.2819 9.5 17.4062 9.5C17.5306 9.5 17.6498 9.54939 17.7377 9.63729C17.8256 9.7252 17.875 9.84443 17.875 9.96875V12.9375H20.8438C20.9681 12.9375 21.0873 12.9869 21.1752 13.0748C21.2631 13.1627 21.3125 13.2819 21.3125 13.4062Z" fill="#25745A"/>
<path d="M17.875 13.875V10.875H14.875V13.875H17.875ZM16.9375 16.8438H13.9375H16.9375ZM16.9375 13.875H19.9375V10.875H16.9375V13.875ZM13.9688 12.9375V9.9375V12.9375ZM16.9375 12.9375V15.9375H19.9375V12.9375H16.9375ZM17.4062 9.5V6.5V9.5ZM17.875 12.9375H14.875V15.9375H17.875V12.9375ZM20.8438 12.9375V9.9375V12.9375ZM18.3125 13.4062C18.3125 12.7349 18.5792 12.0911 19.0539 11.6164L23.2965 15.859C23.947 15.2085 24.3125 14.3262 24.3125 13.4062H18.3125ZM19.0539 11.6164C19.5286 11.1417 20.1724 10.875 20.8438 10.875V16.875C21.7637 16.875 22.646 16.5095 23.2965 15.859L19.0539 11.6164ZM20.8438 10.875H17.875V16.875H20.8438V10.875ZM14.875 13.875V16.8438H20.875V13.875H14.875ZM14.875 16.8438C14.875 16.1724 15.1417 15.5286 15.6164 15.0539L19.859 19.2965C20.5095 18.646 20.875 17.7637 20.875 16.8438H14.875ZM15.6164 15.0539C16.0911 14.5792 16.7349 14.3125 17.4062 14.3125V20.3125C18.3262 20.3125 19.2085 19.947 19.859 19.2965L15.6164 15.0539ZM17.4062 14.3125C18.0776 14.3125 18.7214 14.5792 19.1961 15.0539L14.9535 19.2965C15.604 19.947 16.4863 20.3125 17.4062 20.3125V14.3125ZM19.1961 15.0539C19.6708 15.5286 19.9375 16.1724 19.9375 16.8438H13.9375C13.9375 17.7637 14.303 18.646 14.9535 19.2965L19.1961 15.0539ZM19.9375 16.8438V13.875H13.9375V16.8438H19.9375ZM16.9375 10.875H13.9688V16.875H16.9375V10.875ZM13.9688 10.875C14.6401 10.875 15.2839 11.1417 15.7586 11.6164L11.516 15.859C12.1665 16.5095 13.0488 16.875 13.9688 16.875V10.875ZM15.7586 11.6164C16.2333 12.0911 16.5 12.7349 16.5 13.4062H10.5C10.5 14.3262 10.8655 15.2085 11.516 15.859L15.7586 11.6164ZM16.5 13.4062C16.5 14.0776 16.2333 14.7214 15.7586 15.1961L11.516 10.9535C10.8655 11.604 10.5 12.4863 10.5 13.4062H16.5ZM15.7586 15.1961C15.2839 15.6708 14.6401 15.9375 13.9688 15.9375V9.9375C13.0488 9.9375 12.1665 10.303 11.516 10.9535L15.7586 15.1961ZM13.9688 15.9375H16.9375V9.9375H13.9688V15.9375ZM19.9375 12.9375V9.96875H13.9375V12.9375H19.9375ZM19.9375 9.96875C19.9375 10.6401 19.6708 11.2839 19.1961 11.7586L14.9535 7.51597C14.303 8.16649 13.9375 9.04878 13.9375 9.96875H19.9375ZM19.1961 11.7586C18.7214 12.2333 18.0776 12.5 17.4062 12.5V6.5C16.4863 6.5 15.604 6.86546 14.9535 7.51597L19.1961 11.7586ZM17.4062 12.5C16.7349 12.5 16.0911 12.2333 15.6164 11.7586L19.859 7.51597C19.2085 6.86546 18.3262 6.5 17.4062 6.5V12.5ZM15.6164 11.7586C15.1417 11.2839 14.875 10.6401 14.875 9.96875H20.875C20.875 9.04878 20.5095 8.16649 19.859 7.51597L15.6164 11.7586ZM14.875 9.96875V12.9375H20.875V9.96875H14.875ZM17.875 15.9375H20.8438V9.9375H17.875V15.9375ZM20.8438 15.9375C20.1724 15.9375 19.5286 15.6708 19.0539 15.1961L23.2965 10.9535C22.646 10.303 21.7637 9.9375 20.8438 9.9375V15.9375ZM19.0539 15.1961C18.5792 14.7214 18.3125 14.0776 18.3125 13.4062H24.3125C24.3125 12.4863 23.947 11.604 23.2965 10.9535L19.0539 15.1961Z" fill="#25745A" mask="url(#path-2-inside-1_4329_7164)"/>
</svg>
