<svg width="23" height="22" viewBox="0 0 23 22" fill="none" xmlns="http://www.w3.org/2000/svg">
<path d="M9.375 19.5938C9.375 19.9028 9.28336 20.2049 9.11167 20.4618C8.93998 20.7188 8.69595 20.9191 8.41044 21.0373C8.12493 21.1556 7.81077 21.1865 7.50767 21.1262C7.20458 21.0659 6.92617 20.9171 6.70765 20.6986C6.48913 20.4801 6.34031 20.2017 6.28002 19.8986C6.21973 19.5955 6.25068 19.2813 6.36894 18.9958C6.4872 18.7103 6.68747 18.4663 6.94442 18.2946C7.20137 18.1229 7.50347 18.0312 7.8125 18.0312C8.2269 18.0312 8.62433 18.1959 8.91735 18.4889C9.21038 18.7819 9.375 19.1793 9.375 19.5938ZM17.9688 18.0312C17.6597 18.0312 17.3576 18.1229 17.1007 18.2946C16.8437 18.4663 16.6434 18.7103 16.5252 18.9958C16.4069 19.2813 16.376 19.5955 16.4363 19.8986C16.4966 20.2017 16.6454 20.4801 16.8639 20.6986C17.0824 20.9171 17.3608 21.0659 17.6639 21.1262C17.967 21.1865 18.2812 21.1556 18.5667 21.0373C18.8522 20.9191 19.0962 20.7188 19.2679 20.4618C19.4396 20.2049 19.5312 19.9028 19.5312 19.5938C19.5312 19.1793 19.3666 18.7819 19.0736 18.4889C18.7806 18.1959 18.3832 18.0312 17.9688 18.0312ZM22.6221 5.76074L19.8359 14.8145C19.69 15.2944 19.3933 15.7145 18.9897 16.0125C18.5862 16.3105 18.0973 16.4705 17.5957 16.4688H8.20996C7.70115 16.4668 7.20664 16.3002 6.8005 15.9937C6.39435 15.6872 6.09842 15.2573 5.95703 14.7686L2.42383 2.40625H0.78125C0.57405 2.40625 0.375336 2.32394 0.228823 2.17743C0.08231 2.03091 0 1.8322 0 1.625C0 1.4178 0.08231 1.21909 0.228823 1.07257C0.375336 0.92606 0.57405 0.84375 0.78125 0.84375H2.42383C2.7631 0.844875 3.09287 0.955848 3.3638 1.16006C3.63473 1.36427 3.83224 1.65073 3.92676 1.97656L4.71875 4.75H21.875C21.9973 4.74995 22.1178 4.7786 22.227 4.83364C22.3362 4.88868 22.4309 4.96857 22.5035 5.06688C22.5762 5.1652 22.6248 5.2792 22.6454 5.39971C22.666 5.52022 22.658 5.64388 22.6221 5.76074ZM20.8174 6.3125H5.16504L7.45898 14.3398C7.50565 14.503 7.60419 14.6465 7.73968 14.7487C7.87517 14.8509 8.04025 14.9062 8.20996 14.9062H17.5957C17.7629 14.9063 17.9257 14.8527 18.0601 14.7534C18.1946 14.6541 18.2937 14.5143 18.3428 14.3545L20.8174 6.3125Z" fill="black"/>
</svg>
