<svg width="31" height="30" viewBox="0 0 31 30" fill="none" xmlns="http://www.w3.org/2000/svg">
<path d="M15.5 22.0171C15.5 22.0171 15.5 22.0171 15.4929 22.0171C15.1924 22.2172 14.8793 22.3977 14.5554 22.5573V27.1874C14.5554 27.436 14.6542 27.6745 14.83 27.8503C15.0058 28.0261 15.2443 28.1249 15.4929 28.1249C15.7416 28.1249 15.98 28.0261 16.1558 27.8503C16.3316 27.6745 16.4304 27.436 16.4304 27.1874V22.5573C16.1066 22.3977 15.7934 22.2172 15.4929 22.0171H15.5Z" fill="#A6A6A6"/>
<path d="M23.7149 7.33603C23.0367 5.71678 21.8951 4.33408 20.4335 3.36163C18.9719 2.38918 17.2556 1.87036 15.5 1.87036C13.7445 1.87036 12.0281 2.38918 10.5665 3.36163C9.10497 4.33408 7.96337 5.71678 7.28519 7.33603C5.82587 8.01213 4.58916 9.08968 3.71965 10.4427C2.85014 11.7957 2.38376 13.3683 2.37503 14.9767C2.36214 19.5259 6.05003 23.3204 10.5946 23.4376C11.9693 23.4735 13.3319 23.1713 14.5625 22.5575V18.3915L9.4555 15.8392C9.23297 15.7279 9.06375 15.5328 8.98507 15.2967C8.9064 15.0607 8.9247 14.8031 9.03597 14.5806C9.14724 14.358 9.34235 14.1888 9.57838 14.1101C9.81441 14.0315 10.072 14.0498 10.2946 14.161L14.5625 16.2962V10.3126C14.5625 10.0639 14.6613 9.82549 14.8371 9.64968C15.0129 9.47386 15.2514 9.37509 15.5 9.37509C15.7487 9.37509 15.9871 9.47386 16.1629 9.64968C16.3388 9.82549 16.4375 10.0639 16.4375 10.3126V13.4837L20.7055 11.3485C20.8157 11.2934 20.9356 11.2606 21.0585 11.2518C21.1814 11.2431 21.3048 11.2587 21.4217 11.2976C21.5386 11.3366 21.6466 11.3982 21.7397 11.4789C21.8327 11.5596 21.909 11.6579 21.9641 11.7681C22.0192 11.8782 22.052 11.9982 22.0608 12.1211C22.0695 12.244 22.054 12.3674 22.015 12.4842C21.976 12.6011 21.9144 12.7092 21.8337 12.8022C21.753 12.8953 21.6548 12.9716 21.5446 13.0267L16.4375 15.579V22.5575C17.6022 23.1383 18.8861 23.4396 20.1875 23.4376H20.4055C24.95 23.3204 28.6379 19.5282 28.625 14.979C28.6172 13.3702 28.1512 11.7969 27.2816 10.4434C26.412 9.08979 25.1748 8.01195 23.7149 7.33603Z" fill="#A6A6A6"/>
</svg>