<svg width="50" height="50" viewBox="0 0 50 50" fill="none" xmlns="http://www.w3.org/2000/svg">
<path d="M25 4.6875C20.9826 4.6875 17.0554 5.87881 13.715 8.11077C10.3746 10.3427 7.77111 13.5151 6.23371 17.2267C4.6963 20.9384 4.29405 25.0225 5.07781 28.9628C5.86157 32.903 7.79615 36.5224 10.6369 39.3631C13.4777 42.2039 17.097 44.1384 21.0372 44.9222C24.9775 45.706 29.0616 45.3037 32.7733 43.7663C36.4849 42.2289 39.6573 39.6254 41.8892 36.285C44.1212 32.9446 45.3125 29.0174 45.3125 25C45.3068 19.6145 43.1649 14.4513 39.3568 10.6432C35.5487 6.83507 30.3855 4.69319 25 4.6875ZM33.918 21.418L22.9805 32.3555C22.8354 32.5007 22.663 32.616 22.4734 32.6946C22.2837 32.7733 22.0803 32.8137 21.875 32.8137C21.6697 32.8137 21.4663 32.7733 21.2767 32.6946C21.087 32.616 20.9147 32.5007 20.7695 32.3555L16.082 27.668C15.7889 27.3748 15.6241 26.9771 15.6241 26.5625C15.6241 26.1479 15.7889 25.7502 16.082 25.457C16.3752 25.1638 16.7729 24.9991 17.1875 24.9991C17.6021 24.9991 17.9998 25.1638 18.293 25.457L21.875 29.041L31.707 19.207C31.8522 19.0619 32.0246 18.9467 32.2142 18.8681C32.4039 18.7896 32.6072 18.7491 32.8125 18.7491C33.0178 18.7491 33.2211 18.7896 33.4108 18.8681C33.6005 18.9467 33.7728 19.0619 33.918 19.207C34.0632 19.3522 34.1783 19.5245 34.2569 19.7142C34.3354 19.9039 34.3759 20.1072 34.3759 20.3125C34.3759 20.5178 34.3354 20.7211 34.2569 20.9108C34.1783 21.1005 34.0632 21.2728 33.918 21.418Z" fill="#25745A"/>
</svg>
