<svg width="17" height="17" viewBox="0 0 17 17" fill="none" xmlns="http://www.w3.org/2000/svg">
<path d="M8.5 4.25C7.97464 4.25 7.46108 4.40579 7.02427 4.69766C6.58745 4.98953 6.24699 5.40438 6.04594 5.88975C5.8449 6.37511 5.7923 6.9092 5.89479 7.42446C5.99728 7.93972 6.25026 8.41302 6.62175 8.7845C6.99323 9.15599 7.46653 9.40897 7.98179 9.51146C8.49705 9.61395 9.03114 9.56135 9.5165 9.3603C10.0019 9.15926 10.4167 8.8188 10.7086 8.38198C11.0005 7.94517 11.1562 7.43161 11.1562 6.90625C11.1562 6.20177 10.8764 5.52614 10.3783 5.028C9.88011 4.52985 9.20448 4.25 8.5 4.25ZM8.5 8.5C8.18479 8.5 7.87665 8.40653 7.61456 8.2314C7.35247 8.05628 7.14819 7.80737 7.02757 7.51615C6.90694 7.22493 6.87538 6.90448 6.93687 6.59532C6.99837 6.28617 7.15016 6.00219 7.37305 5.7793C7.59594 5.55641 7.87992 5.40462 8.18907 5.34312C8.49823 5.28163 8.81868 5.31319 9.1099 5.43382C9.40112 5.55444 9.65003 5.75872 9.82516 6.02081C10.0003 6.2829 10.0938 6.59104 10.0938 6.90625C10.0938 7.32894 9.92584 7.73432 9.62695 8.0332C9.32807 8.33209 8.92269 8.5 8.5 8.5ZM8.5 1.0625C6.95068 1.06426 5.46532 1.6805 4.36979 2.77604C3.27425 3.87157 2.65801 5.35693 2.65625 6.90625C2.65625 8.99141 3.6198 11.2014 5.44531 13.2979C6.26558 14.2452 7.18878 15.0982 8.19785 15.8412C8.28718 15.9038 8.39359 15.9374 8.50266 15.9374C8.61172 15.9374 8.71814 15.9038 8.80746 15.8412C9.81468 15.0979 10.7361 14.2449 11.5547 13.2979C13.3775 11.2014 14.3438 8.99141 14.3438 6.90625C14.342 5.35693 13.7257 3.87157 12.6302 2.77604C11.5347 1.6805 10.0493 1.06426 8.5 1.0625ZM8.5 14.7422C7.4023 13.8789 3.71875 10.708 3.71875 6.90625C3.71875 5.63818 4.22249 4.42205 5.11915 3.5254C6.0158 2.62874 7.23193 2.125 8.5 2.125C9.76807 2.125 10.9842 2.62874 11.8809 3.5254C12.7775 4.42205 13.2812 5.63818 13.2812 6.90625C13.2812 10.7067 9.5977 13.8789 8.5 14.7422Z" fill="black"/>
</svg>
