<svg width="50" height="51" viewBox="0 0 50 51" fill="none" xmlns="http://www.w3.org/2000/svg">
<path d="M40.625 19.2504C40.625 18.7869 40.7624 18.3337 41.02 17.9483C41.2775 17.5629 41.6436 17.2625 42.0718 17.0851C42.5001 16.9077 42.9713 16.8613 43.426 16.9517C43.8806 17.0421 44.2982 17.2654 44.626 17.5931C44.9538 17.9209 45.177 18.3385 45.2674 18.7932C45.3579 19.2478 45.3115 19.7191 45.1341 20.1473C44.9567 20.5756 44.6563 20.9416 44.2709 21.1992C43.8854 21.4567 43.4323 21.5942 42.9687 21.5942C42.3471 21.5942 41.751 21.3472 41.3115 20.9077C40.8719 20.4682 40.625 19.872 40.625 19.2504ZM38.2812 14.5629C38.7448 14.5629 39.1979 14.4255 39.5834 14.1679C39.9688 13.9104 40.2692 13.5444 40.4466 13.1161C40.624 12.6878 40.6704 12.2166 40.5799 11.7619C40.4895 11.3073 40.2663 10.8897 39.9385 10.5619C39.6107 10.2341 39.1931 10.0109 38.7385 9.92046C38.2838 9.83003 37.8126 9.87644 37.3843 10.0538C36.9561 10.2312 36.59 10.5316 36.3325 10.9171C36.0749 11.3025 35.9375 11.7556 35.9375 12.2192C35.9375 12.8408 36.1844 13.4369 36.624 13.8765C37.0635 14.316 37.6596 14.5629 38.2812 14.5629ZM43.8789 25.5004C43.4661 25.4664 43.0566 25.5976 42.7406 25.8654C42.4245 26.1331 42.2277 26.5154 42.1933 26.9282C41.9137 30.1947 40.7069 33.3134 38.715 35.9173C36.723 38.5213 34.0288 40.5021 30.9493 41.6268C27.8698 42.7514 24.5331 42.9731 21.3318 42.2658C18.1306 41.5585 15.1979 39.9515 12.879 37.634C10.56 35.3165 8.95123 32.3849 8.24188 29.1841C7.53252 25.9833 7.75213 22.6465 8.87487 19.5662C9.9976 16.486 11.9767 13.7905 14.5794 11.7969C17.1821 9.80335 20.3 8.59461 23.5664 8.31293C23.7716 8.296 23.9714 8.23882 24.1545 8.14466C24.3376 8.05049 24.5004 7.92119 24.6335 7.76413C24.7666 7.60707 24.8675 7.42532 24.9304 7.22927C24.9933 7.03323 25.0169 6.82671 25 6.62152C24.9831 6.41633 24.9259 6.21648 24.8317 6.03339C24.7376 5.8503 24.6082 5.68754 24.4512 5.55442C24.2941 5.4213 24.1124 5.32042 23.9163 5.25753C23.7203 5.19465 23.5138 5.171 23.3086 5.18793C19.4493 5.51989 15.765 6.94719 12.6893 9.3019C9.61363 11.6566 7.27442 14.8408 5.94692 18.4798C4.61942 22.1188 4.35885 26.0612 5.19586 29.8433C6.03288 33.6254 7.93265 37.0897 10.6717 39.8287C13.4107 42.5678 16.8751 44.4675 20.6571 45.3045C24.4392 46.1416 28.3816 45.881 32.0206 44.5535C35.6596 43.226 38.8438 40.8868 41.1985 37.8111C43.5532 34.7354 44.9805 31.0512 45.3125 27.1918C45.3301 26.9865 45.307 26.7797 45.2444 26.5834C45.1818 26.387 45.0809 26.205 44.9477 26.0478C44.8144 25.8906 44.6514 25.7613 44.468 25.6673C44.2845 25.5734 44.0843 25.5167 43.8789 25.5004ZM25 11.4379C27.7813 11.4379 30.5001 12.2627 32.8127 13.8079C35.1253 15.3531 36.9277 17.5494 37.992 20.1189C39.0564 22.6885 39.3349 25.516 38.7923 28.2439C38.2497 30.9717 36.9103 33.4774 34.9437 35.4441C32.977 37.4108 30.4713 38.7501 27.7434 39.2927C25.0156 39.8353 22.1881 39.5568 19.6185 38.4925C17.0489 37.4281 14.8527 35.6257 13.3074 33.3131C11.7622 31.0006 10.9375 28.2817 10.9375 25.5004C10.9416 21.7721 12.4245 18.1976 15.0609 15.5613C17.6972 12.925 21.2716 11.4421 25 11.4379ZM23.4375 25.5004C23.4375 25.9148 23.6021 26.3123 23.8951 26.6053C24.1882 26.8983 24.5856 27.0629 25 27.0629H34.375C34.7894 27.0629 35.1868 26.8983 35.4798 26.6053C35.7729 26.3123 35.9375 25.9148 35.9375 25.5004C35.9375 25.086 35.7729 24.6886 35.4798 24.3956C35.1868 24.1025 34.7894 23.9379 34.375 23.9379H26.5625V16.1254C26.5625 15.711 26.3979 15.3136 26.1048 15.0206C25.8118 14.7275 25.4144 14.5629 25 14.5629C24.5856 14.5629 24.1882 14.7275 23.8951 15.0206C23.6021 15.3136 23.4375 15.711 23.4375 16.1254V25.5004ZM31.25 9.87543C31.7135 9.87543 32.1667 9.73797 32.5521 9.48043C32.9375 9.2229 33.2379 8.85685 33.4153 8.42859C33.5927 8.00033 33.6391 7.52908 33.5487 7.07443C33.4583 6.61979 33.235 6.20217 32.9073 5.87439C32.5795 5.54661 32.1619 5.32339 31.7072 5.23296C31.2526 5.14253 30.7813 5.18894 30.3531 5.36633C29.9248 5.54373 29.5588 5.84413 29.3012 6.22956C29.0437 6.61499 28.9062 7.06813 28.9062 7.53168C28.9062 8.15328 29.1532 8.74942 29.5927 9.18896C30.0322 9.6285 30.6284 9.87543 31.25 9.87543Z" fill="#25745A"/>
</svg>
