<svg width="50" height="51" viewBox="0 0 50 51" fill="none" xmlns="http://www.w3.org/2000/svg">
<path d="M25 0.5C20.0555 0.5 15.222 1.96622 11.1108 4.71326C6.99952 7.46029 3.79521 11.3648 1.90302 15.9329C0.0108321 20.5011 -0.484251 25.5277 0.480379 30.3773C1.44501 35.2268 3.82603 39.6814 7.32234 43.1777C10.8187 46.674 15.2732 49.055 20.1227 50.0196C24.9723 50.9842 29.9989 50.4892 34.5671 48.597C39.1352 46.7048 43.0397 43.5005 45.7867 39.3892C48.5338 35.278 50 30.4445 50 25.5C49.993 18.8717 47.3568 12.517 42.6699 7.83006C37.983 3.14317 31.6283 0.507 25 0.5ZM25 46.6538C20.8162 46.6538 16.7263 45.4132 13.2476 43.0888C9.76883 40.7644 7.05749 37.4606 5.4564 33.5952C3.85532 29.7299 3.4364 25.4765 4.25263 21.3731C5.06885 17.2696 7.08356 13.5004 10.042 10.542C13.0004 7.58355 16.7697 5.56884 20.8731 4.75262C24.9765 3.93639 29.2299 4.35531 33.0952 5.95639C36.9606 7.55748 40.2644 10.2688 42.5888 13.7475C44.9132 17.2263 46.1538 21.3162 46.1538 25.5C46.1475 31.1084 43.9167 36.4853 39.951 40.451C35.9853 44.4167 30.6084 46.6475 25 46.6538ZM23.0769 27.4231V13.9615C23.0769 13.4515 23.2795 12.9624 23.6402 12.6017C24.0008 12.2411 24.49 12.0385 25 12.0385C25.51 12.0385 25.9992 12.2411 26.3598 12.6017C26.7205 12.9624 26.9231 13.4515 26.9231 13.9615V27.4231C26.9231 27.9331 26.7205 28.4222 26.3598 28.7829C25.9992 29.1435 25.51 29.3461 25 29.3461C24.49 29.3461 24.0008 29.1435 23.6402 28.7829C23.2795 28.4222 23.0769 27.9331 23.0769 27.4231ZM27.8846 36.0769C27.8846 36.6474 27.7154 37.2051 27.3985 37.6795C27.0815 38.1539 26.631 38.5236 26.1039 38.742C25.5768 38.9603 24.9968 39.0174 24.4372 38.9061C23.8777 38.7948 23.3637 38.5201 22.9603 38.1166C22.5569 37.7132 22.2821 37.1992 22.1708 36.6397C22.0595 36.0801 22.1166 35.5001 22.335 34.973C22.5533 34.4459 22.923 33.9954 23.3974 33.6784C23.8718 33.3615 24.4295 33.1923 25 33.1923C25.7651 33.1923 26.4988 33.4962 27.0397 34.0372C27.5807 34.5782 27.8846 35.3119 27.8846 36.0769Z" fill="#E60000"/>
</svg>
