<svg width="253" height="52" viewBox="0 0 253 52" fill="none" xmlns="http://www.w3.org/2000/svg">
<path d="M12.9906 5.304C16.5426 5.304 19.6466 6.008 22.3026 7.416C24.9586 8.824 27.0066 10.808 28.4466 13.368C29.9186 15.896 30.6546 18.824 30.6546 22.152C30.6546 25.448 29.9186 28.376 28.4466 30.936C27.0066 33.496 24.9426 35.48 22.2546 36.888C19.5986 38.296 16.5106 39 12.9906 39H0.366625V5.304H12.9906ZM12.4626 31.896C15.5666 31.896 17.9826 31.048 19.7106 29.352C21.4386 27.656 22.3026 25.256 22.3026 22.152C22.3026 19.048 21.4386 16.632 19.7106 14.904C17.9826 13.176 15.5666 12.312 12.4626 12.312H8.57463V31.896H12.4626ZM39.3696 9.432C37.9296 9.432 36.7456 9.016 35.8176 8.184C34.9216 7.32 34.4736 6.264 34.4736 5.016C34.4736 3.736 34.9216 2.68 35.8176 1.848C36.7456 0.983997 37.9296 0.551997 39.3696 0.551997C40.7776 0.551997 41.9296 0.983997 42.8256 1.848C43.7536 2.68 44.2176 3.736 44.2176 5.016C44.2176 6.264 43.7536 7.32 42.8256 8.184C41.9296 9.016 40.7776 9.432 39.3696 9.432ZM43.4496 12.216V39H35.2416V12.216H43.4496ZM60.2939 39.384C57.9579 39.384 55.8779 38.984 54.0539 38.184C52.2299 37.384 50.7899 36.296 49.7339 34.92C48.6779 33.512 48.0859 31.944 47.9579 30.216H56.0699C56.1659 31.144 56.5979 31.896 57.3659 32.472C58.1339 33.048 59.0779 33.336 60.1979 33.336C61.2219 33.336 62.0059 33.144 62.5499 32.76C63.1259 32.344 63.4139 31.816 63.4139 31.176C63.4139 30.408 63.0139 29.848 62.2139 29.496C61.4139 29.112 60.1179 28.696 58.3259 28.248C56.4059 27.8 54.8059 27.336 53.5259 26.856C52.2459 26.344 51.1419 25.56 50.2139 24.504C49.2859 23.416 48.8219 21.96 48.8219 20.136C48.8219 18.6 49.2379 17.208 50.0699 15.96C50.9339 14.68 52.1819 13.672 53.8139 12.936C55.4779 12.2 57.4459 11.832 59.7179 11.832C63.0779 11.832 65.7179 12.664 67.6379 14.328C69.5899 15.992 70.7099 18.2 70.9979 20.952H63.4139C63.2859 20.024 62.8699 19.288 62.1659 18.744C61.4939 18.2 60.5979 17.928 59.4779 17.928C58.5179 17.928 57.7819 18.12 57.2699 18.504C56.7579 18.856 56.5019 19.352 56.5019 19.992C56.5019 20.76 56.9019 21.336 57.7019 21.72C58.5339 22.104 59.8139 22.488 61.5419 22.872C63.5259 23.384 65.1419 23.896 66.3899 24.408C67.6379 24.888 68.7259 25.688 69.6539 26.808C70.6139 27.896 71.1099 29.368 71.1419 31.224C71.1419 32.792 70.6939 34.2 69.7979 35.448C68.9339 36.664 67.6699 37.624 66.0059 38.328C64.3739 39.032 62.4699 39.384 60.2939 39.384ZM74.5315 25.56C74.5315 22.808 75.0435 20.392 76.0675 18.312C77.1235 16.232 78.5475 14.632 80.3395 13.512C82.1315 12.392 84.1315 11.832 86.3395 11.832C88.2275 11.832 89.8755 12.216 91.2835 12.984C92.7235 13.752 93.8275 14.76 94.5955 16.008V12.216H102.804V39H94.5955V35.208C93.7955 36.456 92.6755 37.464 91.2355 38.232C89.8275 39 88.1795 39.384 86.2915 39.384C84.1155 39.384 82.1315 38.824 80.3395 37.704C78.5475 36.552 77.1235 34.936 76.0675 32.856C75.0435 30.744 74.5315 28.312 74.5315 25.56ZM94.5955 25.608C94.5955 23.56 94.0195 21.944 92.8675 20.76C91.7475 19.576 90.3715 18.984 88.7395 18.984C87.1075 18.984 85.7155 19.576 84.5635 20.76C83.4435 21.912 82.8835 23.512 82.8835 25.56C82.8835 27.608 83.4435 29.24 84.5635 30.456C85.7155 31.64 87.1075 32.232 88.7395 32.232C90.3715 32.232 91.7475 31.64 92.8675 30.456C94.0195 29.272 94.5955 27.656 94.5955 25.608ZM116.95 16.008C117.75 14.76 118.854 13.752 120.262 12.984C121.67 12.216 123.318 11.832 125.206 11.832C127.414 11.832 129.414 12.392 131.206 13.512C132.998 14.632 134.406 16.232 135.43 18.312C136.486 20.392 137.014 22.808 137.014 25.56C137.014 28.312 136.486 30.744 135.43 32.856C134.406 34.936 132.998 36.552 131.206 37.704C129.414 38.824 127.414 39.384 125.206 39.384C123.35 39.384 121.702 39 120.262 38.232C118.854 37.464 117.75 36.472 116.95 35.256V51.768H108.742V12.216H116.95V16.008ZM128.662 25.56C128.662 23.512 128.086 21.912 126.934 20.76C125.814 19.576 124.422 18.984 122.758 18.984C121.126 18.984 119.734 19.576 118.582 20.76C117.462 21.944 116.902 23.56 116.902 25.608C116.902 27.656 117.462 29.272 118.582 30.456C119.734 31.64 121.126 32.232 122.758 32.232C124.39 32.232 125.782 31.64 126.934 30.456C128.086 29.24 128.662 27.608 128.662 25.56ZM149.528 16.008C150.328 14.76 151.432 13.752 152.84 12.984C154.248 12.216 155.896 11.832 157.784 11.832C159.992 11.832 161.992 12.392 163.784 13.512C165.576 14.632 166.984 16.232 168.008 18.312C169.064 20.392 169.592 22.808 169.592 25.56C169.592 28.312 169.064 30.744 168.008 32.856C166.984 34.936 165.576 36.552 163.784 37.704C161.992 38.824 159.992 39.384 157.784 39.384C155.928 39.384 154.28 39 152.84 38.232C151.432 37.464 150.328 36.472 149.528 35.256V51.768H141.32V12.216H149.528V16.008ZM161.24 25.56C161.24 23.512 160.664 21.912 159.512 20.76C158.392 19.576 157 18.984 155.336 18.984C153.704 18.984 152.312 19.576 151.16 20.76C150.04 21.944 149.48 23.56 149.48 25.608C149.48 27.656 150.04 29.272 151.16 30.456C152.312 31.64 153.704 32.232 155.336 32.232C156.968 32.232 158.36 31.64 159.512 30.456C160.664 29.24 161.24 27.608 161.24 25.56ZM199.146 25.176C199.146 25.944 199.098 26.744 199.002 27.576H180.426C180.554 29.24 181.082 30.52 182.01 31.416C182.97 32.28 184.138 32.712 185.514 32.712C187.562 32.712 188.986 31.848 189.786 30.12H198.522C198.074 31.88 197.258 33.464 196.074 34.872C194.922 36.28 193.466 37.384 191.706 38.184C189.946 38.984 187.978 39.384 185.802 39.384C183.178 39.384 180.842 38.824 178.794 37.704C176.746 36.584 175.146 34.984 173.994 32.904C172.842 30.824 172.266 28.392 172.266 25.608C172.266 22.824 172.826 20.392 173.946 18.312C175.098 16.232 176.698 14.632 178.746 13.512C180.794 12.392 183.146 11.832 185.802 11.832C188.394 11.832 190.698 12.376 192.714 13.464C194.73 14.552 196.298 16.104 197.418 18.12C198.57 20.136 199.146 22.488 199.146 25.176ZM190.746 23.016C190.746 21.608 190.266 20.488 189.306 19.656C188.346 18.824 187.146 18.408 185.706 18.408C184.33 18.408 183.162 18.808 182.202 19.608C181.274 20.408 180.698 21.544 180.474 23.016H190.746ZM201.844 25.56C201.844 22.808 202.356 20.392 203.38 18.312C204.436 16.232 205.86 14.632 207.652 13.512C209.444 12.392 211.444 11.832 213.652 11.832C215.54 11.832 217.188 12.216 218.596 12.984C220.036 13.752 221.14 14.76 221.908 16.008V12.216H230.116V39H221.908V35.208C221.108 36.456 219.988 37.464 218.548 38.232C217.14 39 215.492 39.384 213.604 39.384C211.428 39.384 209.444 38.824 207.652 37.704C205.86 36.552 204.436 34.936 203.38 32.856C202.356 30.744 201.844 28.312 201.844 25.56ZM221.908 25.608C221.908 23.56 221.332 21.944 220.18 20.76C219.06 19.576 217.684 18.984 216.052 18.984C214.42 18.984 213.028 19.576 211.876 20.76C210.756 21.912 210.196 23.512 210.196 25.56C210.196 27.608 210.756 29.24 211.876 30.456C213.028 31.64 214.42 32.232 216.052 32.232C217.684 32.232 219.06 31.64 220.18 30.456C221.332 29.272 221.908 27.656 221.908 25.608ZM244.262 16.68C245.222 15.208 246.422 14.056 247.862 13.224C249.302 12.36 250.902 11.928 252.662 11.928V20.616H250.406C248.358 20.616 246.822 21.064 245.798 21.96C244.774 22.824 244.262 24.36 244.262 26.568V39H236.054V12.216H244.262V16.68Z" fill="white"/>
</svg>
