<svg width="15" height="16" viewBox="0 0 15 16" fill="none" xmlns="http://www.w3.org/2000/svg">
<path d="M14.2459 8.00217C14.047 8.00217 13.8563 8.08117 13.7157 8.22178C13.5751 8.36239 13.4961 8.5531 13.4961 8.75196V13.2507C13.4961 13.4495 13.4171 13.6402 13.2765 13.7808C13.1359 13.9214 12.9452 14.0004 12.7463 14.0004H2.24935C2.05049 14.0004 1.85978 13.9214 1.71917 13.7808C1.57856 13.6402 1.49957 13.4495 1.49957 13.2507V2.7537C1.49957 2.55484 1.57856 2.36413 1.71917 2.22352C1.85978 2.08291 2.05049 2.00391 2.24935 2.00391H6.74804C6.9469 2.00391 7.13761 1.92492 7.27822 1.78431C7.41883 1.64369 7.49783 1.45298 7.49783 1.25413C7.49783 1.05528 7.41883 0.864565 7.27822 0.723954C7.13761 0.583342 6.9469 0.504347 6.74804 0.504347H2.24935C1.65278 0.504347 1.08065 0.741332 0.658819 1.16317C0.236984 1.585 0 2.15713 0 2.7537V13.2507C0 13.8472 0.236984 14.4193 0.658819 14.8412C1.08065 15.263 1.65278 15.5 2.24935 15.5H12.7463C13.3429 15.5 13.915 15.263 14.3368 14.8412C14.7587 14.4193 14.9957 13.8472 14.9957 13.2507V8.75196C14.9957 8.5531 14.9167 8.36239 14.776 8.22178C14.6354 8.08117 14.4447 8.00217 14.2459 8.00217ZM2.99913 8.57201V11.7511C2.99913 11.9499 3.07813 12.1407 3.21874 12.2813C3.35935 12.4219 3.55006 12.5009 3.74891 12.5009H6.92799C7.02667 12.5014 7.12449 12.4825 7.21584 12.4452C7.30719 12.4079 7.39028 12.3529 7.46034 12.2834L12.6488 7.08744L14.7782 5.00304C14.8485 4.93334 14.9043 4.85041 14.9423 4.75905C14.9804 4.66768 15 4.56968 15 4.4707C15 4.37172 14.9804 4.27372 14.9423 4.18235C14.9043 4.09098 14.8485 4.00805 14.7782 3.93835L11.5991 0.721784C11.5294 0.651508 11.4465 0.595729 11.3551 0.557663C11.2638 0.519598 11.1658 0.5 11.0668 0.5C10.9678 0.5 10.8698 0.519598 10.7784 0.557663C10.6871 0.595729 10.6041 0.651508 10.5344 0.721784L8.42006 2.84367L3.21657 8.03966C3.14708 8.10972 3.0921 8.19281 3.05479 8.28416C3.01747 8.37551 2.99856 8.47333 2.99913 8.57201ZM11.0668 2.31132L13.1887 4.43321L12.124 5.4979L10.0021 3.37601L11.0668 2.31132ZM4.4987 8.87942L8.94491 4.43321L11.0668 6.55509L6.62058 11.0013H4.4987V8.87942Z" fill="black"/>
</svg>
