<svg width="17" height="17" viewBox="0 0 17 17" fill="none" xmlns="http://www.w3.org/2000/svg">
<rect width="17" height="17" rx="8.5" fill="#515151"/>
<path d="M8.5 10.6C7.76362 10.6 7.16667 9.9732 7.16667 9.2C7.16667 8.4268 7.76362 7.8 8.5 7.8C9.23638 7.8 9.83333 8.4268 9.83333 9.2C9.83333 9.9732 9.23638 10.6 8.5 10.6ZM12.5 7.89334V10.5067C12.5 11.0294 12.5001 11.2907 12.4032 11.4904C12.318 11.666 12.1818 11.8088 12.0146 11.8983C11.8244 12 11.5757 12 11.0779 12H5.92231C5.42448 12 5.17539 12 4.98524 11.8983C4.81799 11.8088 4.6821 11.666 4.59688 11.4904C4.5 11.2907 4.5 11.0294 4.5 10.5067V7.89334C4.5 7.37062 4.5 7.10927 4.59688 6.90962C4.6821 6.734 4.81799 6.59121 4.98524 6.50173C5.17539 6.4 5.42448 6.4 5.92231 6.4H11.0779C11.5757 6.4 11.8244 6.4 12.0146 6.50173C12.1818 6.59121 12.318 6.734 12.4032 6.90962C12.5001 7.10927 12.5 7.37062 12.5 7.89334ZM9.58843 6.4H7.41146C7.34648 6.4 7.31415 6.39999 7.2895 6.39709C7.02835 6.36639 6.84945 6.10578 6.9043 5.83594C6.90947 5.81047 6.91977 5.7781 6.94032 5.71337C6.96313 5.64151 6.97454 5.60558 6.98714 5.57388C7.11616 5.24926 7.40788 5.02839 7.74197 5.00253C7.7746 5 7.81067 5 7.88281 5H9.11715C9.18929 5 9.2254 5 9.25803 5.00253C9.59212 5.02839 9.88401 5.24926 10.013 5.57388C10.0256 5.60558 10.0371 5.64153 10.0599 5.71339C10.0804 5.77811 10.0907 5.81047 10.0959 5.83594C10.1507 6.10578 9.9718 6.36639 9.71065 6.39709C9.686 6.39999 9.65341 6.4 9.58843 6.4Z" stroke="white" stroke-linecap="round" stroke-linejoin="round"/>
</svg>
