<svg width="210" height="200" viewBox="0 0 210 200" fill="none" xmlns="http://www.w3.org/2000/svg">
<path d="M142.259 8.37165C142.259 8.37165 113.495 48.9703 67.4716 24.7539C21.4484 0.537532 -24.5749 66.0642 15.0563 105.95C54.6875 145.836 15.9054 167.753 42.8292 192.197C73.4299 219.981 100.071 163.642 124.361 176.462C177.971 204.758 217.686 193.556 208.737 160.793C193.029 103.281 172.942 99.5402 188.283 69.6254C203.623 39.7105 169.766 -22.4883 142.259 8.37165Z" fill="#D9F2EA"/>
<path d="M104.534 95.1505V180.326L45.1836 151.762L45.4667 66.8945L104.534 95.1505Z" fill="#CFB396"/>
<path d="M104.535 95.2022V180.377L163.597 152.8V67.167L104.535 95.2022Z" fill="#CFB396"/>
<path d="M104.534 95.1513L163.884 67.4522L105 38.3682L45.1836 66.7598L104.534 95.1513Z" fill="#AF8050"/>
<path d="M28.9759 81.9532L88.7041 114.257C88.8647 114.344 89.0463 114.37 89.2212 114.33C89.3961 114.291 89.5545 114.189 89.6722 114.039L104.534 95.1502L45.1834 66.7588L28.843 80.4107C28.7312 80.504 28.6429 80.6278 28.5865 80.7702C28.5301 80.9125 28.5075 81.0686 28.5208 81.2235C28.5342 81.3784 28.583 81.5269 28.6627 81.6547C28.7424 81.7824 28.8503 81.8852 28.9759 81.9532Z" fill="#BF9973"/>
<path d="M163.884 67.4512L180.367 84.0563C180.468 84.1575 180.544 84.2852 180.589 84.4276C180.634 84.5701 180.647 84.7229 180.626 84.8721C180.604 85.0213 180.55 85.1622 180.468 85.282C180.385 85.4019 180.277 85.4969 180.153 85.5584L121.161 114.895C121.004 114.973 120.828 114.994 120.659 114.953C120.491 114.913 120.338 114.815 120.223 114.671L104.534 95.1503L163.884 67.4512Z" fill="#BF9973"/>
<path d="M105 38.3669L164.049 67.4509L172.541 65.2577C172.708 65.2146 172.859 65.1139 172.971 64.9699C173.084 64.8259 173.153 64.646 173.168 64.4558C173.184 64.2656 173.145 64.0747 173.058 63.9105C172.97 63.7463 172.838 63.6169 172.681 63.541L118.762 37.5084C118.644 37.4514 118.516 37.4264 118.387 37.4354L105 38.3669Z" fill="#BF9973"/>
<path d="M105 38.368L46.2817 66.8951L38.8589 65.5052C38.6871 65.4695 38.5301 65.3731 38.4112 65.2303C38.2923 65.0875 38.2178 64.9058 38.1987 64.7122C38.1796 64.5185 38.217 64.3232 38.3052 64.155C38.3934 63.9869 38.5279 63.8548 38.6887 63.7784L93.9406 37.2462C94.0627 37.1884 94.1956 37.1646 94.3279 37.177L105 38.368Z" fill="#BF9973"/>
<path d="M165.539 162.427C173.271 162.427 179.539 156.159 179.539 148.427C179.539 140.695 173.271 134.427 165.539 134.427C157.807 134.427 151.539 140.695 151.539 148.427C151.539 156.159 157.807 162.427 165.539 162.427Z" fill="#25745A"/>
<path d="M170.824 144.353C170.583 143.551 170.245 142.899 169.811 142.402C169.391 141.917 168.846 141.545 168.23 141.323C166.9 140.884 165.456 140.884 164.126 141.323C163.511 141.544 162.968 141.916 162.551 142.402C162.111 142.899 161.773 143.551 161.538 144.353C161.302 145.156 161.182 146.136 161.182 147.291V149.646C161.182 150.8 161.302 151.781 161.544 152.589C161.733 153.307 162.081 153.978 162.564 154.557C162.983 155.047 163.527 155.425 164.144 155.654C165.467 156.108 166.913 156.108 168.236 155.654C168.85 155.425 169.391 155.047 169.805 154.557C170.28 153.975 170.624 153.305 170.813 152.589C171.048 151.781 171.169 150.8 171.169 149.646H171.182V147.291C171.181 146.136 171.06 145.155 170.824 144.353ZM168.622 149.997C168.63 150.626 168.578 151.254 168.465 151.873C168.389 152.313 168.232 152.737 168.001 153.125C167.823 153.425 167.559 153.669 167.24 153.83C166.913 153.98 166.553 154.055 166.19 154.049C165.827 154.054 165.468 153.979 165.14 153.83C164.818 153.668 164.548 153.424 164.362 153.125C164.126 152.738 163.963 152.314 163.879 151.873C163.756 151.255 163.699 150.626 163.71 149.997V146.915C163.7 146.288 163.754 145.662 163.873 145.045C163.953 144.613 164.115 144.198 164.351 143.822C164.538 143.534 164.805 143.302 165.123 143.152C165.452 143.015 165.808 142.945 166.167 142.945C166.526 142.945 166.881 143.015 167.211 143.152C167.531 143.299 167.8 143.531 167.983 143.822C168.219 144.198 168.381 144.613 168.46 145.045C168.58 145.662 168.634 146.288 168.623 146.915V149.997H168.622Z" fill="white"/>
</svg>
