<svg width="185" height="185" viewBox="0 0 185 185" fill="none" xmlns="http://www.w3.org/2000/svg">
<path d="M47.7409 7.21424C49.3378 8.75429 51.0204 10.2037 52.8918 11.4155C62.4378 17.598 90.8401 32.4738 135.887 26.3942C192.171 18.798 183.914 73.9016 175.815 88.5877C167.716 103.274 137.93 130.196 135.428 143.684C132.927 157.173 143.632 194.015 118.549 182.96C93.4653 171.904 78.9749 146.011 46.0511 149.02C13.1274 152.03 -10.1374 137.824 4.4367 112.443C19.0108 87.0614 36.4353 70.6828 14.195 42.4112C-7.42785 14.926 28.9936 -10.8644 47.7409 7.21424Z" fill="#EFE5DC"/>
<path d="M104.852 35.6889C104.434 35.2797 104.196 34.7292 104.185 34.1526C104.175 33.5759 104.394 33.0177 104.797 32.5947L119.648 16.9866C119.858 16.7656 120.112 16.5882 120.395 16.4652C120.677 16.3422 120.982 16.2761 121.292 16.2708C121.601 16.2656 121.909 16.3214 122.196 16.4348C122.482 16.5482 122.743 16.7169 122.961 16.9307L124.243 18.1878C124.461 18.4017 124.632 18.6563 124.747 18.9363C124.861 19.2163 124.916 19.516 124.909 19.8173C124.901 20.1186 124.831 20.4153 124.703 20.6896C124.574 20.9638 124.391 21.21 124.162 21.4133L108.029 35.7642C107.592 36.1533 107.017 36.3627 106.425 36.3487C105.833 36.3347 105.269 36.0983 104.852 35.6889Z" fill="#25745A"/>
<path d="M95.4515 30.3686C95.0964 30.2154 94.8159 29.9345 94.6686 29.5846C94.5213 29.2347 94.5186 28.8429 94.6611 28.4911L99.9168 15.512C99.9913 15.3282 100.103 15.1609 100.246 15.0202C100.388 14.8796 100.559 14.7684 100.746 14.6935C100.934 14.6185 101.135 14.5813 101.338 14.5841C101.541 14.5869 101.742 14.6296 101.927 14.7097L103.018 15.1805C103.203 15.2605 103.37 15.3763 103.509 15.5208C103.647 15.6654 103.754 15.8357 103.823 16.0215C103.892 16.2073 103.922 16.4048 103.911 16.6021C103.899 16.7994 103.847 16.9924 103.757 17.1696L97.4114 29.6779C97.2394 30.0171 96.9394 30.2783 96.5741 30.407C96.2088 30.5358 95.8066 30.522 95.4515 30.3686Z" fill="#25745A"/>
<path d="M85.8877 32.4898C84.6765 32.7022 83.4613 31.6902 83.1325 30.1958L77.3036 3.66144C76.9558 2.07571 77.7356 0.567552 79.0205 0.34205L80.8111 0.0282175C82.0959 -0.197032 83.3676 0.951994 83.609 2.55595L87.6479 29.404C87.8753 30.9166 87.0989 32.2775 85.8877 32.4898Z" fill="#25745A"/>
<path d="M180.103 57.4613L154.395 54.2344C153.962 54.1894 153.526 54.274 153.144 54.4768C152.761 54.6797 152.452 54.9912 152.256 55.3699L145.42 68.5127L116.805 124.238C116.501 124.826 115.992 125.29 115.368 125.546C114.744 125.802 114.048 125.833 113.402 125.634L35.7326 101.494C35.5184 101.427 35.291 101.411 35.0691 101.447C34.8473 101.483 34.6373 101.569 34.4564 101.699C34.2756 101.829 34.129 101.999 34.0289 102.195C33.9287 102.392 33.8778 102.608 33.8803 102.827L33.9159 105.967C33.9203 106.404 34.066 106.828 34.3324 107.18C34.5987 107.531 34.9721 107.791 35.3994 107.924L117.576 133.464C118.492 133.749 119.315 134.264 119.96 134.958C120.606 135.652 121.052 136.5 121.252 137.416L121.28 137.541C121.995 141.364 118.125 144.503 114.312 143.376L24.2027 115.333C23.7405 115.19 23.3423 114.898 23.0741 114.504C22.8059 114.111 22.6837 113.64 22.7278 113.169L29.7799 38.1832C29.8154 37.7966 29.934 37.4215 30.1279 37.0824C30.3219 36.7433 30.5869 36.4477 30.9059 36.2148C31.2248 35.9819 31.5904 35.8169 31.9791 35.7305C32.3677 35.6442 32.7707 35.6383 33.1618 35.7134L141.111 56.2761L148.064 42.8213C148.265 42.4411 148.581 42.13 148.969 41.93C149.357 41.73 149.799 41.6507 150.234 41.7029L181.715 45.6283C181.995 45.6625 182.264 45.7503 182.508 45.8865C182.752 46.0228 182.966 46.2049 183.138 46.4223C183.309 46.6396 183.435 46.8879 183.507 47.1528C183.579 47.4176 183.597 47.6938 183.559 47.9654L182.485 55.6755C182.411 56.2191 182.118 56.712 181.672 57.0466C181.226 57.3811 180.662 57.5302 180.103 57.4613Z" fill="#25745A"/>
<path d="M34.1328 88.6551L42.929 91.3888L51.3667 49.727L37.8628 47.708L34.1328 88.6551Z" fill="#EFE5DC"/>
<path d="M103.149 110.105L111.945 112.839L134.693 66.1866L125.005 63.9014L103.149 110.105Z" fill="#EFE5DC"/>
<path d="M69.3176 99.5914L77.4373 102.115L94.8297 58.1544L81.5418 55.4766L69.3176 99.5914Z" fill="#EFE5DC"/>
<path d="M59.0257 51.3818L72.3136 54.0596L60.5214 96.8569L51.7253 94.123L59.0257 51.3818Z" fill="#EFE5DC"/>
<path d="M116.669 62.0373L103.381 59.3594L86.9099 105.058L95.0295 107.582L116.669 62.0373Z" fill="#EFE5DC"/>
<path d="M35.8303 142.406C41.5182 142.406 46.1291 137.916 46.1291 132.378C46.1291 126.839 41.5182 122.35 35.8303 122.35C30.1424 122.35 25.5315 126.839 25.5315 132.378C25.5315 137.916 30.1424 142.406 35.8303 142.406Z" fill="#BF9973"/>
<path d="M100.11 162.384C105.798 162.384 110.409 157.895 110.409 152.356C110.409 146.818 105.798 142.328 100.11 142.328C94.4222 142.328 89.8113 146.818 89.8113 152.356C89.8113 157.895 94.4222 162.384 100.11 162.384Z" fill="#BF9973"/>
<path d="M184.728 45.2137L157.596 41.9062C157.446 41.8879 157.308 41.9918 157.29 42.1382L155.645 54.9287C155.626 55.0752 155.733 55.2088 155.883 55.2271L183.015 58.5346C183.165 58.5529 183.302 58.449 183.321 58.3026L184.966 45.5121C184.985 45.3656 184.878 45.232 184.728 45.2137Z" fill="#BF9973"/>
</svg>
