<svg width="31" height="30" viewBox="0 0 31 30" fill="none" xmlns="http://www.w3.org/2000/svg">
<path d="M30.5 13.7311V27.5998C30.5 28.2364 30.2366 28.8469 29.7677 29.297C29.2989 29.7471 28.663 30 28 30H21.75C21.0869 30 20.4511 29.7471 19.9822 29.297C19.5134 28.8469 19.25 28.2364 19.25 27.5998V21.5993C19.25 21.281 19.1183 20.9757 18.8839 20.7507C18.6494 20.5256 18.3315 20.3992 18 20.3992H13C12.6685 20.3992 12.3505 20.5256 12.1161 20.7507C11.8817 20.9757 11.75 21.281 11.75 21.5993V27.5998C11.75 28.2364 11.4866 28.8469 11.0178 29.297C10.5489 29.7471 9.91303 30 9.24999 30H3C2.33696 30 1.70107 29.7471 1.23223 29.297C0.763392 28.8469 0.5 28.2364 0.5 27.5998V13.7311C0.499947 13.3989 0.571717 13.0703 0.710768 12.7662C0.849818 12.462 1.05312 12.1888 1.30781 11.964L13.8078 0.641003L13.825 0.624502C14.2852 0.222668 14.8849 0 15.507 0C16.1291 0 16.7288 0.222668 17.189 0.624502C17.1944 0.630372 17.2001 0.635885 17.2062 0.641003L29.7062 11.964C29.9584 12.19 30.159 12.4637 30.2956 12.7678C30.4322 13.0719 30.5018 13.3999 30.5 13.7311Z" fill="#25745A"/>
</svg>