<svg width="28" height="28" viewBox="0 0 28 28" fill="none" xmlns="http://www.w3.org/2000/svg">
<path d="M24.2593 19.2434C23.6523 18.1978 22.75 15.2392 22.75 11.375C22.75 9.05436 21.8281 6.82876 20.1871 5.18782C18.5462 3.54687 16.3206 2.625 14 2.625C11.6793 2.625 9.45371 3.54687 7.81277 5.18782C6.17183 6.82876 5.24995 9.05436 5.24995 11.375C5.24995 15.2403 4.34652 18.1978 3.73948 19.2434C3.58447 19.5093 3.50229 19.8113 3.50123 20.119C3.50017 20.4267 3.58028 20.7293 3.73347 20.9962C3.88665 21.2631 4.10751 21.4848 4.37376 21.6391C4.64 21.7934 4.94223 21.8748 5.24995 21.875H9.71355C9.91542 22.8628 10.4523 23.7506 11.2333 24.3882C12.0144 25.0258 12.9917 25.374 14 25.374C15.0082 25.374 15.9855 25.0258 16.7666 24.3882C17.5476 23.7506 18.0845 22.8628 18.2864 21.875H22.75C23.0576 21.8746 23.3597 21.7931 23.6258 21.6387C23.8919 21.4843 24.1126 21.2625 24.2656 20.9957C24.4187 20.7288 24.4987 20.4263 24.4976 20.1187C24.4965 19.8111 24.4143 19.5092 24.2593 19.2434ZM14 23.625C13.4573 23.6248 12.9279 23.4565 12.4849 23.1431C12.0418 22.8297 11.7068 22.3867 11.5259 21.875H16.474C16.2931 22.3867 15.9581 22.8297 15.515 23.1431C15.072 23.4565 14.5427 23.6248 14 23.625ZM5.24995 20.125C6.09214 18.6769 6.99995 15.3212 6.99995 11.375C6.99995 9.51848 7.73745 7.73801 9.05021 6.42525C10.363 5.1125 12.1434 4.375 14 4.375C15.8565 4.375 17.6369 5.1125 18.9497 6.42525C20.2625 7.73801 21 9.51848 21 11.375C21 15.318 21.9056 18.6736 22.75 20.125H5.24995Z" fill="#333333"/>
<circle cx="19" cy="5" r="4" fill="#E60000"/>
</svg>
