<svg width="205" height="190" viewBox="0 0 205 190" fill="none" xmlns="http://www.w3.org/2000/svg">
<path fill-rule="evenodd" clip-rule="evenodd" d="M2.06853 137.067C2.86674 136.788 3.70671 136.418 4.35446 135.882C5.12377 135.245 5.43664 134.424 5.64674 133.56C5.91648 132.451 6.02426 131.269 6.35134 130.158C6.47245 129.745 6.70551 129.589 6.80552 129.52C7.05829 129.345 7.31379 129.298 7.55417 129.315C7.83905 129.336 8.23037 129.441 8.48772 129.909C8.52442 129.976 8.57211 130.078 8.60423 130.218C8.62762 130.321 8.64276 130.641 8.66753 130.773C8.72946 131.099 8.7813 131.424 8.82993 131.752C8.99186 132.841 9.085 133.766 9.59649 134.767C10.2906 136.126 10.986 136.957 11.9292 137.325C12.8412 137.681 13.9316 137.614 15.3248 137.335C15.4574 137.304 15.5886 137.277 15.7184 137.255C16.3326 137.149 16.9198 137.545 17.0405 138.144C17.1611 138.744 16.7708 139.328 16.162 139.459C16.0349 139.487 15.9097 139.513 15.7858 139.537C13.9032 139.994 11.7237 141.624 10.4571 143.051C10.0667 143.491 9.49511 144.722 8.91205 145.507C8.48175 146.086 7.99823 146.468 7.59225 146.602C7.32021 146.693 7.09085 146.679 6.90139 146.633C6.62614 146.567 6.3977 146.421 6.22246 146.188C6.12704 146.061 6.03849 145.891 5.99628 145.673C5.9761 145.568 5.97382 145.302 5.97428 145.182C5.85546 144.781 5.71004 144.39 5.60407 143.986C5.3513 143.021 4.8554 142.411 4.26637 141.604C3.71542 140.85 3.12367 140.375 2.25619 139.997C2.14334 139.97 1.23273 139.751 0.911154 139.626C0.441403 139.442 0.217525 139.134 0.136328 138.968C-0.0017532 138.687 -0.0159616 138.441 0.0115628 138.236C0.0523908 137.933 0.190932 137.674 0.436817 137.465C0.589119 137.335 0.816657 137.209 1.12126 137.147C1.3566 137.099 1.98092 137.071 2.06853 137.067ZM7.41059 135.495C7.45279 135.588 7.49775 135.68 7.54546 135.774C8.56203 137.764 9.69879 138.875 11.0805 139.414L11.1269 139.431C10.2025 140.104 9.36573 140.855 8.72625 141.576C8.46293 141.873 8.1143 142.489 7.73767 143.121C7.39545 142.031 6.83579 141.26 6.13208 140.296C5.59444 139.56 5.0311 139.006 4.33886 138.555C4.87605 138.285 5.38846 137.968 5.83481 137.599C6.57797 136.983 7.06928 136.27 7.41059 135.495Z" fill="#CCCCCC"/>
<ellipse cx="22.3636" cy="4.38345" rx="4.47273" ry="4.38345" fill="#CCCCCC"/>
<ellipse cx="200.527" cy="95.7055" rx="4.47273" ry="4.38345" fill="#CCCCCC"/>
<path d="M96.1635 166.571C143.098 166.571 181.145 129.283 181.145 83.2856C181.145 37.2882 143.098 0 96.1635 0C49.2293 0 11.1816 37.2882 11.1816 83.2856C11.1816 129.283 49.2293 166.571 96.1635 166.571Z" fill="#EFE5DC"/>
<path fill-rule="evenodd" clip-rule="evenodd" d="M95.791 32.8759C105.054 32.8759 112.564 25.5164 112.564 16.438C112.564 7.35952 105.054 0 95.791 0C86.5277 0 79.0183 7.35952 79.0183 16.438C79.0183 25.5164 86.5277 32.8759 95.791 32.8759ZM95.4183 25.5702C100.359 25.5702 104.364 21.6451 104.364 16.8033C104.364 11.9615 100.359 8.03638 95.4183 8.03638C90.4779 8.03638 86.4728 11.9615 86.4728 16.8033C86.4728 21.6451 90.4779 25.5702 95.4183 25.5702Z" fill="#333333"/>
<path d="M95.4554 148.38C113.591 148.38 128.293 133.971 128.293 116.198C128.293 98.4244 113.591 84.0161 95.4554 84.0161C77.3199 84.0161 62.6182 98.4244 62.6182 116.198C62.6182 133.971 77.3199 148.38 95.4554 148.38Z" fill="#AF8050"/>
<path d="M147.426 92.2709V67.581C147.426 54.1139 141.968 41.1984 132.251 31.6757C122.534 22.153 109.356 16.8032 95.6145 16.8032C81.8731 16.8032 68.6945 22.153 58.9779 31.6757C49.2613 41.1984 43.8025 54.1139 43.8025 67.581V92.2709C43.8031 97.9432 42.1658 103.5 39.0798 108.299C35.9939 113.097 31.5852 116.942 26.3635 119.389C25.1634 119.949 24.1503 120.832 23.4422 121.934C22.7341 123.037 22.3601 124.314 22.3638 125.617V125.75C22.3629 126.221 22.4567 126.687 22.6398 127.122C22.8229 127.557 23.0917 127.952 23.4309 128.285C23.7701 128.618 24.1729 128.883 24.6164 129.063C25.0599 129.243 25.5353 129.336 26.0154 129.336H165.207C165.687 129.336 166.162 129.243 166.606 129.063C167.049 128.883 167.452 128.618 167.791 128.285C168.13 127.952 168.399 127.557 168.582 127.122C168.765 126.687 168.859 126.221 168.858 125.75V125.617C168.859 124.318 168.484 123.046 167.777 121.947C167.071 120.849 166.061 119.969 164.865 119.409C159.641 116.961 155.23 113.113 152.144 108.31C149.057 103.508 147.422 97.9466 147.426 92.2709Z" fill="#25745A"/>
<path fill-rule="evenodd" clip-rule="evenodd" d="M169.218 129.312H22.3638V124.928H169.218V129.312Z" fill="#333333"/>
<path d="M137.164 63.5599C148.691 63.5599 158.036 54.4014 158.036 43.1038C158.036 31.8062 148.691 22.6477 137.164 22.6477C125.636 22.6477 116.291 31.8062 116.291 43.1038C116.291 54.4014 125.636 63.5599 137.164 63.5599Z" fill="white"/>
<path d="M131.945 43.096C131.945 41.2815 132.369 39.8551 133.215 38.8168C134.073 37.7784 135.389 37.2593 137.163 37.2593C138.926 37.2593 140.236 37.7837 141.095 38.8325C141.953 39.8709 142.382 41.292 142.382 43.096C142.382 44.9105 141.953 46.3421 141.095 47.391C140.236 48.4293 138.926 48.9485 137.163 48.9485C135.389 48.9485 134.073 48.4293 133.215 47.391C132.369 46.3421 131.945 44.9105 131.945 43.096ZM138.572 43.096C138.572 42.257 138.48 41.6277 138.294 41.2081C138.109 40.7781 137.732 40.5631 137.163 40.5631C136.584 40.5631 136.201 40.7781 136.015 41.2081C135.83 41.6277 135.737 42.257 135.737 43.096C135.737 43.9456 135.83 44.5854 136.015 45.0154C136.201 45.4349 136.584 45.6447 137.163 45.6447C137.732 45.6447 138.109 45.4349 138.294 45.0154C138.48 44.5854 138.572 43.9456 138.572 43.096Z" fill="#333333"/>
<path fill-rule="evenodd" clip-rule="evenodd" d="M55.2445 140.491C51.6734 143.656 48.1123 146.757 44.6369 150.022C43.8866 150.722 43.8584 151.876 44.5682 152.604C45.2804 153.338 46.4644 153.361 47.2076 152.663C50.6663 149.418 54.1964 146.343 57.7437 143.201C58.5079 142.519 58.567 141.363 57.8833 140.62C57.1902 139.872 56.0087 139.81 55.2445 140.491Z" fill="#333333"/>
<path fill-rule="evenodd" clip-rule="evenodd" d="M135.915 140.492C139.466 143.658 143.007 146.76 146.462 150.026C147.208 150.726 147.23 151.879 146.517 152.605C145.802 153.338 144.619 153.359 143.88 152.662C140.442 149.416 136.932 146.34 133.404 143.197C132.644 142.516 132.591 141.36 133.278 140.618C133.974 139.872 135.155 139.811 135.915 140.492Z" fill="#333333"/>
<path fill-rule="evenodd" clip-rule="evenodd" d="M93.2954 160.943C93.2388 165.652 93.1408 170.309 93.2241 175.017C93.2383 176.03 94.0822 176.831 95.1079 176.812C96.1402 176.796 96.9611 175.96 96.9438 174.954C96.8646 170.272 96.9605 165.654 97.018 160.977C97.0272 159.967 96.2026 159.143 95.1827 159.132C94.1529 159.125 93.3046 159.932 93.2954 160.943Z" fill="#333333"/>
</svg>
