<svg width="19" height="22" viewBox="0 0 19 22" fill="none" xmlns="http://www.w3.org/2000/svg">
<path d="M18.6601 15.6816C18.1181 14.748 17.3125 12.1064 17.3125 8.65625C17.3125 6.58425 16.4894 4.59711 15.0242 3.13198C13.5591 1.66685 11.572 0.84375 9.49997 0.84375C7.42796 0.84375 5.44082 1.66685 3.9757 3.13198C2.51057 4.59711 1.68747 6.58425 1.68747 8.65625C1.68747 12.1074 0.880826 14.748 0.338834 15.6816C0.200426 15.919 0.127051 16.1886 0.126108 16.4634C0.125165 16.7381 0.196687 17.0083 0.333462 17.2466C0.470236 17.4849 0.667427 17.6829 0.905148 17.8206C1.14287 17.9584 1.41271 18.0311 1.68747 18.0312H5.67282C5.85307 18.9132 6.33241 19.7059 7.02978 20.2752C7.72716 20.8444 8.59975 21.1554 9.49997 21.1554C10.4002 21.1554 11.2728 20.8444 11.9701 20.2752C12.6675 19.7059 13.1469 18.9132 13.3271 18.0312H17.3125C17.5871 18.0309 17.8569 17.9581 18.0944 17.8203C18.332 17.6824 18.5291 17.4844 18.6657 17.2462C18.8024 17.0079 18.8738 16.7378 18.8729 16.4631C18.8719 16.1885 18.7985 15.9189 18.6601 15.6816ZM9.49997 19.5938C9.01542 19.5936 8.54282 19.4433 8.14723 19.1635C7.75164 18.8836 7.4525 18.4881 7.29098 18.0312H11.709C11.5474 18.4881 11.2483 18.8836 10.8527 19.1635C10.4571 19.4433 9.98452 19.5936 9.49997 19.5938ZM1.68747 16.4688C2.43942 15.1758 3.24997 12.1797 3.24997 8.65625C3.24997 6.99865 3.90845 5.40894 5.08055 4.23683C6.25265 3.06473 7.84236 2.40625 9.49997 2.40625C11.1576 2.40625 12.7473 3.06473 13.9194 4.23683C15.0915 5.40894 15.75 6.99865 15.75 8.65625C15.75 12.1768 16.5586 15.1729 17.3125 16.4688H1.68747Z" fill="black"/>
</svg>
