<svg width="300" height="300" viewBox="0 0 300 300" fill="none" xmlns="http://www.w3.org/2000/svg">
<path d="M300 229.44H0V229.59H300V229.44Z" fill="#EBEBEB"/>
<path d="M269.94 239.094H250.068V239.244H269.94V239.094Z" fill="#EBEBEB"/>
<path d="M198.732 240.726H193.518V240.876H198.732V240.726Z" fill="#EBEBEB"/>
<path d="M249.468 233.526H237.954V233.676H249.468V233.526Z" fill="#EBEBEB"/>
<path d="M57.39 234.534H31.476V234.684H57.39V234.534Z" fill="#EBEBEB"/>
<path d="M66.534 234.534H62.736V234.684H66.534V234.534Z" fill="#EBEBEB"/>
<path d="M135.09 237.066H78.882V237.216H135.09V237.066Z" fill="#EBEBEB"/>
<path d="M142.2 202.68H26.346C25.4384 202.678 24.5686 202.317 23.9274 201.674C23.2862 201.032 22.926 200.162 22.926 199.254V36.396C22.9339 35.4936 23.2975 34.6308 23.9379 33.9949C24.5782 33.3591 25.4436 33.0015 26.346 33H142.2C143.109 33 143.98 33.361 144.623 34.0035C145.265 34.646 145.626 35.5174 145.626 36.426V199.254C145.626 200.163 145.265 201.034 144.623 201.677C143.98 202.319 143.109 202.68 142.2 202.68ZM26.346 33.12C25.4782 33.1216 24.6465 33.4674 24.0334 34.0816C23.4203 34.6958 23.076 35.5282 23.076 36.396V199.254C23.076 200.122 23.4203 200.954 24.0334 201.568C24.6465 202.183 25.4782 202.528 26.346 202.53H142.2C143.068 202.528 143.901 202.183 144.515 201.569C145.129 200.955 145.474 200.122 145.476 199.254V36.396C145.474 35.5276 145.129 34.6953 144.515 34.0813C143.901 33.4672 143.068 33.1216 142.2 33.12H26.346Z" fill="#EBEBEB"/>
<path d="M271.986 202.68H156.126C155.218 202.678 154.347 202.317 153.705 201.675C153.063 201.033 152.702 200.162 152.7 199.254V36.396C152.709 35.4931 153.074 34.6302 153.716 33.9946C154.357 33.3589 155.223 33.0015 156.126 33H271.986C272.887 33.0031 273.751 33.3613 274.39 33.997C275.029 34.6327 275.392 35.4947 275.4 36.396V199.254C275.4 200.161 275.041 201.03 274.401 201.672C273.761 202.314 272.892 202.677 271.986 202.68ZM156.126 33.12C155.258 33.1216 154.425 33.4672 153.811 34.0813C153.197 34.6953 152.852 35.5276 152.85 36.396V199.254C152.852 200.122 153.197 200.955 153.811 201.569C154.425 202.183 155.258 202.528 156.126 202.53H271.986C272.854 202.528 273.687 202.183 274.301 201.569C274.915 200.955 275.26 200.122 275.262 199.254V36.396C275.26 35.5276 274.915 34.6953 274.301 34.0813C273.687 33.4672 272.854 33.1216 271.986 33.12H156.126Z" fill="#EBEBEB"/>
<path d="M127.746 157.956C127.698 157.62 126.546 149.718 128.85 146.988C129.078 146.701 129.367 146.469 129.696 146.307C130.025 146.145 130.386 146.058 130.752 146.052C135.384 145.944 136.02 149.652 136.026 149.7L135.48 149.784C135.48 149.652 134.88 146.502 130.764 146.604C130.476 146.608 130.192 146.677 129.934 146.804C129.675 146.932 129.448 147.116 129.27 147.342C127.134 149.886 128.286 157.794 128.298 157.872L127.746 157.956Z" fill="#E6E6E6"/>
<path d="M127.47 157.596H126.918C126.918 157.524 127.098 150.312 123.546 148.824C122.646 148.374 121.605 148.297 120.648 148.609C119.691 148.921 118.896 149.598 118.434 150.492L117.942 150.246C118.473 149.233 119.376 148.465 120.462 148.105C121.548 147.745 122.731 147.82 123.762 148.314C127.662 149.934 127.476 157.284 127.47 157.596Z" fill="#E6E6E6"/>
<path d="M127.482 158.16C127.482 158.046 127.452 146.646 125.226 143.31C123.096 140.112 119.652 141.618 119.508 141.684L119.28 141.18C119.316 141.18 123.288 139.38 125.688 142.98C128.004 146.454 128.04 157.662 128.04 158.136L127.482 158.16Z" fill="#E6E6E6"/>
<path d="M131.4 146.322C131.4 146.322 129.378 147.072 129.978 148.83C130.578 150.588 136.974 153.486 136.974 153.486C136.974 153.486 139.65 151.032 137.19 147.042C134.73 143.052 131.472 145.068 131.4 146.322Z" fill="#E6E6E6"/>
<path d="M125.13 142.71C125.13 142.71 126.564 142.554 126.45 141.684C126.336 140.814 120.87 138.558 117.642 142.194C117.642 142.194 119.706 145.74 122.694 145.794C125.682 145.848 125.13 142.71 125.13 142.71Z" fill="#E6E6E6"/>
<path d="M123.654 148.554C123.654 148.554 124.644 147.75 123.576 147.354C122.508 146.958 117.258 147.078 117.204 152.274C117.204 152.274 123.318 153.288 124.074 151.308C124.83 149.328 123.654 148.554 123.654 148.554Z" fill="#E6E6E6"/>
<path d="M132.504 168.54H123.018L121.998 158.16H133.524L132.504 168.54Z" fill="#E6E6E6"/>
<path d="M134.028 157.014H121.488V159.306H134.028V157.014Z" fill="#E6E6E6"/>
<path d="M99.216 157.956C99.264 157.62 100.416 149.718 98.118 146.988C97.8882 146.701 97.5981 146.469 97.2683 146.307C96.9386 146.146 96.5773 146.058 96.21 146.052C91.578 145.944 90.948 149.652 90.942 149.7L91.488 149.784C91.488 149.652 92.088 146.502 96.198 146.604C96.4864 146.607 96.7704 146.675 97.029 146.803C97.2875 146.931 97.5141 147.115 97.692 147.342C99.828 149.886 98.682 157.794 98.67 157.872L99.216 157.956Z" fill="#E6E6E6"/>
<path d="M99.498 157.596H100.05C100.05 157.524 99.864 150.312 103.416 148.824C104.316 148.374 105.357 148.297 106.314 148.609C107.271 148.921 108.066 149.598 108.528 150.492L109.02 150.246C108.489 149.233 107.586 148.465 106.5 148.105C105.414 147.745 104.231 147.82 103.2 148.314C99.3 149.934 99.486 157.284 99.498 157.596Z" fill="#E6E6E6"/>
<path d="M99.48 158.16C99.48 158.046 99.48 146.646 101.736 143.31C103.872 140.112 107.31 141.618 107.46 141.684L107.688 141.18C107.646 141.18 103.674 139.38 101.274 142.98C98.958 146.454 98.928 157.662 98.928 158.136L99.48 158.16Z" fill="#E6E6E6"/>
<path d="M95.55 146.322C95.55 146.322 97.572 147.072 96.972 148.83C96.372 150.588 90 153.486 90 153.486C90 153.486 87.318 151.032 89.778 147.042C92.238 143.052 95.496 145.068 95.55 146.322Z" fill="#E6E6E6"/>
<path d="M101.838 142.71C101.838 142.71 100.398 142.554 100.518 141.684C100.638 140.814 106.098 138.558 109.32 142.194C109.32 142.194 107.256 145.74 104.274 145.794C101.292 145.848 101.838 142.71 101.838 142.71Z" fill="#E6E6E6"/>
<path d="M103.308 148.554C103.308 148.554 102.318 147.75 103.386 147.354C104.454 146.958 109.704 147.078 109.758 152.274C109.758 152.274 103.65 153.288 102.894 151.308C102.138 149.328 103.308 148.554 103.308 148.554Z" fill="#E6E6E6"/>
<path d="M94.464 168.54H103.944L104.97 158.16H93.438L94.464 168.54Z" fill="#E6E6E6"/>
<path d="M92.934 159.306H105.474V157.014H92.934V159.306Z" fill="#E6E6E6"/>
<path d="M70.8 157.956C70.752 157.62 69.6 149.718 71.898 146.988C72.1278 146.701 72.4179 146.469 72.7477 146.307C73.0774 146.146 73.4387 146.058 73.806 146.052C78.438 145.944 79.068 149.652 79.074 149.7L78.528 149.784C78.528 149.652 77.928 146.502 73.818 146.604C73.5296 146.607 73.2456 146.675 72.987 146.803C72.7285 146.931 72.5019 147.115 72.324 147.342C70.188 149.886 71.334 157.794 71.346 157.872L70.8 157.956Z" fill="#E6E6E6"/>
<path d="M70.4881 157.596H69.9361C69.9361 157.524 70.1221 150.312 66.5701 148.824C65.6698 148.374 64.6286 148.297 63.6719 148.609C62.7151 148.922 61.9198 149.598 61.4581 150.492L60.9661 150.246C61.4959 149.233 62.3982 148.466 63.4828 148.106C64.5674 147.745 65.7495 147.82 66.7801 148.314C70.6861 149.934 70.5001 157.284 70.4881 157.596Z" fill="#E6E6E6"/>
<path d="M70.506 158.16C70.506 158.046 70.47 146.646 68.25 143.31C66.114 140.112 62.67 141.618 62.526 141.684L62.298 141.18C62.34 141.18 66.312 139.38 68.712 142.98C71.022 146.454 71.058 157.662 71.058 158.136L70.506 158.16Z" fill="#E6E6E6"/>
<path d="M74.436 146.322C74.436 146.322 72.414 147.072 73.014 148.83C73.614 150.588 80.01 153.486 80.01 153.486C80.01 153.486 82.692 151.032 80.232 147.042C77.772 143.052 74.49 145.068 74.436 146.322Z" fill="#E6E6E6"/>
<path d="M68.148 142.71C68.148 142.71 69.588 142.554 69.468 141.684C69.348 140.814 63.888 138.558 60.666 142.194C60.666 142.194 62.73 145.74 65.712 145.794C68.694 145.848 68.148 142.71 68.148 142.71Z" fill="#E6E6E6"/>
<path d="M66.678 148.554C66.678 148.554 67.668 147.75 66.6 147.354C65.532 146.958 60.282 147.078 60.228 152.274C60.228 152.274 66.336 153.288 67.092 151.308C67.848 149.328 66.678 148.554 66.678 148.554Z" fill="#E6E6E6"/>
<path d="M75.522 168.54H66.042L65.016 158.16H76.548L75.522 168.54Z" fill="#E6E6E6"/>
<path d="M77.052 157.014H64.512V159.306H77.052V157.014Z" fill="#E6E6E6"/>
<path d="M58.854 229.218V171.9H137.232V229.218H140.232V168.21H55.854V229.218H58.854Z" fill="#E6E6E6"/>
<path d="M71.964 229.218V192.222H150.336V229.218H153.336V188.526H68.964V229.218H71.964Z" fill="#F0F0F0"/>
<path d="M140.1 180C140.1 180 138.3 176.058 140.358 172.17C142.416 168.282 143.022 167.37 141.708 166.578C140.394 165.786 139.788 169.686 139.788 169.686C139.136 167.922 139.068 165.995 139.596 164.19C140.508 161.376 141.084 156.798 139.836 156.306C138.588 155.814 139.596 162.018 138.51 164.106C137.957 162.623 137.6 161.074 137.448 159.498C137.298 157.242 137.532 153.636 136.548 152.712C135.564 151.788 134.928 152.424 135.894 157.41C136.478 160.386 136.801 163.408 136.86 166.44C136.86 166.44 134.718 159.906 133.26 159.714C131.802 159.522 131.82 161.64 133.056 163.476C134.292 165.312 136.656 168.6 137.052 170.292C137.052 170.292 134.694 165.372 132.582 166.878C130.47 168.384 134.424 171.36 136.182 172.434C137.94 173.508 139.182 180.234 139.182 180.234L140.1 180Z" fill="#F0F0F0"/>
<path d="M138.678 181.62C138.678 181.62 140.436 177.654 138.324 173.82C136.212 169.986 135.606 169.062 136.914 168.246C138.222 167.43 138.87 171.324 138.87 171.324C139.499 169.553 139.543 167.626 138.996 165.828C138.048 163.032 137.418 158.46 138.66 157.95C139.902 157.44 138.972 163.656 140.082 165.75C140.616 164.258 140.953 162.703 141.084 161.124C141.21 158.862 140.928 155.262 141.906 154.326C142.884 153.39 143.526 154.014 142.614 159.012C142.066 161.995 141.778 165.021 141.756 168.054C141.756 168.054 143.826 161.49 145.26 161.28C146.694 161.07 146.718 163.182 145.512 165.036C144.306 166.89 141.966 170.214 141.594 171.912C141.594 171.912 143.892 166.956 146.022 168.432C148.152 169.908 144.222 172.938 142.482 174.036C140.742 175.134 139.59 181.884 139.59 181.884L138.678 181.62Z" fill="#F0F0F0"/>
<path d="M146.79 178.794H132.258L133.434 189.186H145.614L146.79 178.794Z" fill="#F0F0F0"/>
<path d="M112.512 180C112.512 180 114.312 176.058 112.26 172.17C110.208 168.282 109.596 167.37 110.91 166.578C112.224 165.786 112.83 169.686 112.83 169.686C113.482 167.922 113.55 165.995 113.022 164.19C112.11 161.376 111.534 156.798 112.782 156.306C114.03 155.814 113.022 162.018 114.108 164.106C114.661 162.623 115.018 161.074 115.17 159.498C115.32 157.242 115.086 153.636 116.07 152.712C117.054 151.788 117.69 152.424 116.724 157.41C116.14 160.386 115.817 163.408 115.758 166.44C115.758 166.44 117.9 159.906 119.358 159.714C120.816 159.522 120.798 161.64 119.562 163.476C118.326 165.312 115.962 168.6 115.566 170.292C115.566 170.292 117.924 165.372 120.036 166.878C122.148 168.384 118.194 171.36 116.436 172.434C114.678 173.508 113.436 180.234 113.436 180.234L112.512 180Z" fill="#F0F0F0"/>
<path d="M113.94 181.62C113.94 181.62 112.182 177.654 114.294 173.82C116.406 169.986 117.012 169.062 115.704 168.246C114.396 167.43 113.748 171.324 113.748 171.324C113.119 169.553 113.075 167.626 113.622 165.828C114.57 163.032 115.2 158.46 113.958 157.95C112.716 157.44 113.646 163.656 112.536 165.75C112.002 164.258 111.665 162.703 111.534 161.124C111.408 158.862 111.684 155.262 110.712 154.326C109.74 153.39 109.092 154.014 110.004 159.012C110.552 161.995 110.84 165.021 110.862 168.054C110.862 168.054 108.792 161.49 107.358 161.28C105.924 161.07 105.9 163.182 107.106 165.036C108.312 166.89 110.652 170.214 111.024 171.912C111.024 171.912 108.726 166.956 106.596 168.432C104.466 169.908 108.396 172.938 110.136 174.036C111.876 175.134 113.028 181.884 113.028 181.884L113.94 181.62Z" fill="#F0F0F0"/>
<path d="M105.828 178.794H120.36L119.184 189.186H107.004L105.828 178.794Z" fill="#F0F0F0"/>
<path d="M87.12 180C87.12 180 85.32 176.058 87.378 172.17C89.436 168.282 90.042 167.37 88.728 166.578C87.414 165.786 86.808 169.686 86.808 169.686C86.1554 167.922 86.086 165.996 86.61 164.19C87.528 161.376 88.104 156.798 86.85 156.306C85.596 155.814 86.616 162.018 85.53 164.106C84.9768 162.623 84.6198 161.074 84.468 159.498C84.318 157.242 84.552 153.636 83.562 152.712C82.572 151.788 81.942 152.424 82.914 157.41C83.4983 160.386 83.8215 163.408 83.88 166.44C83.88 166.44 81.732 159.906 80.28 159.714C78.828 159.522 78.84 161.64 80.07 163.476C81.3 165.312 83.67 168.6 84.066 170.292C84.066 170.292 81.714 165.372 79.596 166.878C77.478 168.384 81.438 171.36 83.196 172.434C84.954 173.508 86.196 180.234 86.196 180.234L87.12 180Z" fill="#F0F0F0"/>
<path d="M85.698 181.62C85.698 181.62 87.456 177.654 85.344 173.82C83.232 169.986 82.626 169.062 83.928 168.246C85.23 167.43 85.884 171.324 85.884 171.324C86.5166 169.554 86.5629 167.627 86.016 165.828C85.062 163.032 84.438 158.46 85.68 157.95C86.922 157.44 85.986 163.656 87.096 165.75C87.6308 164.258 87.9696 162.703 88.104 161.124C88.224 158.862 87.948 155.262 88.926 154.326C89.904 153.39 90.54 154.014 89.634 159.012C89.0947 161.99 88.8156 165.009 88.8 168.036C88.8 168.036 90.864 161.472 92.304 161.262C93.744 161.052 93.762 163.164 92.55 165.018C91.338 166.872 89.01 170.196 88.638 171.894C88.638 171.894 90.93 166.938 93.066 168.414C95.202 169.89 91.266 172.92 89.526 174.018C87.786 175.116 86.634 181.866 86.634 181.866L85.698 181.62Z" fill="#F0F0F0"/>
<path d="M93.81 178.794H79.278L80.4539 189.186H92.634L93.81 178.794Z" fill="#F0F0F0"/>
<path d="M143.13 109.23L142.902 111.078L142.86 111.468L141.69 121.104H130.824L129.642 111.342L129.594 110.928L129.384 109.23H143.13Z" fill="#EBEBEB"/>
<path d="M128.964 102C129.416 102.147 129.826 102.4 130.16 102.737C130.495 103.074 130.745 103.486 130.89 103.938C131.194 104.674 131.7 105.308 132.35 105.767C133 106.225 133.767 106.49 134.562 106.53C135.089 106.557 135.597 106.734 136.026 107.04L136.488 107.31C136.488 107.148 136.452 106.98 136.446 106.806C136.312 106.707 136.184 106.601 136.062 106.488L135.978 106.404C134.532 105.018 134.49 103.554 132.804 102.24C131.118 100.926 128.964 102 128.964 102Z" fill="#EBEBEB"/>
<path d="M142.986 100.56C142.56 100.77 142.19 101.078 141.906 101.458C141.623 101.839 141.433 102.282 141.354 102.75C141.157 103.521 140.745 104.22 140.166 104.766C139.587 105.312 138.865 105.683 138.084 105.834C137.566 105.937 137.088 106.185 136.704 106.548L136.284 106.878C136.284 106.716 136.284 106.548 136.284 106.374C136.398 106.26 136.506 106.134 136.614 106.002L136.686 105.912C137.922 104.334 137.754 102.882 139.242 101.34C140.73 99.798 142.986 100.56 142.986 100.56Z" fill="#EBEBEB"/>
<path d="M136.704 106.548C136.745 107.463 136.65 108.379 136.422 109.266C135.606 112.422 135.972 109.314 135.972 109.314C136.199 108.523 136.304 107.701 136.284 106.878C136.284 106.716 136.284 106.548 136.284 106.374C136.234 105.746 136.105 105.127 135.9 104.532C135.048 102.054 133.332 101.286 132.654 98.628C131.976 95.97 134.322 94.074 134.322 94.074C134.265 94.6701 134.349 95.2713 134.569 95.8283C134.79 96.3853 135.139 96.8821 135.588 97.278C136.281 98.001 136.754 98.9056 136.954 99.8868C137.154 100.868 137.071 101.886 136.716 102.822C136.32 103.608 136.572 104.622 136.716 105.912C136.68 106.116 136.692 106.326 136.704 106.548Z" fill="#EBEBEB"/>
<path d="M142.362 110.196C142.306 110.196 142.252 110.177 142.208 110.142C142.165 110.107 142.134 110.059 142.122 110.004L136.458 86.358L130.8 110.004C130.784 110.067 130.745 110.121 130.69 110.156C130.636 110.191 130.57 110.203 130.506 110.19C130.443 110.173 130.388 110.133 130.354 110.077C130.319 110.021 130.307 109.954 130.32 109.89L136.2 85.248C136.219 85.1999 136.252 85.1585 136.295 85.1294C136.338 85.1003 136.388 85.0847 136.44 85.0847C136.492 85.0847 136.542 85.1003 136.585 85.1294C136.628 85.1585 136.661 85.1999 136.68 85.248L142.578 109.89C142.586 109.922 142.588 109.954 142.583 109.987C142.578 110.019 142.567 110.05 142.551 110.078C142.534 110.106 142.512 110.13 142.486 110.149C142.459 110.168 142.43 110.182 142.398 110.19L142.362 110.196Z" fill="#EBEBEB"/>
<path d="M136.458 111.804C136.393 111.804 136.33 111.778 136.284 111.732C136.238 111.686 136.212 111.623 136.212 111.558V70.032C136.212 69.9668 136.238 69.9042 136.284 69.8581C136.33 69.8119 136.393 69.786 136.458 69.786C136.523 69.786 136.586 69.8119 136.632 69.8581C136.678 69.9042 136.704 69.9668 136.704 70.032V111.558C136.704 111.623 136.678 111.686 136.632 111.732C136.586 111.778 136.523 111.804 136.458 111.804Z" fill="#EBEBEB"/>
<path d="M66.6541 109.23L66.4321 111.078L66.3841 111.468L65.2201 121.104H54.3481L53.1661 111.342L53.1181 110.928L52.9141 109.23H66.6541Z" fill="#EBEBEB"/>
<path d="M66.4319 101.634C66.1667 102.031 65.8106 102.359 65.3932 102.591C64.9758 102.822 64.5091 102.951 64.0319 102.966C63.2424 103.06 62.4957 103.376 61.8786 103.877C61.2615 104.378 60.7994 105.044 60.5459 105.798C60.3776 106.301 60.0671 106.745 59.6519 107.076C59.5319 107.196 59.6519 107.28 59.5439 107.412C59.7059 107.412 59.5979 107.502 59.7719 107.538C59.9022 107.438 60.0385 107.346 60.1799 107.262L60.2819 107.196C62.0099 106.182 63.4259 106.542 65.1539 105.27C66.8819 103.998 66.4319 101.634 66.4319 101.634Z" fill="#EBEBEB"/>
<path d="M53.076 102.906C53.5038 103.116 53.8755 103.424 54.1604 103.806C54.4452 104.188 54.635 104.632 54.7141 105.102C54.911 105.873 55.3229 106.572 55.9018 107.118C56.4807 107.664 57.2028 108.035 57.9841 108.186C58.5038 108.284 58.9835 108.533 59.3641 108.9L59.7841 109.23C59.7841 109.068 59.7841 108.894 59.7841 108.726C59.6701 108.606 59.562 108.486 59.454 108.354L59.3821 108.258C58.1461 106.68 58.3081 105.228 56.8261 103.686C55.344 102.144 53.076 102.906 53.076 102.906Z" fill="#EBEBEB"/>
<path d="M59.364 107.43C59.3233 108.345 59.4184 109.261 59.646 110.148C60.456 113.304 60.096 110.19 60.096 110.19C59.8694 109.401 59.7641 108.581 59.784 107.76C59.784 107.598 59.784 107.424 59.784 107.256C59.8341 106.629 59.961 106.01 60.162 105.414C61.02 102.93 62.736 102.168 63.408 99.5041C64.08 96.8401 61.74 94.9561 61.74 94.9561C61.7996 95.5509 61.7164 96.1514 61.4972 96.7077C61.2781 97.2639 60.9293 97.7598 60.48 98.1541C58.902 99.6841 58.68 102.354 59.352 103.698C59.748 104.49 59.496 105.498 59.382 106.794C59.4 106.998 59.4 107.208 59.364 107.43Z" fill="#EBEBEB"/>
<path d="M65.5981 110.196C65.5422 110.196 65.488 110.177 65.4444 110.142C65.4008 110.107 65.3703 110.059 65.3581 110.004L59.6941 86.358L54.0301 110.004C54.0265 110.039 54.0155 110.073 53.9979 110.103C53.9802 110.133 53.9563 110.16 53.9276 110.18C53.899 110.2 53.8663 110.214 53.8319 110.221C53.7974 110.227 53.7619 110.227 53.7278 110.218C53.6937 110.21 53.6617 110.195 53.634 110.173C53.6063 110.152 53.5836 110.124 53.5673 110.093C53.551 110.062 53.5416 110.028 53.5397 109.993C53.5377 109.958 53.5433 109.923 53.5561 109.89L59.4541 85.248C59.4731 85.1999 59.5061 85.1585 59.5489 85.1294C59.5917 85.1003 59.6423 85.0847 59.6941 85.0847C59.7458 85.0847 59.7964 85.1003 59.8392 85.1294C59.882 85.1585 59.9151 85.1999 59.9341 85.248L65.8381 109.89C65.851 109.954 65.8389 110.021 65.8044 110.077C65.7698 110.133 65.7154 110.173 65.6521 110.19L65.5981 110.196Z" fill="#EBEBEB"/>
<path d="M59.694 111.804C59.6288 111.804 59.5662 111.778 59.5201 111.732C59.4739 111.686 59.448 111.623 59.448 111.558V70.032C59.4495 69.9672 59.4759 69.9056 59.5217 69.8598C59.5675 69.8139 59.6292 69.7875 59.694 69.786C59.7592 69.786 59.8218 69.8119 59.8679 69.8581C59.9141 69.9042 59.94 69.9668 59.94 70.032V111.558C59.94 111.623 59.9141 111.686 59.8679 111.732C59.8218 111.778 59.7592 111.804 59.694 111.804Z" fill="#EBEBEB"/>
<path d="M104.784 109.23L104.562 111.078L104.514 111.468L103.35 121.104H92.4779L91.2959 111.342L91.2479 110.928L91.0439 109.23H104.784Z" fill="#EBEBEB"/>
<path d="M105 103.524C104.548 103.672 104.137 103.926 103.802 104.264C103.468 104.602 103.218 105.014 103.074 105.468C102.77 106.204 102.264 106.838 101.614 107.297C100.964 107.755 100.197 108.02 99.402 108.06C98.8733 108.086 98.3631 108.263 97.932 108.57L97.47 108.84C97.47 108.678 97.506 108.51 97.512 108.336C97.644 108.234 97.77 108.126 97.896 108.012L97.98 107.934C99.426 106.542 99.468 105.084 101.154 103.764C102.84 102.444 105 103.524 105 103.524Z" fill="#EBEBEB"/>
<path d="M91.08 100.2C91.2831 100.63 91.5854 101.005 91.962 101.295C92.3386 101.585 92.7787 101.782 93.246 101.868C94.0145 102.076 94.708 102.499 95.2455 103.086C95.7831 103.674 96.1425 104.402 96.282 105.186C96.374 105.707 96.6135 106.19 96.972 106.578L97.296 107.004C97.134 107.004 97.296 107.604 97.14 107.634C96.9414 107.29 96.7016 106.972 96.426 106.686L96.336 106.608C94.776 105.354 93.336 105.492 91.806 103.986C90.276 102.48 91.08 100.2 91.08 100.2Z" fill="#EBEBEB"/>
<path d="M97.0079 106.548C96.9696 107.463 97.0667 108.379 97.2959 109.266C98.1059 112.422 97.7459 109.314 97.7459 109.314C97.515 108.523 97.4078 107.702 97.4279 106.878C97.4279 106.716 97.4279 106.548 97.4579 106.374C97.5029 105.746 97.6299 105.127 97.8359 104.532C98.6879 102.054 100.404 101.286 101.082 98.628C101.76 95.97 99.4139 94.074 99.4139 94.074C99.4714 94.6701 99.3866 95.2713 99.1665 95.8283C98.9464 96.3853 98.5973 96.8821 98.1479 97.278C97.4544 98.0005 96.9806 98.9054 96.7819 99.8871C96.5833 100.869 96.6679 101.887 97.0259 102.822C97.4159 103.608 97.1699 104.622 97.0259 105.912C97.0319 106.116 97.0199 106.326 97.0079 106.548Z" fill="#EBEBEB"/>
<path d="M103.722 110.196C103.667 110.196 103.613 110.177 103.571 110.142C103.528 110.107 103.499 110.058 103.488 110.004L97.7999 86.358L92.1359 110.004C92.1202 110.067 92.0809 110.121 92.0262 110.156C91.9714 110.191 91.9055 110.203 91.8419 110.19C91.7786 110.173 91.7242 110.133 91.6896 110.077C91.6551 110.021 91.643 109.954 91.6559 109.89L97.5599 85.248C97.5789 85.1999 97.612 85.1585 97.6548 85.1294C97.6976 85.1003 97.7482 85.0847 97.7999 85.0847C97.8517 85.0847 97.9023 85.1003 97.9451 85.1294C97.9879 85.1585 98.0209 85.1999 98.0399 85.248L103.938 109.89C103.946 109.922 103.948 109.954 103.943 109.987C103.938 110.019 103.927 110.05 103.911 110.078C103.894 110.106 103.872 110.13 103.846 110.149C103.819 110.168 103.79 110.182 103.758 110.19L103.722 110.196Z" fill="#EBEBEB"/>
<path d="M97.8 111.804C97.7347 111.804 97.6721 111.778 97.626 111.732C97.5799 111.686 97.554 111.623 97.554 111.558V70.032C97.554 69.9668 97.5799 69.9042 97.626 69.8581C97.6721 69.8119 97.7347 69.786 97.8 69.786C97.8647 69.7875 97.9264 69.8139 97.9722 69.8598C98.018 69.9056 98.0444 69.9672 98.046 70.032V111.558C98.046 111.623 98.02 111.686 97.9739 111.732C97.9278 111.778 97.8652 111.804 97.8 111.804Z" fill="#EBEBEB"/>
<path d="M140.766 67.6201H55.344V69.7621H140.766V67.6201Z" fill="#EBEBEB"/>
<path d="M184.842 80.3399L204.756 68.7539H220.098L240.336 79.7879V154.86H184.842V80.3399Z" fill="#E0E0E0"/>
<path d="M240.912 154.86H184.842V80.34L185.442 79.788C192.816 72.684 202.665 68.727 212.904 68.754C223.135 68.7373 232.972 72.6983 240.336 79.8L240.936 80.352L240.912 154.86ZM188.562 151.14H237.192V81.936C230.554 75.8561 221.879 72.4838 212.877 72.4838C203.875 72.4838 195.2 75.8561 188.562 81.936V151.14Z" fill="#FAFAFA"/>
<path d="M211.482 151.59H214.272V126.678H237.894V123.888H214.272V98.406H237.894V95.616H214.272V71.994H211.482V95.616H187.86V98.406H211.482V123.888H187.86V126.678H211.482V151.59Z" fill="#F0F0F0"/>
<path d="M242.766 156.72H183V79.578L183.54 79.032C191.33 71.2604 201.885 66.896 212.889 66.896C223.893 66.896 234.448 71.2604 242.238 79.032L242.778 79.578L242.766 156.72ZM186.702 153H239.052V81.132C232.009 74.3826 222.632 70.6146 212.877 70.6146C203.122 70.6146 193.745 74.3826 186.702 81.132V153Z" fill="#F0F0F0"/>
<path d="M150 256.536C214.25 256.536 266.334 253.495 266.334 249.744C266.334 245.993 214.25 242.952 150 242.952C85.7505 242.952 33.666 245.993 33.666 249.744C33.666 253.495 85.7505 256.536 150 256.536Z" fill="#F5F5F5"/>
<path d="M64.518 225.036C64.518 224.802 63.738 201.876 60.006 198.252C56.406 194.736 52.206 198.12 52.05 198.252L51.666 197.79C51.714 197.748 56.424 193.908 60.426 197.79C64.326 201.576 65.088 224.028 65.118 224.982L64.518 225.036Z" fill="#333333"/>
<path d="M64.842 229.542C64.842 229.266 62.292 202.008 72.246 190.584L72.702 190.98C62.91 202.2 65.4 229.2 65.436 229.482L64.842 229.542Z" fill="#333333"/>
<path d="M64.488 226.662L63.888 226.62C63.888 226.308 65.838 195.642 58.542 188.928L58.944 188.484C66.456 195.39 64.572 225.384 64.488 226.662Z" fill="#333333"/>
<path d="M65.442 226.644H64.842C64.842 225.798 65.082 205.92 70.728 202.68C71.2654 202.333 71.8782 202.119 72.515 202.058C73.1518 201.996 73.7941 202.088 74.388 202.326C77.808 203.736 79.5 209.82 79.572 210.078L78.972 210.234C78.972 210.174 77.286 204.18 74.142 202.878C73.632 202.678 73.0816 202.603 72.5367 202.66C71.9918 202.716 71.4683 202.902 71.01 203.202C65.676 206.262 65.442 226.44 65.442 226.644Z" fill="#333333"/>
<path d="M63.2401 226.656L62.6401 226.62C62.6401 226.464 63.4921 210.918 59.2981 205.446C58.2841 204.12 57.1801 203.49 56.0161 203.568C53.2681 203.76 50.9701 207.768 50.9461 207.822L50.4241 207.528C50.5261 207.348 52.9081 203.184 55.9741 202.968C57.3481 202.872 58.6321 203.568 59.7781 205.08C64.1041 210.732 63.2761 226.008 63.2401 226.656Z" fill="#333333"/>
<path d="M64.146 228.774C64.032 227.262 61.404 191.754 66.03 185.496L66.51 185.856C62.016 191.934 64.71 228.36 64.746 228.726L64.146 228.774Z" fill="#333333"/>
<path d="M75.642 205.926C75.642 205.926 72.87 206.946 73.692 209.364C74.514 211.782 83.292 215.754 83.292 215.754C83.292 215.754 86.97 212.382 83.592 206.904C80.214 201.426 75.72 204.198 75.642 205.926Z" fill="#25745A"/>
<path opacity="0.2" d="M75.642 205.926C75.642 205.926 72.87 206.946 73.692 209.364C74.514 211.782 83.292 215.754 83.292 215.754C83.292 215.754 86.97 212.382 83.592 206.904C80.214 201.426 75.72 204.198 75.642 205.926Z" fill="white"/>
<path d="M63.6 201.324C63.6 201.324 66.552 201.204 66.72 203.724C66.888 206.244 60.318 213.324 60.318 213.324C60.318 213.324 55.632 211.632 56.64 205.272C57.648 198.912 62.844 199.758 63.6 201.324Z" fill="#25745A"/>
<path opacity="0.2" d="M63.6 201.324C63.6 201.324 66.552 201.204 66.72 203.724C66.888 206.244 60.318 213.324 60.318 213.324C60.318 213.324 55.632 211.632 56.64 205.272C57.648 198.912 62.844 199.758 63.6 201.324Z" fill="white"/>
<path d="M61.08 189.138C61.08 189.138 63.048 188.922 62.88 187.722C62.712 186.522 55.218 183.438 50.796 188.43C50.796 188.43 53.628 193.296 57.726 193.362C61.824 193.428 61.08 189.138 61.08 189.138Z" fill="#25745A"/>
<path opacity="0.2" d="M61.08 189.138C61.08 189.138 63.048 188.922 62.88 187.722C62.712 186.522 55.218 183.438 50.796 188.43C50.796 188.43 53.628 193.296 57.726 193.362C61.824 193.428 61.08 189.138 61.08 189.138Z" fill="white"/>
<path d="M64.752 186.222C64.752 186.222 62.952 187.086 62.466 185.982C61.98 184.878 66.666 178.29 73.092 180.192C73.092 180.192 73.266 185.82 69.822 188.04C66.378 190.26 64.752 186.222 64.752 186.222Z" fill="#25745A"/>
<path opacity="0.2" d="M64.752 186.222C64.752 186.222 62.952 187.086 62.466 185.982C61.98 184.878 66.666 178.29 73.092 180.192C73.092 180.192 73.266 185.82 69.822 188.04C66.378 190.26 64.752 186.222 64.752 186.222Z" fill="white"/>
<path d="M55.422 204.954C55.422 204.954 56.784 203.856 55.314 203.322C53.844 202.788 46.65 202.938 46.572 210.066C46.572 210.066 54.972 211.464 55.998 208.746C57.024 206.028 55.422 204.954 55.422 204.954Z" fill="#25745A"/>
<path opacity="0.2" d="M55.422 204.954C55.422 204.954 56.784 203.856 55.314 203.322C53.844 202.788 46.65 202.938 46.572 210.066C46.572 210.066 54.972 211.464 55.998 208.746C57.024 206.028 55.422 204.954 55.422 204.954Z" fill="white"/>
<path d="M72.522 188.958C72.522 188.958 71.16 187.86 72.63 187.326C74.1 186.792 81.3 186.942 81.372 194.07C81.372 194.07 72.972 195.468 71.946 192.75C70.92 190.032 72.522 188.958 72.522 188.958Z" fill="#25745A"/>
<path opacity="0.2" d="M72.522 188.958C72.522 188.958 71.16 187.86 72.63 187.326C74.1 186.792 81.3 186.942 81.372 194.07C81.372 194.07 72.972 195.468 71.946 192.75C70.92 190.032 72.522 188.958 72.522 188.958Z" fill="white"/>
<path d="M68.0881 194.7C68.0881 194.7 67.9681 193.368 69.0481 193.89C70.1281 194.412 73.8481 198.462 69.9901 202.29C69.9901 202.29 64.7521 198.408 65.6941 196.392C66.6361 194.376 68.0881 194.7 68.0881 194.7Z" fill="#25745A"/>
<path opacity="0.2" d="M68.0881 194.7C68.0881 194.7 67.9681 193.368 69.0481 193.89C70.1281 194.412 73.8481 198.462 69.9901 202.29C69.9901 202.29 64.7521 198.408 65.6941 196.392C66.6361 194.376 68.0881 194.7 68.0881 194.7Z" fill="white"/>
<path d="M54.21 196.602C54.21 196.602 55.02 195.54 53.832 195.402C52.644 195.264 47.304 196.692 48.546 202.002C48.546 202.002 55.044 201.51 55.326 199.302C55.608 197.094 54.21 196.602 54.21 196.602Z" fill="#25745A"/>
<path opacity="0.2" d="M54.21 196.602C54.21 196.602 55.02 195.54 53.832 195.402C52.644 195.264 47.304 196.692 48.546 202.002C48.546 202.002 55.044 201.51 55.326 199.302C55.608 197.094 54.21 196.602 54.21 196.602Z" fill="white"/>
<path d="M76.164 246.408H53.862L51.462 221.994H78.57L76.164 246.408Z" fill="#333333"/>
<path opacity="0.7" d="M76.164 246.408H53.862L51.462 221.994H78.57L76.164 246.408Z" fill="white"/>
<path d="M79.7581 219.3H50.2681V224.688H79.7581V219.3Z" fill="#333333"/>
<path opacity="0.5" d="M79.7581 219.3H50.2681V224.688H79.7581V219.3Z" fill="white"/>
<path d="M168.34 158.193C168.856 159.951 169.354 161.793 169.9 163.593C170.446 165.393 170.968 167.193 171.526 168.951C172.084 170.709 172.672 172.455 173.326 174.009C173.488 174.393 173.65 174.765 173.812 175.095C173.974 175.425 174.136 175.725 174.226 175.869C174.316 176.013 174.292 175.971 174.184 175.869C173.872 175.653 174.214 175.869 174.328 175.965C174.598 176.163 175.024 176.403 175.39 176.631C176.944 177.567 178.612 178.503 180.268 179.427L185.272 182.229C188.628 184.089 191.962 186.007 195.274 187.983L193.618 191.583C189.95 190.327 186.326 188.977 182.746 187.533C180.946 186.819 179.146 186.051 177.376 185.301C175.606 184.551 173.818 183.729 171.976 182.829C171.508 182.583 171.076 182.379 170.542 182.061C170.165 181.866 169.809 181.632 169.48 181.365C169.108 181.054 168.768 180.706 168.466 180.327C168.046 179.805 167.665 179.254 167.326 178.677C167.02 178.161 166.726 177.675 166.51 177.189C165.607 175.344 164.806 173.451 164.11 171.519C162.739 167.814 161.575 164.036 160.624 160.203L168.34 158.193Z" fill="#FFB573"/>
<path d="M172.594 166.293L161.71 169.221L161.278 168.357L157.852 161.541L162.496 158.931L168.712 155.439C170.422 158.229 172.594 166.293 172.594 166.293Z" fill="#333333"/>
<path opacity="0.2" d="M161.278 168.357L157.852 161.541L162.496 158.931C162.916 160.593 163.78 165.225 161.278 168.357Z" fill="black"/>
<path d="M168.712 155.439C168.712 155.439 159.478 173.319 136.942 178.125L115.714 169.971C115.714 169.971 119.158 167.055 123.568 162.867C127.725 158.969 131.65 154.83 135.322 150.471C137.8 147.471 139.888 144.471 141.076 141.879C141.076 141.879 159.106 141.147 168.712 155.439Z" fill="#333333"/>
<path d="M161.71 165.111C161.71 165.111 161.002 166.215 159.676 167.853C156.73 171.495 150.724 177.765 142.684 180.357C131.02 184.107 124.402 178.125 124.402 178.125V169.557C133.534 170.757 142.174 163.215 145.402 159.957C146.26 159.099 146.734 158.547 146.734 158.547L149.956 159.957L159.022 163.935L161.71 165.111Z" fill="#25745A"/>
<path opacity="0.2" d="M149.95 159.993C149.548 161.403 148.75 163.353 147.328 163.155C145.906 162.957 145.492 161.163 145.396 159.993C146.254 159.135 146.728 158.583 146.728 158.583L149.95 159.993Z" fill="black"/>
<path opacity="0.2" d="M143.662 169.971C143.662 169.971 148.348 172.269 152.152 173.103C153.4 172.179 154.264 171.465 154.264 171.465L143.974 167.793C140.254 171.789 135.808 173.343 135.958 174.393C136.108 175.443 141.388 177.393 144.388 177.291C146.05 177.231 148.912 175.455 151.126 173.883C149.092 173.481 145.408 172.485 143.662 169.971Z" fill="black"/>
<path d="M144.46 142.023C144.46 142.023 149.764 145.977 145.942 160.467C145.84 160.865 145.896 161.287 146.097 161.646C146.298 162.004 146.629 162.272 147.022 162.393C147.227 162.456 147.444 162.476 147.657 162.453C147.871 162.431 148.078 162.365 148.266 162.26C148.453 162.155 148.618 162.014 148.75 161.844C148.881 161.674 148.977 161.479 149.032 161.271C150.046 157.443 152.128 147.669 148.66 142.641L144.46 142.023Z" fill="#25745A"/>
<path opacity="0.2" d="M148.576 160.659C148.586 160.78 148.57 160.903 148.531 161.018C148.491 161.133 148.428 161.239 148.346 161.329C148.263 161.419 148.163 161.49 148.051 161.539C147.939 161.588 147.819 161.613 147.697 161.613C147.575 161.613 147.454 161.588 147.342 161.539C147.231 161.49 147.13 161.419 147.048 161.329C146.965 161.239 146.902 161.133 146.863 161.018C146.823 160.903 146.808 160.78 146.818 160.659C146.836 160.438 146.936 160.233 147.099 160.083C147.262 159.933 147.475 159.849 147.697 159.849C147.918 159.849 148.131 159.933 148.294 160.083C148.457 160.233 148.557 160.438 148.576 160.659Z" fill="black"/>
<path opacity="0.2" d="M161.71 165.111C161.71 165.111 161.002 166.215 159.676 167.853C158.032 167.217 158.53 165.183 159.016 163.935L161.71 165.111Z" fill="black"/>
<path d="M158.968 165.687C160.6 163.347 164.584 156.825 163.822 149.895L165.436 151.413C165.436 151.413 167.944 158.295 160.444 166.845C160.31 166.993 160.134 167.095 159.939 167.138C159.744 167.18 159.54 167.159 159.358 167.079C159.232 167.022 159.12 166.939 159.03 166.834C158.94 166.73 158.874 166.607 158.837 166.474C158.8 166.341 158.793 166.202 158.815 166.066C158.838 165.93 158.89 165.8 158.968 165.687Z" fill="#25745A"/>
<path opacity="0.2" d="M160.696 166.221C160.604 166.308 160.489 166.369 160.364 166.395C160.24 166.421 160.111 166.412 159.991 166.368C159.872 166.325 159.767 166.249 159.688 166.15C159.609 166.05 159.559 165.93 159.545 165.804C159.53 165.678 159.551 165.55 159.605 165.435C159.659 165.32 159.744 165.222 159.85 165.152C159.957 165.083 160.08 165.044 160.207 165.041C160.335 165.038 160.46 165.071 160.57 165.135C160.728 165.264 160.829 165.45 160.852 165.652C160.876 165.855 160.82 166.059 160.696 166.221Z" fill="black"/>
<path d="M92.9436 232.149L116.398 231.297L112.132 239.907L88.5576 235.599L92.9436 232.149Z" fill="#EBB376"/>
<path d="M95.5177 231.735C95.9197 232.197 90.0637 236.871 90.0637 236.871C90.0637 236.871 83.5177 236.505 79.5037 238.731C75.4897 240.957 75.5377 237.297 79.2277 233.931L88.3657 225.621C90.9937 223.245 91.3837 226.971 95.5177 231.735Z" fill="#333333"/>
<path d="M93.5556 233.865C93.5813 233.859 93.608 233.859 93.6336 233.865C93.6532 233.859 93.6741 233.859 93.6936 233.865C93.714 233.87 93.7327 233.88 93.7476 233.895C93.7688 233.913 93.7853 233.935 93.7956 233.961C93.8316 234.045 94.5336 235.761 94.0656 236.739C93.9979 236.892 93.8971 237.027 93.7705 237.136C93.6439 237.245 93.4947 237.325 93.3336 237.369C93.2053 237.432 93.0604 237.453 92.9194 237.429C92.7784 237.405 92.6484 237.338 92.5476 237.237C92.3016 236.931 92.4276 236.277 92.6616 235.629C92.309 236.081 91.8374 236.426 91.2996 236.625C91.1918 236.651 91.0799 236.654 90.9706 236.636C90.8613 236.617 90.7569 236.577 90.6636 236.517C90.5314 236.454 90.4219 236.351 90.35 236.223C90.2781 236.096 90.2472 235.949 90.2616 235.803C90.3072 235.565 90.4372 235.352 90.6276 235.203C91.5195 234.592 92.51 234.139 93.5556 233.865ZM93.1356 234.417C92.0076 234.813 90.7356 235.431 90.6516 235.881C90.6516 235.923 90.6516 236.037 90.8796 236.205C90.9277 236.237 90.9822 236.258 91.0392 236.266C91.0963 236.274 91.1545 236.27 91.2096 236.253C91.499 236.163 91.761 236.002 91.9716 235.785C92.4051 235.361 92.7951 234.895 93.1356 234.393V234.417ZM93.7356 236.589C94.0056 235.989 93.7716 235.077 93.6036 234.537C93.0636 235.593 92.6676 236.745 92.8776 237.003C92.9436 237.087 93.1356 237.045 93.2436 237.003C93.3591 236.971 93.4658 236.914 93.5556 236.835C93.6223 236.763 93.6752 236.68 93.7116 236.589H93.7356Z" fill="#25745A"/>
<path d="M98.0857 237.705L102.928 225.807L117.946 227.187L116.188 241.155L98.0857 237.705Z" fill="#25745A"/>
<path opacity="0.2" d="M98.0857 237.705L102.928 225.807L117.946 227.187L116.188 241.155L98.0857 237.705Z" fill="black"/>
<path d="M81.2617 234.849L104.722 233.991L100.456 242.607L76.8817 238.299L81.2617 234.849Z" fill="#EBB376"/>
<path d="M83.8417 234.435C84.2437 234.891 78.3877 239.571 78.3877 239.571C78.3877 239.571 71.8417 239.205 67.8277 241.431C63.8137 243.657 63.8617 239.997 67.5517 236.631L76.6897 228.321C79.3177 225.939 79.7077 229.671 83.8417 234.435Z" fill="#333333"/>
<path d="M77.1217 239.415H77.1997C77.2195 239.411 77.2398 239.411 77.2597 239.415C77.278 239.423 77.2944 239.436 77.3077 239.451C77.3289 239.469 77.3454 239.491 77.3557 239.517C77.3917 239.607 78.0937 241.317 77.6257 242.295C77.5569 242.447 77.4558 242.583 77.3295 242.693C77.2031 242.803 77.0544 242.884 76.8937 242.931C76.7647 242.993 76.6195 243.013 76.4785 242.988C76.3375 242.964 76.2078 242.895 76.1077 242.793C75.8617 242.487 75.9877 241.839 76.2217 241.191C75.869 241.641 75.3972 241.984 74.8597 242.181C74.7524 242.209 74.6404 242.214 74.5309 242.197C74.4214 242.179 74.3168 242.139 74.2237 242.079C74.0915 242.015 73.982 241.913 73.9101 241.785C73.8382 241.658 73.8073 241.511 73.8217 241.365C73.8697 241.128 73.9992 240.916 74.1877 240.765C75.0809 240.15 76.0734 239.693 77.1217 239.415ZM76.7017 239.967C75.5737 240.363 74.3017 240.981 74.2177 241.431C74.2177 241.473 74.2177 241.593 74.4457 241.761C74.4954 241.791 74.5509 241.811 74.6087 241.82C74.6665 241.828 74.7254 241.824 74.7817 241.809C75.0698 241.714 75.331 241.551 75.5437 241.335C75.9769 240.921 76.365 240.462 76.7017 239.967ZM77.3017 242.145C77.4812 241.465 77.4349 240.744 77.1697 240.093C76.6357 241.149 76.2337 242.295 76.4437 242.559C76.5097 242.637 76.7017 242.595 76.8097 242.559C76.9256 242.525 77.0323 242.466 77.1217 242.385C77.187 242.314 77.2398 242.233 77.2777 242.145H77.3017Z" fill="#25745A"/>
<path d="M179.626 231.573C177.934 238.719 172.684 240.993 167.422 241.371C161.008 241.815 154.588 239.391 154.588 239.391C154.588 239.391 153.988 241.827 142.684 242.991C126.574 244.665 92.0616 243.219 92.0616 243.219L94.8216 232.911L128.422 226.065C128.422 226.065 103.258 204.135 104.944 185.547C105.544 178.881 116.944 167.109 117.136 166.605L145.768 175.425L142.678 180.357C142.678 180.357 183.244 216.393 179.626 231.573Z" fill="#25745A"/>
<path opacity="0.2" d="M167.422 241.371C161.008 241.815 154.588 239.391 154.588 239.391C154.588 239.391 157.588 235.473 156.754 228.711C155.956 222.051 135.25 190.041 134.65 189.111C135.544 189.939 164.05 216.393 167.866 229.611C169.318 234.627 168.73 238.497 167.422 241.371Z" fill="black"/>
<path d="M162.22 149.241C161.62 150.687 162.256 151.395 162.256 151.395C162.124 151.863 161.887 152.294 161.562 152.656C161.238 153.018 160.835 153.301 160.385 153.484C159.934 153.666 159.448 153.743 158.963 153.709C158.478 153.674 158.008 153.529 157.588 153.285C153.31 150.759 154.384 144.705 154.384 144.705C158.248 144.915 160.642 141.651 161.764 139.575C162.064 139.035 162.323 138.474 162.538 137.895L166.864 144.549C165.953 145.167 165.087 145.849 164.272 146.589C163.416 147.326 162.718 148.228 162.22 149.241Z" fill="#FFB573"/>
<path opacity="0.2" d="M166.864 144.549C165.953 145.167 165.087 145.849 164.272 146.589C163.416 147.326 162.719 148.228 162.22 149.241C158.818 147.579 161.764 139.641 161.764 139.641V139.593C162.064 139.053 162.323 138.492 162.538 137.913L166.864 144.549Z" fill="black"/>
<path d="M169.822 123.141C169.822 123.141 174.022 115.941 169.192 112.941C167.778 112.073 166.17 111.574 164.513 111.49C162.856 111.406 161.205 111.74 159.712 112.461C159.712 112.461 158.632 109.995 154.516 111.471C150.4 112.947 148.36 116.565 151 120.705C151 120.705 148.666 122.199 148.666 124.605C148.666 127.011 151.966 130.515 149.44 130.929C149.44 130.929 152.44 131.313 151.126 127.839C151.126 127.839 153.766 129.039 152.446 131.997C151.126 134.955 153.766 135.321 153.766 135.321C153.766 135.321 151.366 133.377 153.766 131.997C156.166 130.617 158.956 129.291 159.01 125.565C159.01 124.365 162.184 126.459 163.726 126.093C165.918 125.481 167.982 124.481 169.822 123.141Z" fill="#333333"/>
<path d="M172.222 124.923C178.726 126.861 179.782 130.971 178.264 137.817C176.362 146.379 172.726 151.779 165.124 147.561C154.822 141.837 161.422 121.701 172.222 124.923Z" fill="#FFB573"/>
<path d="M174.19 136.203C174.421 137.33 174.786 138.426 175.276 139.467C175.005 139.677 174.681 139.809 174.341 139.848C174 139.888 173.655 139.832 173.344 139.689L174.19 136.203Z" fill="#D58745"/>
<path d="M170.362 134.481C170.218 135.021 169.804 135.375 169.45 135.279C169.096 135.183 168.916 134.679 169.066 134.127C169.216 133.575 169.618 133.233 169.978 133.329C170.338 133.425 170.512 133.941 170.362 134.481Z" fill="#333333"/>
<path d="M169.822 133.317L171.118 133.173C171.118 133.173 170.266 134.001 169.822 133.317Z" fill="#333333"/>
<path d="M177.088 136.197C176.938 136.731 176.53 137.091 176.17 136.995C175.81 136.899 175.642 136.395 175.786 135.843C175.93 135.291 176.344 134.943 176.704 135.045C177.064 135.147 177.232 135.657 177.088 136.197Z" fill="#333333"/>
<path d="M176.542 135.027L177.838 134.889C177.838 134.889 177.022 135.717 176.542 135.027Z" fill="#333333"/>
<path d="M168.52 130.419C168.473 130.419 168.427 130.408 168.387 130.386C168.346 130.364 168.311 130.332 168.286 130.293C168.264 130.262 168.249 130.227 168.24 130.19C168.232 130.152 168.231 130.114 168.238 130.077C168.245 130.039 168.259 130.004 168.279 129.972C168.3 129.94 168.327 129.912 168.358 129.891C169.816 128.871 171.67 129.651 171.748 129.687C171.783 129.701 171.815 129.722 171.842 129.749C171.868 129.776 171.889 129.809 171.903 129.844C171.917 129.879 171.924 129.917 171.923 129.955C171.922 129.993 171.913 130.03 171.898 130.065C171.883 130.1 171.862 130.132 171.835 130.159C171.808 130.185 171.776 130.206 171.741 130.22C171.705 130.234 171.668 130.241 171.63 130.24C171.592 130.239 171.554 130.231 171.52 130.215C171.52 130.215 169.882 129.531 168.688 130.365C168.639 130.4 168.58 130.418 168.52 130.419Z" fill="#333333"/>
<path d="M178.864 132.729C178.82 132.729 178.777 132.719 178.737 132.7C178.698 132.682 178.663 132.655 178.636 132.621C178.392 132.262 178.071 131.963 177.696 131.745C177.321 131.527 176.902 131.395 176.47 131.361C176.394 131.361 176.321 131.332 176.266 131.279C176.211 131.226 176.179 131.155 176.176 131.079C176.174 131.003 176.202 130.93 176.254 130.875C176.305 130.82 176.376 130.788 176.452 130.785C176.975 130.813 177.485 130.961 177.943 131.217C178.4 131.473 178.793 131.83 179.092 132.261C179.138 132.322 179.16 132.398 179.151 132.475C179.142 132.551 179.103 132.621 179.044 132.669C178.992 132.709 178.929 132.73 178.864 132.729Z" fill="#333333"/>
<path d="M161.86 133.773C161.86 133.773 166.498 129.333 167.26 125.067C167.26 125.067 181.726 123.639 178.462 136.917C178.462 136.917 183.19 125.673 172.078 122.079C160.966 118.485 156.136 134.871 160.462 141.465C160.468 141.465 158.986 136.557 161.86 133.773Z" fill="#333333"/>
<path d="M173.338 141.903C172.717 142.68 172.151 143.5 171.646 144.357C171.484 144.297 171.322 144.237 171.16 144.165C168.946 143.283 168.214 142.143 168.07 141.165C168.007 140.678 168.067 140.183 168.244 139.725C168.336 139.465 168.463 139.219 168.622 138.993C169.516 140.157 171.514 141.141 172.606 141.621C173.044 141.795 173.338 141.903 173.338 141.903Z" fill="#333333"/>
<path d="M172.594 141.591L172.072 142.305C169.996 141.465 168.64 140.595 168.244 139.707C168.337 139.453 168.465 139.213 168.622 138.993C169.504 140.127 171.502 141.111 172.594 141.591Z" fill="white"/>
<path d="M171.16 144.165C168.946 143.283 168.214 142.143 168.07 141.165C168.906 141.516 169.672 142.013 170.332 142.635C170.758 143.048 171.047 143.582 171.16 144.165Z" fill="#FF3333"/>
<path d="M158.896 136.803C158.938 137.595 163.276 119.253 177.19 125.199L174.88 121.947C170.122 119.289 158.11 120.849 158.896 136.803Z" fill="#25745A"/>
<path d="M162.514 135.459C162.669 134.688 162.516 133.888 162.087 133.229C161.659 132.571 160.989 132.107 160.222 131.937C158.14 131.559 155.944 135.411 160.666 137.901C161.338 138.255 161.956 137.673 162.514 135.459Z" fill="#FFB573"/>
<path opacity="0.2" d="M139.822 181.791C140.851 181.485 141.818 181 142.678 180.357C141.76 180.513 140.878 180.615 139.978 180.687C140.043 180.87 140.063 181.066 140.036 181.258C140.008 181.45 139.935 181.633 139.822 181.791Z" fill="black"/>
<path opacity="0.2" d="M125.422 178.179C121.15 176.298 117.323 173.538 114.19 170.079L112.354 172.311C112.354 172.311 115.648 177.165 123.484 180.315C124.313 179.793 124.983 179.055 125.422 178.179Z" fill="black"/>
<path opacity="0.2" d="M139.12 180.747C134.993 180.969 130.866 180.321 127.006 178.845C126.384 179.599 125.668 180.271 124.876 180.843C125.644 181.113 126.448 181.365 127.276 181.593C131.884 182.835 135.388 182.763 137.884 182.289C138.199 182.15 138.476 181.938 138.691 181.669C138.906 181.401 139.053 181.084 139.12 180.747Z" fill="black"/>
<path d="M162.1 192.633L158.56 194.037L152.284 176.481L150.892 177.309L157.258 194.553L152.956 196.263C152.956 196.263 155.698 203.277 162.1 205.743C162.1 205.743 165.712 201.435 162.1 192.633Z" fill="#333333"/>
<path opacity="0.2" d="M162.1 192.633L158.56 194.037L152.284 176.481L150.892 177.309L157.258 194.553L152.956 196.263C152.956 196.263 155.698 203.277 162.1 205.743C162.1 205.743 165.712 201.435 162.1 192.633Z" fill="white"/>
<path d="M150.826 176.553L151.96 176.115C152.034 176.086 152.114 176.073 152.194 176.076C152.274 176.078 152.353 176.097 152.426 176.13C152.498 176.164 152.564 176.212 152.617 176.271C152.671 176.33 152.713 176.399 152.74 176.475L156.736 187.935C156.762 188.01 156.773 188.09 156.768 188.17C156.762 188.25 156.741 188.328 156.705 188.4C156.67 188.471 156.62 188.535 156.559 188.587C156.498 188.639 156.428 188.678 156.352 188.703L155.47 188.985C155.322 189.033 155.162 189.023 155.022 188.956C154.882 188.889 154.774 188.77 154.72 188.625L150.478 177.327C150.45 177.253 150.437 177.175 150.439 177.096C150.441 177.017 150.459 176.94 150.491 176.868C150.524 176.796 150.57 176.731 150.627 176.677C150.685 176.623 150.752 176.581 150.826 176.553Z" fill="#25745A"/>
<path opacity="0.2" d="M150.826 176.553L151.96 176.115C152.034 176.086 152.114 176.073 152.194 176.076C152.274 176.078 152.353 176.097 152.426 176.13C152.498 176.164 152.564 176.212 152.617 176.271C152.671 176.33 152.713 176.399 152.74 176.475L156.736 187.935C156.762 188.01 156.773 188.09 156.768 188.17C156.762 188.25 156.741 188.328 156.705 188.4C156.67 188.471 156.62 188.535 156.559 188.587C156.498 188.639 156.428 188.678 156.352 188.703L155.47 188.985C155.322 189.033 155.162 189.023 155.022 188.956C154.882 188.889 154.774 188.77 154.72 188.625L150.478 177.327C150.45 177.253 150.437 177.175 150.439 177.096C150.441 177.017 150.459 176.94 150.491 176.868C150.524 176.796 150.57 176.731 150.627 176.677C150.685 176.623 150.752 176.581 150.826 176.553Z" fill="black"/>
<path d="M197.53 187.065C196.298 186.614 195.001 186.367 193.69 186.333L191.218 184.077L188.944 191.049L194.008 192.213L198.526 194.853L204.262 195.027L204.424 188.427L197.53 187.065Z" fill="#25745A"/>
<path opacity="0.6" d="M197.53 187.065C196.298 186.614 195.001 186.367 193.69 186.333L191.218 184.077L188.944 191.049L194.008 192.213L198.526 194.853L204.262 195.027L204.424 188.427L197.53 187.065Z" fill="white"/>
<path d="M208.318 182.697C208.081 182.815 207.82 182.877 207.556 182.877C207.291 182.877 207.03 182.815 206.794 182.697C206.272 182.487 205.594 182.799 205.378 182.097C205.319 181.927 205.314 181.743 205.363 181.57C205.413 181.397 205.514 181.244 205.654 181.131L205.744 181.059C205.744 181.059 205.744 180.681 206.272 180.609C206.8 180.537 207.04 180.855 207.412 181.059C207.784 181.263 208.57 181.155 209.044 181.917C209.109 182.015 209.16 182.122 209.194 182.235C209.272 182.613 208.726 182.469 208.318 182.697Z" fill="#25745A"/>
<path opacity="0.2" d="M209.194 182.253C208.037 181.961 206.895 181.611 205.774 181.203L205.654 181.149L205.744 181.077C205.744 181.077 205.744 180.699 206.272 180.627C206.8 180.555 207.04 180.873 207.412 181.077C207.784 181.281 208.57 181.173 209.044 181.935C209.109 182.033 209.16 182.14 209.194 182.253Z" fill="black"/>
<path d="M209.584 178.791C208.992 178.943 208.414 179.144 207.856 179.391C207.208 179.769 206.812 180.561 206.128 180.423C205.444 180.285 204.484 180.063 205.168 178.791C205.168 178.791 205.168 178.761 205.168 178.743C205.168 178.725 204.376 178.941 203.968 178.527C203.87 178.402 203.802 178.258 203.766 178.104C203.731 177.95 203.73 177.79 203.763 177.635C203.796 177.481 203.863 177.336 203.958 177.21C204.054 177.084 204.176 176.98 204.316 176.907C204.964 176.601 204.994 177.015 205.618 176.631C206.242 176.247 206.65 176.565 207.514 176.631C208.13 176.716 208.751 176.764 209.374 176.775C209.955 176.839 210.496 177.104 210.904 177.525C210.938 177.552 210.969 177.584 210.994 177.621C211.222 177.873 209.962 178.593 209.584 178.791Z" fill="#25745A"/>
<path opacity="0.2" d="M210.94 177.525C208.931 177.344 206.916 177.786 205.168 178.791C205.168 178.791 205.168 178.761 205.168 178.743C205.168 178.725 204.376 178.941 203.968 178.527C203.87 178.402 203.802 178.258 203.766 178.104C203.731 177.95 203.73 177.79 203.763 177.635C203.796 177.481 203.863 177.336 203.958 177.21C204.054 177.084 204.176 176.98 204.316 176.907C204.964 176.601 204.994 177.015 205.618 176.631C206.242 176.247 206.65 176.565 207.514 176.631C208.13 176.716 208.751 176.764 209.374 176.775C209.968 176.831 210.523 177.097 210.94 177.525Z" fill="white"/>
<path d="M205.12 165.345C204.814 166.089 205.99 167.145 203.662 168.345C202.426 168.975 201.862 167.145 201.862 167.145H201.712C200.59 167.283 200.02 167.061 200.02 165.861C200.02 164.661 200.278 163.653 201.364 163.071C202.106 162.629 202.796 162.106 203.422 161.511C204.118 161.104 204.922 160.922 205.726 160.989C205.821 160.996 205.916 161.015 206.008 161.043C206.428 161.199 205.738 162.243 206.008 163.071C206.278 163.899 205.426 164.595 205.12 165.345Z" fill="#25745A"/>
<path opacity="0.2" d="M205.12 165.345C204.814 166.089 205.99 167.145 203.662 168.345C202.426 168.975 201.862 167.145 201.862 167.145H201.712C202.24 165.723 203.638 162.393 205.726 160.989C205.821 160.996 205.916 161.014 206.008 161.043C206.428 161.199 205.738 162.243 206.008 163.071C206.278 163.899 205.426 164.595 205.12 165.345Z" fill="black"/>
<path d="M209.878 169.521C209.308 170.067 209.278 170.625 208.378 171.069C207.478 171.513 206.518 172.599 205.48 172.653C204.442 172.707 203.602 172.497 203.68 171.825C203.758 171.153 204.592 170.493 204.802 170.319L204.85 170.283C203.692 170.223 203.65 170.241 203.65 169.293C203.65 168.345 205.528 167.739 206.116 168.003C206.704 168.267 207.838 167.175 208.306 167.355C208.656 167.488 209.02 167.578 209.392 167.625C209.649 167.668 209.91 167.69 210.172 167.691C210.856 167.691 210.448 168.993 209.878 169.521Z" fill="#25745A"/>
<path opacity="0.2" d="M209.422 167.625C208.192 168.973 206.58 169.913 204.802 170.319L204.85 170.283C203.692 170.223 203.65 170.241 203.65 169.293C203.65 168.345 205.528 167.739 206.116 168.003C206.704 168.267 207.838 167.175 208.306 167.355C208.665 167.49 209.04 167.581 209.422 167.625Z" fill="black"/>
<path d="M198.526 168.777C198.064 169.443 196.588 169.377 195.598 168.507L195.376 168.285C195.376 168.285 195.46 170.895 194.458 170.793C193.456 170.691 192.412 169.863 191.428 168.777C190.444 167.691 191.014 167.073 190.756 165.891C190.498 164.709 189.928 164.847 189.874 163.101C189.775 161.674 189.979 160.243 190.474 158.901C190.535 158.683 190.639 158.479 190.78 158.301C191.104 157.935 191.41 158.499 192.25 158.529C193.336 158.565 194.368 159.159 195.61 160.401C196.852 161.643 197.362 164.229 198.526 164.847C199.69 165.465 199.018 168.051 198.526 168.777Z" fill="#25745A"/>
<path opacity="0.2" d="M198.526 168.777C198.064 169.443 196.588 169.377 195.598 168.507C194.488 164.415 191.722 159.789 190.798 158.307C191.122 157.941 191.428 158.505 192.268 158.535C193.354 158.571 194.386 159.165 195.628 160.407C196.87 161.649 197.38 164.235 198.544 164.853C199.708 165.471 199.018 168.051 198.526 168.777Z" fill="white"/>
<path d="M193.852 174.471C193.282 175.071 192.196 174.615 191.422 174.471C190.648 174.327 187.648 174.147 186.928 173.637C186.208 173.127 184.486 172.347 184.432 171.747C184.427 171.673 184.45 171.6 184.498 171.543C184.96 170.943 187.444 169.653 188.77 169.551C190.096 169.449 190.648 169.551 192.46 170.481C194.044 171.297 193.66 172.329 193.192 172.383C193.127 172.403 193.058 172.403 192.994 172.383C192.994 172.383 194.422 173.895 193.852 174.471Z" fill="#25745A"/>
<path opacity="0.2" d="M193.222 172.383C188.23 170.463 185.56 171.183 184.462 171.747C184.457 171.673 184.48 171.6 184.528 171.543C184.99 170.943 187.474 169.653 188.8 169.551C190.126 169.449 190.678 169.551 192.49 170.481C194.044 171.297 193.672 172.329 193.222 172.383Z" fill="black"/>
<path d="M196.882 173.727C196.548 171.882 196.083 170.063 195.49 168.285C194.906 166.511 194.202 164.779 193.384 163.101C194.119 164.812 194.741 166.57 195.244 168.363C195.746 170.148 196.121 171.967 196.366 173.805C196.366 173.931 196.396 174.051 196.414 174.177C195.964 173.865 195.508 173.577 195.04 173.289C194.395 172.91 193.733 172.563 193.054 172.251C191.706 171.606 190.256 171.2 188.77 171.051C190.24 171.268 191.661 171.739 192.97 172.443C194.223 173.098 195.409 173.876 196.51 174.765C196.677 176.277 196.763 177.797 196.768 179.319C196.784 181.152 196.641 182.983 196.342 184.791L197.374 184.977C197.599 183.094 197.657 181.194 197.548 179.301C197.457 177.429 197.235 175.567 196.882 173.727Z" fill="#333333"/>
<path d="M204.022 179.661C204.641 179.228 205.3 178.854 205.99 178.545C206.47 178.299 206.986 178.143 207.49 177.945C207.994 177.747 208.534 177.645 209.056 177.495C208.522 177.603 207.982 177.681 207.454 177.819C205.85 178.221 204.325 178.888 202.942 179.793C202.014 180.411 201.168 181.143 200.422 181.971C199.913 182.529 199.455 183.131 199.054 183.771C199.004 182.424 199.032 181.076 199.138 179.733C199.277 177.884 199.533 176.047 199.906 174.231C200.092 173.385 200.29 172.539 200.506 171.699C201.866 171.351 203.208 170.951 204.532 170.499C205.216 170.259 205.888 169.995 206.548 169.701C207.216 169.421 207.837 169.041 208.39 168.573C207.818 169.011 207.183 169.359 206.506 169.605C205.84 169.869 205.156 170.097 204.472 170.307C203.206 170.679 201.916 170.997 200.626 171.273C200.848 170.463 201.082 169.653 201.364 168.873C201.634 167.979 201.994 167.121 202.318 166.245C202.642 165.369 203.05 164.529 203.416 163.671C203.014 164.511 202.576 165.339 202.216 166.197C201.856 167.055 201.454 167.901 201.142 168.783C200.462 170.533 199.887 172.322 199.42 174.141C198.956 175.965 198.609 177.817 198.382 179.685C198.132 181.57 198.053 183.474 198.148 185.373L199.186 185.253C199.186 185.187 199.186 185.115 199.186 185.049L199.516 185.169C199.902 184.208 200.423 183.307 201.064 182.493C201.71 181.65 202.46 180.892 203.296 180.237L203.758 179.901C204.395 180.419 205.089 180.862 205.828 181.221C206.622 181.623 207.485 181.871 208.372 181.953C207.504 181.81 206.672 181.504 205.918 181.053C205.237 180.66 204.601 180.193 204.022 179.661Z" fill="#333333"/>
<g opacity="0.2">
<path d="M196.882 173.727C196.548 171.882 196.083 170.063 195.49 168.285C194.906 166.511 194.202 164.779 193.384 163.101C194.119 164.812 194.741 166.57 195.244 168.363C195.746 170.148 196.121 171.967 196.366 173.805C196.366 173.931 196.396 174.051 196.414 174.177C195.964 173.865 195.508 173.577 195.04 173.289C194.395 172.91 193.733 172.563 193.054 172.251C191.706 171.606 190.256 171.2 188.77 171.051C190.24 171.268 191.661 171.739 192.97 172.443C194.223 173.098 195.409 173.876 196.51 174.765C196.677 176.277 196.763 177.797 196.768 179.319C196.784 181.152 196.641 182.983 196.342 184.791L197.374 184.977C197.599 183.094 197.657 181.194 197.548 179.301C197.457 177.429 197.235 175.567 196.882 173.727Z" fill="white"/>
<path d="M204.022 179.661C204.641 179.228 205.3 178.854 205.99 178.545C206.47 178.299 206.986 178.143 207.49 177.945C207.994 177.747 208.534 177.645 209.056 177.495C208.522 177.603 207.982 177.681 207.454 177.819C205.85 178.221 204.325 178.888 202.942 179.793C202.014 180.411 201.168 181.143 200.422 181.971C199.913 182.529 199.455 183.131 199.054 183.771C199.004 182.424 199.032 181.076 199.138 179.733C199.277 177.884 199.533 176.047 199.906 174.231C200.092 173.385 200.29 172.539 200.506 171.699C201.866 171.351 203.208 170.951 204.532 170.499C205.216 170.259 205.888 169.995 206.548 169.701C207.216 169.421 207.837 169.041 208.39 168.573C207.818 169.011 207.183 169.359 206.506 169.605C205.84 169.869 205.156 170.097 204.472 170.307C203.206 170.679 201.916 170.997 200.626 171.273C200.848 170.463 201.082 169.653 201.364 168.873C201.634 167.979 201.994 167.121 202.318 166.245C202.642 165.369 203.05 164.529 203.416 163.671C203.014 164.511 202.576 165.339 202.216 166.197C201.856 167.055 201.454 167.901 201.142 168.783C200.462 170.533 199.887 172.322 199.42 174.141C198.956 175.965 198.609 177.817 198.382 179.685C198.132 181.57 198.053 183.474 198.148 185.373L199.186 185.253C199.186 185.187 199.186 185.115 199.186 185.049L199.516 185.169C199.902 184.208 200.423 183.307 201.064 182.493C201.71 181.65 202.46 180.892 203.296 180.237L203.758 179.901C204.395 180.419 205.089 180.862 205.828 181.221C206.622 181.623 207.485 181.871 208.372 181.953C207.504 181.81 206.672 181.504 205.918 181.053C205.237 180.66 204.601 180.193 204.022 179.661Z" fill="white"/>
</g>
<path d="M191.722 188.145C191.89 186.861 193.594 185.745 193.492 184.899C193.494 184.697 193.552 184.499 193.657 184.327C193.763 184.155 193.913 184.015 194.092 183.921C194.302 183.777 194.938 183.321 195.166 183.369C195.264 183.406 195.367 183.426 195.472 183.429C195.7 183.393 195.796 183.087 196.018 183.021L196.168 182.991C196.233 182.975 196.293 182.941 196.341 182.894C196.388 182.846 196.422 182.786 196.438 182.721C196.438 182.631 196.438 182.535 196.504 182.463C196.55 182.419 196.602 182.382 196.66 182.355C196.766 182.267 196.854 182.159 196.918 182.037C196.984 181.941 197.29 181.701 197.434 181.737C197.475 181.749 197.51 181.774 197.536 181.809C197.711 181.966 197.829 182.177 197.872 182.409C197.872 182.535 197.872 182.679 197.926 182.781C197.98 182.883 198.34 182.877 198.448 183.045C198.486 183.131 198.514 183.222 198.532 183.315C198.622 183.519 198.922 183.579 198.97 183.801C199.036 184.119 199.03 184.149 199.366 184.011C199.564 183.927 199.732 183.783 199.93 183.693C200.023 183.64 200.127 183.609 200.233 183.601C200.34 183.593 200.447 183.608 200.547 183.646C200.647 183.684 200.738 183.743 200.813 183.819C200.887 183.896 200.944 183.988 200.98 184.089C201.58 185.121 201.148 185.595 201.766 186.339C202.384 187.083 202.918 187.467 202.912 188.139C202.906 188.811 202.282 191.409 201.97 191.613C201.658 191.817 201.25 191.553 200.218 192.213C199.186 192.873 199.738 193.485 198.532 193.485C197.326 193.485 197.02 193.365 196.732 193.485C196.444 193.605 196.528 194.751 195.286 193.485C194.044 192.219 191.422 190.557 191.722 188.145Z" fill="#333333"/>
<path d="M201.208 190.923C201.301 191.185 201.336 191.464 201.31 191.74C201.284 192.017 201.198 192.285 201.058 192.525C200.95 192.753 200.8 192.963 200.698 193.125C200.596 193.307 200.566 193.521 200.614 193.725C200.629 193.835 200.662 193.942 200.71 194.043C200.776 194.155 200.825 194.276 200.854 194.403C200.85 194.518 200.864 194.634 200.896 194.745C200.896 194.793 200.944 194.847 200.968 194.919C200.977 194.958 200.977 195 200.968 195.039C200.959 195.079 200.94 195.116 200.914 195.147C200.818 195.261 200.734 195.303 200.686 195.411C200.633 195.516 200.593 195.627 200.566 195.741C200.506 195.973 200.468 196.21 200.452 196.449C200.444 196.208 200.46 195.967 200.5 195.729C200.518 195.606 200.55 195.485 200.596 195.369C200.632 195.249 200.758 195.147 200.806 195.075C200.854 195.003 200.806 194.931 200.746 194.805C200.695 194.689 200.667 194.565 200.662 194.439C200.622 194.336 200.57 194.24 200.506 194.151C200.441 194.036 200.393 193.913 200.362 193.785C200.287 193.522 200.308 193.241 200.422 192.993C200.53 192.747 200.644 192.549 200.728 192.339C200.812 192.139 200.86 191.926 200.872 191.709C200.886 191.515 200.85 191.321 200.77 191.145L201.208 190.923Z" fill="#333333"/>
<path d="M198.238 192.255C198.152 192.708 198.204 193.176 198.388 193.599C198.479 193.709 198.554 193.833 198.61 193.965C198.643 194.132 198.611 194.306 198.52 194.451C198.465 194.54 198.43 194.641 198.418 194.745C198.421 194.86 198.437 194.975 198.466 195.087C198.531 195.59 198.571 196.097 198.586 196.605C198.586 196.851 198.706 197.085 198.742 197.343C198.771 197.468 198.768 197.598 198.734 197.722C198.699 197.846 198.634 197.959 198.544 198.051C198.624 197.956 198.679 197.842 198.703 197.721C198.727 197.599 198.72 197.473 198.682 197.355C198.622 197.115 198.508 196.881 198.454 196.629C198.401 196.131 198.321 195.636 198.214 195.147C198.168 195.017 198.138 194.882 198.124 194.745C198.123 194.597 198.158 194.45 198.226 194.319C198.328 194.061 198.28 194.091 198.064 193.821C197.787 193.339 197.665 192.784 197.716 192.231L198.238 192.255Z" fill="#333333"/>
<path d="M195.874 191.709L195.718 192.909C195.696 192.973 195.696 193.043 195.718 193.107C195.748 193.185 195.808 193.263 195.856 193.377C195.892 193.443 195.912 193.517 195.912 193.593C195.912 193.668 195.892 193.743 195.856 193.809C195.784 193.905 195.692 193.985 195.586 194.043C195.513 194.072 195.455 194.129 195.424 194.201C195.392 194.272 195.39 194.353 195.418 194.427C195.497 194.621 195.559 194.822 195.604 195.027C195.589 195.226 195.589 195.427 195.604 195.627C195.624 195.723 195.665 195.812 195.726 195.889C195.786 195.966 195.863 196.028 195.952 196.071C195.855 196.036 195.767 195.979 195.696 195.905C195.624 195.832 195.57 195.743 195.538 195.645C195.508 195.446 195.492 195.246 195.49 195.045C195.423 194.861 195.343 194.683 195.25 194.511C195.213 194.394 195.213 194.268 195.25 194.151C195.291 194.032 195.369 193.929 195.472 193.857C195.538 193.81 195.597 193.754 195.646 193.689C195.653 193.664 195.654 193.638 195.649 193.613C195.643 193.588 195.632 193.564 195.616 193.545L195.454 193.305C195.382 193.19 195.347 193.056 195.352 192.921V191.721L195.874 191.709Z" fill="#333333"/>
<path d="M193.912 191.193C193.876 191.193 193.774 191.193 193.696 191.331C193.615 191.465 193.574 191.618 193.576 191.775C193.567 191.944 193.591 192.113 193.648 192.273C193.735 192.462 193.788 192.665 193.804 192.873V192.993H193.69C193.607 193.004 193.527 193.032 193.456 193.076C193.384 193.12 193.323 193.178 193.276 193.247C193.228 193.316 193.196 193.394 193.18 193.476C193.165 193.559 193.167 193.643 193.186 193.725C193.276 193.903 193.354 194.088 193.42 194.277C193.48 194.471 193.51 194.673 193.51 194.877C193.487 194.681 193.437 194.489 193.36 194.307C193.282 194.127 193.168 193.965 193.066 193.779C193.024 193.671 193.007 193.555 193.016 193.44C193.024 193.325 193.059 193.214 193.116 193.113C193.174 193.013 193.253 192.927 193.348 192.862C193.443 192.796 193.552 192.753 193.666 192.735L193.546 192.867C193.506 192.699 193.439 192.539 193.348 192.393C193.257 192.204 193.202 192.001 193.186 191.793C193.166 191.565 193.205 191.335 193.3 191.127C193.356 191.008 193.438 190.903 193.54 190.821C193.601 190.769 193.672 190.731 193.748 190.707C193.824 190.683 193.904 190.675 193.984 190.683L193.912 191.193Z" fill="#333333"/>
<path d="M192.31 189.459C192.358 189.459 192.31 189.423 192.214 189.459C192.134 189.533 192.083 189.633 192.07 189.741C192.038 189.899 191.99 190.054 191.926 190.203C191.896 190.252 191.88 190.308 191.88 190.365C191.88 190.422 191.896 190.478 191.926 190.527C191.955 190.591 191.991 190.651 192.034 190.707C192.07 190.744 192.099 190.788 192.117 190.836C192.136 190.885 192.144 190.937 192.142 190.989C192.13 191.037 192.108 191.083 192.077 191.122C192.045 191.162 192.006 191.194 191.962 191.217C191.907 191.262 191.855 191.31 191.806 191.361C191.757 191.413 191.72 191.474 191.696 191.542C191.673 191.609 191.663 191.68 191.668 191.751C191.674 191.824 191.704 191.894 191.752 191.95C191.801 192.006 191.866 192.046 191.938 192.063C191.859 192.052 191.784 192.018 191.725 191.965C191.666 191.911 191.625 191.841 191.608 191.763C191.589 191.682 191.587 191.598 191.603 191.516C191.618 191.435 191.651 191.357 191.698 191.289C191.776 191.151 191.962 191.019 191.95 190.965C191.938 190.911 191.782 190.797 191.698 190.659C191.642 190.578 191.605 190.486 191.59 190.39C191.576 190.293 191.584 190.194 191.614 190.101C191.651 189.959 191.675 189.815 191.686 189.669C191.694 189.468 191.77 189.275 191.902 189.123C191.986 189.036 192.091 188.974 192.208 188.943C192.281 188.924 192.358 188.921 192.433 188.936C192.508 188.95 192.578 188.981 192.64 189.027L192.31 189.459Z" fill="#333333"/>
<path d="M201.958 189.675C201.958 189.637 201.966 189.599 201.983 189.565C202 189.531 202.024 189.5 202.054 189.477C202.082 189.452 202.116 189.433 202.152 189.422C202.188 189.411 202.226 189.407 202.264 189.411C202.322 189.413 202.378 189.432 202.426 189.465C202.489 189.508 202.539 189.569 202.57 189.639L202.648 189.813C202.702 189.933 202.756 190.047 202.81 190.191C202.874 190.347 202.886 190.519 202.846 190.683C202.795 190.822 202.715 190.949 202.612 191.055C202.532 191.138 202.475 191.24 202.447 191.352C202.418 191.463 202.419 191.58 202.45 191.691C202.515 191.816 202.534 191.961 202.504 192.099C202.456 192.224 202.387 192.34 202.3 192.441C202.364 192.331 202.411 192.211 202.438 192.087C202.445 191.963 202.406 191.842 202.33 191.745C202.269 191.612 202.243 191.465 202.255 191.319C202.267 191.173 202.315 191.033 202.396 190.911C202.546 190.665 202.57 190.539 202.45 190.347C202.396 190.257 202.318 190.143 202.246 190.035L202.138 189.873C202.102 189.819 202.138 189.903 202.138 189.873C202.161 189.88 202.186 189.88 202.21 189.873C202.239 189.876 202.268 189.872 202.296 189.863C202.324 189.854 202.35 189.839 202.372 189.819C202.395 189.8 202.414 189.776 202.427 189.749C202.441 189.722 202.448 189.693 202.45 189.663L201.958 189.675Z" fill="#333333"/>
<path opacity="0.2" d="M141.052 153.267C141.052 153.267 140.524 164.811 123.568 162.867C127.725 158.969 131.65 154.83 135.322 150.471C137.474 150.79 139.475 151.767 141.052 153.267Z" fill="black"/>
<path d="M141.298 151.977C140.032 153.255 138.67 154.611 137.404 155.967C136.138 157.323 134.872 158.697 133.666 160.071C132.507 161.399 131.417 162.787 130.402 164.229C129.989 164.836 129.62 165.471 129.298 166.131C129.154 166.407 129.1 166.611 129.058 166.695C129.006 166.479 128.936 166.268 128.848 166.065C128.848 166.065 128.8 165.999 128.812 166.011V166.047L128.848 166.125L128.92 166.275L129.142 166.629L129.43 167.019L129.766 167.421C130.306 168.012 130.889 168.561 131.512 169.065C132.897 170.187 134.357 171.215 135.88 172.143C137.434 173.127 139.066 174.051 140.722 174.957C142.378 175.863 144.082 176.757 145.738 177.579L144.442 181.305C140.53 180.373 136.714 179.079 133.042 177.441C132.118 177.021 131.196 176.565 130.276 176.073C129.334 175.582 128.421 175.039 127.54 174.447C126.592 173.818 125.691 173.12 124.846 172.359L124.186 171.717L123.538 170.991C123.328 170.727 123.118 170.451 122.938 170.169L122.644 169.701L122.494 169.461L122.422 169.341C122.383 169.269 122.349 169.195 122.32 169.119C122.171 168.79 122.044 168.451 121.942 168.105C121.884 167.803 121.844 167.499 121.822 167.193C121.786 166.924 121.776 166.653 121.792 166.383C121.796 166.136 121.814 165.89 121.846 165.645C121.948 164.886 122.135 164.141 122.404 163.425C122.827 162.301 123.353 161.218 123.976 160.191C125.065 158.39 126.28 156.667 127.612 155.037C128.884 153.441 130.21 151.929 131.572 150.465C132.934 149.001 134.308 147.603 135.832 146.199L141.298 151.977Z" fill="#FFB573"/>
<path d="M142.822 141.795C137.02 140.277 127.048 151.131 127.048 151.131L136.576 158.331C136.576 158.331 151.132 143.967 142.822 141.795Z" fill="#333333"/>
<path d="M152.614 178.389L147.466 177.459L142.858 175.059L140.056 181.839L143.404 181.731C144.423 182.557 145.57 183.212 146.8 183.669L152.938 187.095L157.09 181.995L152.614 178.389Z" fill="#25745A"/>
<path opacity="0.6" d="M152.614 178.389L147.466 177.459L142.858 175.059L140.056 181.839L143.404 181.731C144.423 182.557 145.57 183.212 146.8 183.669L152.938 187.095L157.09 181.995L152.614 178.389Z" fill="white"/>
<path d="M235.59 216V224.202H234.768C234.768 224.202 234.276 219.714 232.308 218.124C230.34 216.534 235.59 216 235.59 216Z" fill="#25745A"/>
<path opacity="0.2" d="M235.59 216V224.202H234.768C234.768 224.202 234.276 219.714 232.308 218.124C230.34 216.534 235.59 216 235.59 216Z" fill="black"/>
<path d="M221.4 245.046C221.79 239.898 224.514 233.094 226.236 229.002C226.854 227.536 227.172 225.961 227.172 224.37H231.462V224.4C231.463 225.977 231.775 227.539 232.38 228.996C234.102 233.112 236.832 239.964 237.228 245.028C237.243 245.202 237.222 245.377 237.165 245.542C237.109 245.707 237.019 245.859 236.901 245.987C236.784 246.116 236.64 246.219 236.481 246.289C236.321 246.359 236.148 246.396 235.974 246.396H222.63C222.46 246.392 222.292 246.353 222.137 246.282C221.981 246.211 221.842 246.109 221.727 245.983C221.613 245.857 221.524 245.709 221.468 245.548C221.412 245.387 221.389 245.216 221.4 245.046Z" fill="#25745A"/>
<path opacity="0.7" d="M221.4 245.046C221.79 239.898 224.514 233.094 226.236 229.002C226.854 227.536 227.172 225.961 227.172 224.37H231.462V224.4C231.463 225.977 231.775 227.539 232.38 228.996C234.102 233.112 236.832 239.964 237.228 245.028C237.243 245.202 237.222 245.377 237.165 245.542C237.109 245.707 237.019 245.859 236.901 245.987C236.784 246.116 236.64 246.219 236.481 246.289C236.321 246.359 236.148 246.396 235.974 246.396H222.63C222.46 246.392 222.292 246.353 222.137 246.282C221.981 246.211 221.842 246.109 221.727 245.983C221.613 245.857 221.524 245.709 221.468 245.548C221.412 245.387 221.389 245.216 221.4 245.046Z" fill="white"/>
<path d="M226.98 224.772H231.582V220.17H226.98V224.772Z" fill="#25745A"/>
<path d="M227.76 220.728L225.078 216.948V214.428H237.834V216C237.834 216 231.594 217.848 230.934 220.752H227.76" fill="#25745A"/>
<path opacity="0.2" d="M226.98 224.772H231.582V220.17H226.98V224.772Z" fill="black"/>
<path d="M225.858 219.858H186.438L191.04 251.214H221.262L225.858 219.858Z" fill="#333333"/>
<path opacity="0.7" d="M225.864 219.858L223.38 236.766L223.338 237.066L222.78 240.846L222.696 241.434L222.402 243.45L222.228 244.632L222.042 245.898L221.82 247.398L221.7 248.184L221.484 249.684L221.256 251.214H191.04L190.812 249.684L190.596 248.184L190.482 247.398L190.26 245.898L190.074 244.632L189.9 243.45L189.606 241.434L189.516 240.846L188.964 237.066L188.916 236.766L186.438 219.858H225.864Z" fill="white"/>
<path d="M226.896 219.09H185.4V222.942H226.896V219.09Z" fill="#333333"/>
<path opacity="0.5" d="M226.896 219.09H185.4V222.942H226.896V219.09Z" fill="white"/>
<g opacity="0.2">
<path d="M221.7 248.184L221.484 249.684H190.812L190.596 248.184H221.7Z" fill="black"/>
<path d="M222.042 245.898L221.82 247.398H190.482L190.26 245.898H222.042Z" fill="black"/>
<path d="M222.402 243.45L222.228 244.632H190.074L189.9 243.45H222.402Z" fill="black"/>
<path d="M222.78 240.846L222.696 241.434H189.606L189.516 240.846H222.78Z" fill="black"/>
<path d="M223.38 236.766L223.338 237.066H188.964L188.916 236.766H223.38Z" fill="black"/>
</g>
</svg>
