<svg width="42" height="41" viewBox="0 0 42 41" fill="none" xmlns="http://www.w3.org/2000/svg">
<path d="M36.625 14.2504C36.625 13.7869 36.7624 13.3337 37.02 12.9483C37.2775 12.5629 37.6436 12.2625 38.0718 12.0851C38.5001 11.9077 38.9713 11.8613 39.426 11.9517C39.8806 12.0421 40.2982 12.2654 40.626 12.5931C40.9538 12.9209 41.177 13.3385 41.2674 13.7932C41.3579 14.2478 41.3115 14.7191 41.1341 15.1473C40.9567 15.5756 40.6563 15.9416 40.2709 16.1992C39.8854 16.4567 39.4323 16.5942 38.9687 16.5942C38.3471 16.5942 37.751 16.3472 37.3115 15.9077C36.8719 15.4682 36.625 14.872 36.625 14.2504ZM34.2812 9.56293C34.7448 9.56293 35.1979 9.42547 35.5834 9.16793C35.9688 8.9104 36.2692 8.54435 36.4466 8.11609C36.624 7.68783 36.6704 7.21658 36.5799 6.76193C36.4895 6.30729 36.2663 5.88967 35.9385 5.56189C35.6107 5.23411 35.1931 5.01089 34.7385 4.92046C34.2838 4.83003 33.8126 4.87644 33.3843 5.05383C32.9561 5.23123 32.59 5.53163 32.3325 5.91706C32.0749 6.30249 31.9375 6.75563 31.9375 7.21918C31.9375 7.84078 32.1844 8.43692 32.624 8.87646C33.0635 9.316 33.6596 9.56293 34.2812 9.56293ZM39.8789 20.5004C39.4661 20.4664 39.0566 20.5976 38.7406 20.8654C38.4245 21.1331 38.2277 21.5154 38.1933 21.9282C37.9137 25.1947 36.7069 28.3134 34.715 30.9173C32.723 33.5213 30.0288 35.5021 26.9493 36.6268C23.8698 37.7514 20.5331 37.9731 17.3318 37.2658C14.1306 36.5585 11.1979 34.9515 8.87898 32.634C6.56003 30.3165 4.95123 27.3849 4.24188 24.1841C3.53252 20.9833 3.75213 17.6465 4.87487 14.5662C5.9976 11.486 7.97674 8.79052 10.5794 6.79693C13.1821 4.80335 16.3 3.59461 19.5664 3.31293C19.7716 3.296 19.9714 3.23882 20.1545 3.14466C20.3376 3.05049 20.5004 2.92119 20.6335 2.76413C20.7666 2.60707 20.8675 2.42532 20.9304 2.22927C20.9933 2.03323 21.0169 1.82671 21 1.62152C20.9831 1.41633 20.9259 1.21648 20.8317 1.03339C20.7376 0.850296 20.6082 0.687542 20.4512 0.554421C20.2941 0.421299 20.1124 0.320417 19.9163 0.257533C19.7203 0.19465 19.5138 0.170997 19.3086 0.187926C15.4493 0.51989 11.765 1.94719 8.68932 4.3019C5.61363 6.65662 3.27442 9.84078 1.94692 13.4798C0.619422 17.1188 0.35885 21.0612 1.19586 24.8433C2.03288 28.6254 3.93265 32.0897 6.67169 34.8287C9.41072 37.5678 12.8751 39.4675 16.6571 40.3045C20.4392 41.1416 24.3816 40.881 28.0206 39.5535C31.6596 38.226 34.8438 35.8868 37.1985 32.8111C39.5532 29.7354 40.9805 26.0512 41.3125 22.1918C41.3301 21.9865 41.307 21.7797 41.2444 21.5834C41.1818 21.387 41.0809 21.205 40.9477 21.0478C40.8144 20.8906 40.6514 20.7613 40.468 20.6673C40.2845 20.5734 40.0843 20.5167 39.8789 20.5004ZM21 6.43793C23.7813 6.43793 26.5001 7.26268 28.8127 8.80788C31.1253 10.3531 32.9277 12.5494 33.992 15.1189C35.0564 17.6885 35.3349 20.516 34.7923 23.2439C34.2497 25.9717 32.9103 28.4774 30.9437 30.4441C28.977 32.4108 26.4713 33.7501 23.7434 34.2927C21.0156 34.8353 18.1881 34.5568 15.6185 33.4925C13.0489 32.4281 10.8527 30.6257 9.30744 28.3131C7.76224 26.0006 6.93749 23.2817 6.93749 20.5004C6.94162 16.7721 8.42453 13.1976 11.0609 10.5613C13.6972 7.92497 17.2716 6.44206 21 6.43793ZM19.4375 20.5004C19.4375 20.9148 19.6021 21.3123 19.8951 21.6053C20.1882 21.8983 20.5856 22.0629 21 22.0629H30.375C30.7894 22.0629 31.1868 21.8983 31.4798 21.6053C31.7729 21.3123 31.9375 20.9148 31.9375 20.5004C31.9375 20.086 31.7729 19.6886 31.4798 19.3956C31.1868 19.1025 30.7894 18.9379 30.375 18.9379H22.5625V11.1254C22.5625 10.711 22.3979 10.3136 22.1048 10.0206C21.8118 9.72755 21.4144 9.56293 21 9.56293C20.5856 9.56293 20.1882 9.72755 19.8951 10.0206C19.6021 10.3136 19.4375 10.711 19.4375 11.1254V20.5004ZM27.25 4.87543C27.7135 4.87543 28.1667 4.73797 28.5521 4.48043C28.9375 4.2229 29.2379 3.85685 29.4153 3.42859C29.5927 3.00033 29.6391 2.52908 29.5487 2.07443C29.4583 1.61979 29.235 1.20217 28.9073 0.874394C28.5795 0.546615 28.1619 0.323394 27.7072 0.23296C27.2526 0.142526 26.7813 0.18894 26.3531 0.366333C25.9248 0.543726 25.5588 0.84413 25.3012 1.22956C25.0437 1.61499 24.9062 2.06813 24.9062 2.53168C24.9062 3.15328 25.1532 3.74942 25.5927 4.18896C26.0322 4.6285 26.6284 4.87543 27.25 4.87543Z" fill="#25745A"/>
</svg>
