<svg width="42" height="42" viewBox="0 0 42 42" fill="none" xmlns="http://www.w3.org/2000/svg">
<path d="M21 0.6875C16.9826 0.6875 13.0554 1.87881 9.71499 4.11077C6.37462 6.34274 3.77111 9.51512 2.23371 13.2267C0.696301 16.9384 0.294046 21.0225 1.07781 24.9628C1.86157 28.903 3.79615 32.5224 6.6369 35.3631C9.47766 38.2039 13.097 40.1384 17.0372 40.9222C20.9775 41.706 25.0616 41.3037 28.7733 39.7663C32.4849 38.2289 35.6573 35.6254 37.8892 32.285C40.1212 28.9446 41.3125 25.0174 41.3125 21C41.3068 15.6145 39.1649 10.4513 35.3568 6.64317C31.5487 2.83507 26.3855 0.693187 21 0.6875ZM29.918 17.418L18.9805 28.3555C18.8354 28.5007 18.663 28.616 18.4734 28.6946C18.2837 28.7733 18.0803 28.8137 17.875 28.8137C17.6697 28.8137 17.4663 28.7733 17.2767 28.6946C17.087 28.616 16.9147 28.5007 16.7695 28.3555L12.082 23.668C11.7889 23.3748 11.6241 22.9771 11.6241 22.5625C11.6241 22.1479 11.7889 21.7502 12.082 21.457C12.3752 21.1638 12.7729 20.9991 13.1875 20.9991C13.6021 20.9991 13.9998 21.1638 14.293 21.457L17.875 25.041L27.707 15.207C27.8522 15.0619 28.0246 14.9467 28.2142 14.8681C28.4039 14.7896 28.6072 14.7491 28.8125 14.7491C29.0178 14.7491 29.2211 14.7896 29.4108 14.8681C29.6005 14.9467 29.7728 15.0619 29.918 15.207C30.0632 15.3522 30.1783 15.5245 30.2569 15.7142C30.3354 15.9039 30.3759 16.1072 30.3759 16.3125C30.3759 16.5178 30.3354 16.7211 30.2569 16.9108C30.1783 17.1005 30.0632 17.2728 29.918 17.418Z" fill="#25745A"/>
</svg>
