<svg width="31" height="30" viewBox="0 0 31 30" fill="none" xmlns="http://www.w3.org/2000/svg">
<mask id="mask0_3344_274" style="mask-type:alpha" maskUnits="userSpaceOnUse" x="0" y="0" width="31" height="30">
<rect x="0.5" width="30" height="30" fill="#D9D9D9"/>
</mask>
<g mask="url(#mask0_3344_274)">
<path d="M8 27.5C6.95833 27.5 6.07292 27.1354 5.34375 26.4062C4.61458 25.6771 4.25 24.7917 4.25 23.75V20H8V2.5L9.875 4.375L11.75 2.5L13.625 4.375L15.5 2.5L17.375 4.375L19.25 2.5L21.125 4.375L23 2.5L24.875 4.375L26.75 2.5V23.75C26.75 24.7917 26.3854 25.6771 25.6562 26.4062C24.9271 27.1354 24.0417 27.5 23 27.5H8ZM23 25C23.3542 25 23.651 24.8802 23.8906 24.6406C24.1302 24.401 24.25 24.1042 24.25 23.75V6.25H10.5V20H21.75V23.75C21.75 24.1042 21.8698 24.401 22.1094 24.6406C22.349 24.8802 22.6458 25 23 25ZM11.75 11.25V8.75H19.25V11.25H11.75ZM11.75 15V12.5H19.25V15H11.75ZM21.75 11.25C21.3958 11.25 21.099 11.1302 20.8594 10.8906C20.6198 10.651 20.5 10.3542 20.5 10C20.5 9.64583 20.6198 9.34896 20.8594 9.10938C21.099 8.86979 21.3958 8.75 21.75 8.75C22.1042 8.75 22.401 8.86979 22.6406 9.10938C22.8802 9.34896 23 9.64583 23 10C23 10.3542 22.8802 10.651 22.6406 10.8906C22.401 11.1302 22.1042 11.25 21.75 11.25ZM21.75 15C21.3958 15 21.099 14.8802 20.8594 14.6406C20.6198 14.401 20.5 14.1042 20.5 13.75C20.5 13.3958 20.6198 13.099 20.8594 12.8594C21.099 12.6198 21.3958 12.5 21.75 12.5C22.1042 12.5 22.401 12.6198 22.6406 12.8594C22.8802 13.099 23 13.3958 23 13.75C23 14.1042 22.8802 14.401 22.6406 14.6406C22.401 14.8802 22.1042 15 21.75 15Z" fill="#A6A6A6"/>
</g>
</svg>