<svg width="44" height="44" viewBox="0 0 44 44" fill="none" xmlns="http://www.w3.org/2000/svg">
<path d="M24.3438 3.25V9.5C24.3438 10.1216 24.0968 10.7177 23.6573 11.1573C23.2177 11.5968 22.6216 11.8438 22 11.8438C21.3784 11.8438 20.7823 11.5968 20.3427 11.1573C19.9032 10.7177 19.6562 10.1216 19.6562 9.5V3.25C19.6562 2.6284 19.9032 2.03226 20.3427 1.59272C20.7823 1.15318 21.3784 0.90625 22 0.90625C22.6216 0.90625 23.2177 1.15318 23.6573 1.59272C24.0968 2.03226 24.3438 2.6284 24.3438 3.25ZM40.75 19.6562H34.5C33.8784 19.6562 33.2823 19.9032 32.8427 20.3427C32.4032 20.7823 32.1562 21.3784 32.1562 22C32.1562 22.6216 32.4032 23.2177 32.8427 23.6573C33.2823 24.0968 33.8784 24.3438 34.5 24.3438H40.75C41.3716 24.3438 41.9677 24.0968 42.4073 23.6573C42.8468 23.2177 43.0938 22.6216 43.0938 22C43.0938 21.3784 42.8468 20.7823 42.4073 20.3427C41.9677 19.9032 41.3716 19.6562 40.75 19.6562ZM32.4961 29.1816C32.2781 28.9636 32.0193 28.7907 31.7344 28.6727C31.4496 28.5547 31.1443 28.494 30.8359 28.494C30.5276 28.494 30.2223 28.5547 29.9375 28.6727C29.6526 28.7907 29.3938 28.9636 29.1758 29.1816C28.9578 29.3997 28.7848 29.6585 28.6668 29.9433C28.5489 30.2282 28.4881 30.5335 28.4881 30.8418C28.4881 31.1501 28.5489 31.4554 28.6668 31.7403C28.7848 32.0251 28.9578 32.2839 29.1758 32.502L33.5957 36.9219C34.036 37.3622 34.6332 37.6095 35.2559 37.6095C35.8785 37.6095 36.4757 37.3622 36.916 36.9219C37.3563 36.4816 37.6037 35.8844 37.6037 35.2617C37.6037 34.639 37.3563 34.0419 36.916 33.6016L32.4961 29.1816ZM22 32.1562C21.3784 32.1562 20.7823 32.4032 20.3427 32.8427C19.9032 33.2823 19.6562 33.8784 19.6562 34.5V40.75C19.6562 41.3716 19.9032 41.9677 20.3427 42.4073C20.7823 42.8468 21.3784 43.0938 22 43.0938C22.6216 43.0938 23.2177 42.8468 23.6573 42.4073C24.0968 41.9677 24.3438 41.3716 24.3438 40.75V34.5C24.3438 33.8784 24.0968 33.2823 23.6573 32.8427C23.2177 32.4032 22.6216 32.1562 22 32.1562ZM11.5039 29.1816L7.08398 33.6016C6.64368 34.0419 6.39633 34.639 6.39633 35.2617C6.39633 35.8844 6.64368 36.4816 7.08398 36.9219C7.52429 37.3622 8.12146 37.6095 8.74414 37.6095C9.36682 37.6095 9.964 37.3622 10.4043 36.9219L14.8242 32.502C15.2645 32.0617 15.5119 31.4645 15.5119 30.8418C15.5119 30.2191 15.2645 29.6219 14.8242 29.1816C14.3839 28.7413 13.7867 28.494 13.1641 28.494C12.5414 28.494 11.9442 28.7413 11.5039 29.1816ZM11.8438 22C11.8438 21.3784 11.5968 20.7823 11.1573 20.3427C10.7177 19.9032 10.1216 19.6562 9.5 19.6562H3.25C2.6284 19.6562 2.03226 19.9032 1.59272 20.3427C1.15318 20.7823 0.90625 21.3784 0.90625 22C0.90625 22.6216 1.15318 23.2177 1.59272 23.6573C2.03226 24.0968 2.6284 24.3438 3.25 24.3438H9.5C10.1216 24.3438 10.7177 24.0968 11.1573 23.6573C11.5968 23.2177 11.8438 22.6216 11.8438 22ZM10.3984 7.08398C9.95814 6.64368 9.36096 6.39633 8.73828 6.39633C8.1156 6.39633 7.51843 6.64368 7.07812 7.08398C6.63782 7.52429 6.39047 8.12146 6.39047 8.74414C6.39047 9.36682 6.63782 9.964 7.07812 10.4043L11.5039 14.8184C11.9442 15.2587 12.5414 15.506 13.1641 15.506C13.7867 15.506 14.3839 15.2587 14.8242 14.8184C15.2645 14.3781 15.5119 13.7809 15.5119 13.1582C15.5119 12.5355 15.2645 11.9383 14.8242 11.498L10.3984 7.08398Z" fill="#25745A"/>
</svg>
