<svg width="42" height="44" viewBox="0 0 42 44" fill="none" xmlns="http://www.w3.org/2000/svg">
<path d="M39.6875 9.92005L22.5 0.515752C22.0408 0.262006 21.5247 0.128906 21 0.128906C20.4753 0.128906 19.9592 0.262006 19.5 0.515752L2.3125 9.92395C1.82166 10.1925 1.41192 10.5879 1.12608 11.0689C0.840235 11.5499 0.68877 12.0988 0.6875 12.6583V31.338C0.68877 31.8975 0.840235 32.4464 1.12608 32.9274C1.41192 33.4084 1.82166 33.8038 2.3125 34.0724L19.5 43.4806C19.9592 43.7343 20.4753 43.8674 21 43.8674C21.5247 43.8674 22.0408 43.7343 22.5 43.4806L39.6875 34.0724C40.1783 33.8038 40.5881 33.4084 40.8739 32.9274C41.1598 32.4464 41.3112 31.8975 41.3125 31.338V12.6603C41.3123 12.0998 41.1613 11.5496 40.8754 11.0675C40.5895 10.5854 40.1792 10.1891 39.6875 9.92005ZM21 3.25013L36.6934 11.8439L30.877 15.0255L15.1836 6.43177L21 3.25013ZM21 20.4376L5.30664 11.8439L11.9297 8.21692L27.623 16.8107L21 20.4376ZM38.1875 31.3458L22.5625 39.8986V23.1388L28.8125 19.7189V26.6876C28.8125 27.102 28.9771 27.4995 29.2701 27.7925C29.5632 28.0855 29.9606 28.2501 30.375 28.2501C30.7894 28.2501 31.1868 28.0855 31.4799 27.7925C31.7729 27.4995 31.9375 27.102 31.9375 26.6876V18.0079L38.1875 14.588V31.338V31.3458Z" fill="#25745A"/>
</svg>
