<svg width="199" height="177" viewBox="0 0 199 177" fill="none" xmlns="http://www.w3.org/2000/svg">
<path d="M89.9311 160C131.61 160 165.398 124.183 165.398 80C165.398 35.8172 131.61 0 89.9311 0C48.252 0 14.4644 35.8172 14.4644 80C14.4644 124.183 48.252 160 89.9311 160Z" fill="#D9F2EA"/>
<g filter="url(#filter0_d_3635_6701)">
<rect x="51.569" y="23.0374" width="78.32" height="103.353" rx="16" fill="#EFE5DC"/>
</g>
<rect x="58.4867" y="36.3711" width="62.8889" height="80.6667" rx="16" fill="#EFE5DC"/>
<rect x="58.4867" y="36.3711" width="50" height="1.73333" rx="0.866666" fill="#262626"/>
<rect x="58.4867" y="56.1045" width="62.8889" height="1.73333" rx="0.866666" fill="#8C8C8C"/>
<rect x="58.4867" y="75.8376" width="62.8889" height="1.73333" rx="0.866666" fill="#8C8C8C"/>
<rect x="58.4867" y="95.571" width="62.8889" height="1.73333" rx="0.866666" fill="#8C8C8C"/>
<rect x="58.4867" y="115.304" width="62.8889" height="1.73333" rx="0.866666" fill="#8C8C8C"/>
<g filter="url(#filter1_d_3635_6701)">
<path d="M176.812 11.616H139.028C137.267 11.616 135.84 13.2083 135.84 15.1726V34.9853C135.84 36.9496 137.267 38.5419 139.028 38.5419H176.812C178.573 38.5419 180 36.9496 180 34.9853V15.1726C180 13.2083 178.573 11.616 176.812 11.616Z" fill="#EFE5DC"/>
</g>
<path d="M145.273 29.3333C147.357 29.3333 149.047 27.5424 149.047 25.3333C149.047 23.1241 147.357 21.3333 145.273 21.3333C143.189 21.3333 141.5 23.1241 141.5 25.3333C141.5 27.5424 143.189 29.3333 145.273 29.3333Z" fill="#25745A"/>
<rect x="154.078" y="21.3333" width="20.1244" height="8" rx="4" fill="#25745A"/>
<path fill-rule="evenodd" clip-rule="evenodd" d="M112.011 131.042C120.111 131.042 127.639 128.445 133.894 123.993L159.489 149.894L168.772 138.477L144.073 113.484C148.635 106.679 151.317 98.3593 151.317 89.3757C151.317 66.3638 133.719 47.709 112.011 47.709C90.3033 47.709 72.7056 66.3638 72.7056 89.3757C72.7056 112.388 90.3033 131.042 112.011 131.042ZM145.536 89.3753C145.536 108.857 130.638 124.651 112.26 124.651C93.8818 124.651 78.9834 108.857 78.9834 89.3753C78.9834 69.8932 93.8818 54.0998 112.26 54.0998C130.638 54.0998 145.536 69.8932 145.536 89.3753Z" fill="#25745A"/>
<g filter="url(#filter2_b_3635_6701)">
<path d="M112.257 125.333C131.186 125.333 146.531 109.215 146.531 89.3333C146.531 69.451 131.186 53.3333 112.257 53.3333C93.3274 53.3333 77.9822 69.451 77.9822 89.3333C77.9822 109.215 93.3274 125.333 112.257 125.333Z" fill="white" fill-opacity="0.3"/>
</g>
<path d="M118.183 89.3334L126.477 80.5748C127.254 79.7083 127.68 78.5568 127.664 77.3648C127.648 76.1728 127.191 75.0344 126.391 74.1915C125.591 73.3486 124.511 72.8675 123.38 72.8507C122.248 72.8338 121.155 73.2824 120.333 74.1011L112.02 82.8597L103.726 74.1011C103.326 73.656 102.847 73.2998 102.315 73.0535C101.783 72.8072 101.209 72.6759 100.628 72.6672C100.047 72.6585 99.47 72.7727 98.9316 73.003C98.3931 73.2333 97.9039 73.5751 97.493 74.008C97.0821 74.441 96.7577 74.9564 96.5391 75.5237C96.3206 76.0911 96.2122 76.6988 96.2204 77.3111C96.2286 77.9233 96.3533 78.5276 96.5871 79.0882C96.8208 79.6488 97.1589 80.1543 97.5813 80.5748L105.89 89.3334L97.5813 98.092C97.1589 98.5125 96.8208 99.018 96.5871 99.5786C96.3533 100.139 96.2286 100.744 96.2204 101.356C96.2122 101.968 96.3206 102.576 96.5391 103.143C96.7577 103.71 97.0821 104.226 97.493 104.659C97.9039 105.092 98.3931 105.433 98.9316 105.664C99.47 105.894 100.047 106.008 100.628 106C101.209 105.991 101.783 105.86 102.315 105.613C102.847 105.367 103.326 105.011 103.726 104.566L112.039 95.8072L120.351 104.566C121.182 105.336 122.259 105.744 123.365 105.706C124.471 105.669 125.521 105.188 126.302 104.363C127.083 103.537 127.536 102.429 127.569 101.264C127.601 100.099 127.211 98.9644 126.477 98.092L118.183 89.3334Z" fill="#262626"/>
<path d="M159.487 149.895L168.77 138.478L170.168 139.893C171.524 141.266 172.337 143.183 172.426 145.224C172.515 147.265 171.874 149.262 170.643 150.775C169.413 152.288 167.694 153.194 165.864 153.294C164.035 153.393 162.245 152.678 160.889 151.305L159.491 149.89L159.487 149.895Z" fill="#AF8050"/>
<path fill-rule="evenodd" clip-rule="evenodd" d="M31.0133 41.4479C31.0015 40.4972 30.889 39.5383 30.6639 38.5728C29.8749 35.1848 26.3545 33.0097 22.6075 32.4983C18.8621 31.9869 14.9671 33.1506 13.466 36.0978C12.6073 37.7828 12.4889 39.2351 12.8398 40.4595C13.1891 41.6773 14.0181 42.687 15.1432 43.4738C18.2802 45.6653 23.7741 46.1128 26.2805 45.1965C27.4396 44.772 28.5721 44.2606 29.675 43.6754C29.0443 47.506 26.6949 51.135 23.5594 54.4051C16.745 61.5123 6.17046 66.9066 0.411647 68.8899C0.10224 68.9965 -0.0695025 69.3603 0.0267245 69.7029C0.122951 70.0455 0.451598 70.2373 0.761005 70.1307C6.63381 68.1081 17.4142 62.599 24.3633 55.3508C27.9533 51.6071 30.5114 47.3929 30.9482 42.9624C39.0638 38.1614 45.7286 29.4512 51.4268 22.1211C51.6385 21.8506 51.6103 21.4392 51.3646 21.2048C51.1188 20.972 50.7487 21.0015 50.537 21.2736C45.0713 28.3038 38.7277 36.6666 31.0133 41.4479ZM29.8334 42.1445C29.8779 41.0758 29.7831 39.9907 29.527 38.8958C28.8445 35.9634 25.7075 34.2292 22.4639 33.7866C20.4757 33.5162 18.4313 33.7391 16.828 34.5324C15.8198 35.0307 14.9893 35.7536 14.4889 36.737C13.8316 38.027 13.6895 39.1302 13.9589 40.0661C14.2283 41.0086 14.8975 41.7658 15.7695 42.3739C18.6282 44.372 23.6305 44.7966 25.9118 43.9623C27.2575 43.4705 28.5633 42.8575 29.8334 42.1445Z" fill="black"/>
<ellipse cx="174.831" cy="103.333" rx="3.77333" ry="4" fill="#BFBFBF"/>
<path fill-rule="evenodd" clip-rule="evenodd" d="M32.3151 130.929C32.9885 130.662 33.6971 130.306 34.2436 129.791C34.8926 129.179 35.1566 128.391 35.3338 127.562C35.5614 126.496 35.6523 125.361 35.9282 124.294C36.0304 123.897 36.227 123.747 36.3114 123.681C36.5246 123.513 36.7402 123.468 36.943 123.485C37.1833 123.504 37.5134 123.606 37.7305 124.055C37.7615 124.12 37.8017 124.218 37.8288 124.352C37.8486 124.45 37.8613 124.758 37.8822 124.885C37.9345 125.198 37.9782 125.51 38.0192 125.825C38.1559 126.871 38.2344 127.759 38.6659 128.72C39.2515 130.025 39.8382 130.824 40.6339 131.177C41.4033 131.519 42.3232 131.455 43.4985 131.187C43.6104 131.156 43.721 131.13 43.8306 131.109C44.3488 131.008 44.8441 131.388 44.9459 131.964C45.0477 132.539 44.7184 133.1 44.2048 133.227C44.0976 133.253 43.992 133.278 43.8875 133.301C42.2992 133.74 40.4605 135.305 39.392 136.676C39.0626 137.099 38.5804 138.28 38.0885 139.034C37.7255 139.59 37.3176 139.957 36.9751 140.086C36.7456 140.174 36.5521 140.16 36.3923 140.116C36.1601 140.052 35.9673 139.912 35.8195 139.689C35.739 139.567 35.6643 139.403 35.6287 139.194C35.6117 139.093 35.6097 138.838 35.6101 138.722C35.5099 138.337 35.3872 137.962 35.2978 137.574C35.0846 136.647 34.6662 136.061 34.1693 135.287C33.7045 134.562 33.2053 134.106 32.4734 133.743C32.3782 133.717 31.61 133.507 31.3387 133.386C30.9424 133.21 30.7535 132.914 30.685 132.755C30.5686 132.484 30.5566 132.248 30.5798 132.051C30.6142 131.761 30.7311 131.512 30.9386 131.311C31.067 131.187 31.259 131.065 31.516 131.006C31.7145 130.96 32.2412 130.933 32.3151 130.929ZM36.8218 129.42C36.8574 129.508 36.8954 129.597 36.9356 129.687C37.7932 131.598 38.7522 132.665 39.9179 133.183L39.957 133.199C39.1772 133.845 38.4713 134.567 37.9318 135.259C37.7096 135.544 37.4155 136.136 37.0978 136.743C36.8091 135.696 36.3369 134.956 35.7433 134.03C35.2897 133.323 34.8144 132.791 34.2304 132.358C34.6836 132.099 35.1159 131.795 35.4925 131.44C36.1194 130.849 36.5339 130.164 36.8218 129.42Z" fill="#BFBFBF"/>
<defs>
<filter id="filter0_d_3635_6701" x="21.569" y="13.0374" width="138.32" height="163.353" filterUnits="userSpaceOnUse" color-interpolation-filters="sRGB">
<feFlood flood-opacity="0" result="BackgroundImageFix"/>
<feColorMatrix in="SourceAlpha" type="matrix" values="0 0 0 0 0 0 0 0 0 0 0 0 0 0 0 0 0 0 127 0" result="hardAlpha"/>
<feOffset dy="20"/>
<feGaussianBlur stdDeviation="15"/>
<feComposite in2="hardAlpha" operator="out"/>
<feColorMatrix type="matrix" values="0 0 0 0 0.570833 0 0 0 0 0.570833 0 0 0 0 0.570833 0 0 0 0.19 0"/>
<feBlend mode="normal" in2="BackgroundImageFix" result="effect1_dropShadow_3635_6701"/>
<feBlend mode="normal" in="SourceGraphic" in2="effect1_dropShadow_3635_6701" result="shape"/>
</filter>
<filter id="filter1_d_3635_6701" x="128.84" y="2.61597" width="70.16" height="52.926" filterUnits="userSpaceOnUse" color-interpolation-filters="sRGB">
<feFlood flood-opacity="0" result="BackgroundImageFix"/>
<feColorMatrix in="SourceAlpha" type="matrix" values="0 0 0 0 0 0 0 0 0 0 0 0 0 0 0 0 0 0 127 0" result="hardAlpha"/>
<feOffset dx="6" dy="4"/>
<feGaussianBlur stdDeviation="6.5"/>
<feComposite in2="hardAlpha" operator="out"/>
<feColorMatrix type="matrix" values="0 0 0 0 0.104618 0 0 0 0 0.465612 0 0 0 0 0.545833 0 0 0 0.09 0"/>
<feBlend mode="normal" in2="BackgroundImageFix" result="effect1_dropShadow_3635_6701"/>
<feBlend mode="normal" in="SourceGraphic" in2="effect1_dropShadow_3635_6701" result="shape"/>
</filter>
<filter id="filter2_b_3635_6701" x="69.9822" y="45.3333" width="84.5489" height="88" filterUnits="userSpaceOnUse" color-interpolation-filters="sRGB">
<feFlood flood-opacity="0" result="BackgroundImageFix"/>
<feGaussianBlur in="BackgroundImageFix" stdDeviation="4"/>
<feComposite in2="SourceAlpha" operator="in" result="effect1_backgroundBlur_3635_6701"/>
<feBlend mode="normal" in="SourceGraphic" in2="effect1_backgroundBlur_3635_6701" result="shape"/>
</filter>
</defs>
</svg>
