<svg width="25" height="26" viewBox="0 0 25 26" fill="none" xmlns="http://www.w3.org/2000/svg">
<path d="M24.4453 11.4254L22.7452 9.45089C22.4201 9.07598 22.1576 8.37616 22.1576 7.87628V5.75181C22.1576 4.42714 21.0701 3.33992 19.745 3.33992H17.6198C17.1323 3.33992 16.4198 3.07748 16.0447 2.75256L14.0696 1.05299C13.2071 0.315671 11.7945 0.315671 10.9194 1.05299L8.95681 2.76506C8.58178 3.07748 7.86924 3.33992 7.38171 3.33992H5.21907C3.89399 3.33992 2.80642 4.42714 2.80642 5.75181V7.88878C2.80642 8.37616 2.54391 9.07598 2.23139 9.45089L0.543784 11.4379C-0.181261 12.3002 -0.181261 13.6998 0.543784 14.5621L2.23139 16.5491C2.54391 16.924 2.80642 17.6238 2.80642 18.1112V20.2482C2.80642 21.5729 3.89399 22.6601 5.21907 22.6601H7.38171C7.86924 22.6601 8.58178 22.9225 8.95681 23.2474L10.9319 24.947C11.7945 25.6843 13.2071 25.6843 14.0821 24.947L16.0572 23.2474C16.4323 22.9225 17.1323 22.6601 17.6323 22.6601H19.7575C21.0826 22.6601 22.1701 21.5729 22.1701 20.2482V18.1237C22.1701 17.6363 22.4326 16.924 22.7577 16.5491L24.4578 14.5746C25.1828 13.7123 25.1828 12.2877 24.4453 11.4254ZM17.6948 10.6381L11.657 16.6741C11.482 16.849 11.2444 16.949 10.9944 16.949C10.7444 16.949 10.5069 16.849 10.3319 16.6741L7.3067 13.6498C6.94418 13.2874 6.94418 12.6876 7.3067 12.3252C7.66923 11.9628 8.26926 11.9628 8.63179 12.3252L10.9944 14.6871L16.3698 9.31342C16.7323 8.95101 17.3323 8.95101 17.6948 9.31342C18.0574 9.67583 18.0574 10.2757 17.6948 10.6381Z" fill="black"/>
</svg>
