<svg width="30" height="30" viewBox="0 0 30 30" fill="none" xmlns="http://www.w3.org/2000/svg">
<path d="M21.3462 13.8462C21.3462 15.1013 20.974 16.3283 20.2766 17.3719C19.5793 18.4155 18.5882 19.2289 17.4286 19.7092C16.269 20.1896 14.993 20.3152 13.7619 20.0704C12.5309 19.8255 11.4001 19.2211 10.5126 18.3336C9.62507 17.446 9.02066 16.3153 8.77579 15.0842C8.53092 13.8532 8.6566 12.5772 9.13692 11.4176C9.61725 10.258 10.4307 9.26684 11.4743 8.56952C12.5179 7.87219 13.7449 7.5 15 7.5C16.6825 7.50191 18.2956 8.17113 19.4853 9.36085C20.675 10.5506 21.3442 12.1636 21.3462 13.8462ZM30 15C30 17.9667 29.1203 20.8668 27.472 23.3335C25.8238 25.8003 23.4811 27.7229 20.7403 28.8582C17.9994 29.9935 14.9834 30.2906 12.0736 29.7118C9.16393 29.133 6.49119 27.7044 4.3934 25.6066C2.29562 23.5088 0.867006 20.8361 0.288227 17.9264C-0.290551 15.0166 0.00649929 12.0006 1.14181 9.25975C2.27713 6.51886 4.19971 4.17618 6.66645 2.52796C9.13319 0.879735 12.0333 0 15 0C18.977 0.00419974 22.7898 1.5859 25.602 4.39804C28.4141 7.21017 29.9958 11.023 30 15ZM27.6923 15C27.6905 13.2916 27.3441 11.6012 26.674 10.0297C26.0038 8.45831 25.0236 7.03816 23.792 5.85423C22.5604 4.6703 21.1027 3.74691 19.5061 3.13927C17.9094 2.53163 16.2066 2.25224 14.4995 2.31779C7.70625 2.58029 2.28895 8.23846 2.3077 15.0361C2.31421 18.1306 3.45552 21.1152 5.51539 23.4245C6.35427 22.2078 7.41987 21.1642 8.65385 20.351C8.75906 20.2815 8.88414 20.2484 9.00994 20.2567C9.13575 20.265 9.25536 20.3144 9.35049 20.3971C10.9185 21.7534 12.9225 22.4998 14.9957 22.4998C17.0689 22.4998 19.0728 21.7534 20.6409 20.3971C20.736 20.3144 20.8556 20.265 20.9814 20.2567C21.1072 20.2484 21.2323 20.2815 21.3375 20.351C22.573 21.1638 23.6401 22.2074 24.4803 23.4245C26.5503 21.1068 27.6939 18.1076 27.6923 15Z" fill="#A6A6A6"/>
</svg>
