<svg width="21" height="17" viewBox="0 0 21 17" fill="none" xmlns="http://www.w3.org/2000/svg">
<path fill-rule="evenodd" clip-rule="evenodd" d="M20.2872 7.36522C20.1518 7.49675 19.9681 7.57191 19.7747 7.57191C19.059 7.57191 18.4787 8.13563 18.4787 8.82147C18.4787 9.51202 19.0522 10.0729 19.7611 10.0804C20.1605 10.0842 20.5 10.3548 20.5 10.7428V13.1527C20.5 15.1811 18.8075 16.8262 16.7186 16.8262H13.5658C13.2398 16.8262 12.9758 16.5697 12.9758 16.2531V14.2237C12.9758 13.8291 12.6567 13.5191 12.2505 13.5191C11.854 13.5191 11.5251 13.8291 11.5251 14.2237V16.2531C11.5251 16.5697 11.2611 16.8262 10.9362 16.8262H4.28143C2.20213 16.8262 0.5 15.182 0.5 13.1527V10.7428C0.5 10.3548 0.839458 10.0842 1.23888 10.0804C1.94874 10.0729 2.52128 9.51202 2.52128 8.82147C2.52128 8.15442 1.96035 7.64708 1.22534 7.64708C1.03191 7.64708 0.848162 7.57191 0.712766 7.44038C0.577369 7.30885 0.5 7.13034 0.5 6.94244V4.50908C0.5 2.48348 2.206 0.826172 4.2911 0.826172H10.9362C11.2611 0.826172 11.5251 1.08266 11.5251 1.39928V3.80445C11.5251 4.18965 11.854 4.50908 12.2505 4.50908C12.6567 4.50908 12.9758 4.18965 12.9758 3.80445V1.39928C12.9758 1.08266 13.2398 0.826172 13.5658 0.826172H16.7186C18.8075 0.826172 20.5 2.47033 20.5 4.49969V6.86728C20.5 7.05518 20.4226 7.23369 20.2872 7.36522ZM12.2505 11.6964C12.6567 11.6964 12.9758 11.377 12.9758 10.9918V7.23369C12.9758 6.84848 12.6567 6.52905 12.2505 6.52905C11.854 6.52905 11.5251 6.84848 11.5251 7.23369V10.9918C11.5251 11.377 11.854 11.6964 12.2505 11.6964Z" fill="#25745A"/>
</svg>
