<svg width="87" height="87" viewBox="0 0 87 87" fill="none" xmlns="http://www.w3.org/2000/svg">
<rect x="0.5" y="0.5" width="86" height="86" rx="43" fill="#A6A6A6"/>
<rect x="0.5" y="0.5" width="86" height="86" rx="43" stroke="#A6A6A6"/>
<path fill-rule="evenodd" clip-rule="evenodd" d="M56.0722 32.434C56.0722 39.3361 50.4794 44.8704 43.499 44.8704C36.521 44.8704 30.9258 39.3361 30.9258 32.434C30.9258 25.532 36.521 20 43.499 20C50.4794 20 56.0722 25.532 56.0722 32.434ZM43.5 67C33.1981 67 24.5 65.3432 24.5 58.9511C24.5 52.5567 33.2528 50.9587 43.5 50.9587C53.8042 50.9587 62.5 52.6154 62.5 59.0075C62.5 65.402 53.7472 67 43.5 67Z" fill="white"/>
</svg>
