<svg width="25" height="25" viewBox="0 0 25 25" fill="none" xmlns="http://www.w3.org/2000/svg">
<path d="M24.4453 10.9254L22.7452 8.95089C22.4201 8.57598 22.1576 7.87616 22.1576 7.37628V5.25181C22.1576 3.92714 21.0701 2.83991 19.745 2.83991H17.6198C17.1323 2.83991 16.4198 2.57748 16.0447 2.25256L14.0696 0.552987C13.2071 -0.184329 11.7945 -0.184329 10.9194 0.552987L8.95681 2.26506C8.58178 2.57748 7.86924 2.83991 7.38171 2.83991H5.21907C3.89399 2.83991 2.80642 3.92714 2.80642 5.25181V7.38878C2.80642 7.87616 2.54391 8.57598 2.23139 8.95089L0.543784 10.9379C-0.181261 11.8002 -0.181261 13.1998 0.543784 14.0621L2.23139 16.0491C2.54391 16.424 2.80642 17.1238 2.80642 17.6112V19.7482C2.80642 21.0729 3.89399 22.1601 5.21907 22.1601H7.38171C7.86924 22.1601 8.58178 22.4225 8.95681 22.7474L10.9319 24.447C11.7945 25.1843 13.2071 25.1843 14.0821 24.447L16.0572 22.7474C16.4323 22.4225 17.1323 22.1601 17.6323 22.1601H19.7575C21.0826 22.1601 22.1701 21.0729 22.1701 19.7482V17.6237C22.1701 17.1363 22.4326 16.424 22.7577 16.0491L24.4578 14.0746C25.1828 13.2123 25.1828 11.7877 24.4453 10.9254ZM17.6948 10.1381L11.657 16.1741C11.482 16.349 11.2444 16.449 10.9944 16.449C10.7444 16.449 10.5069 16.349 10.3319 16.1741L7.3067 13.1498C6.94418 12.7874 6.94418 12.1876 7.3067 11.8252C7.66923 11.4628 8.26926 11.4628 8.63179 11.8252L10.9944 14.1871L16.3698 8.81342C16.7323 8.45101 17.3323 8.45101 17.6948 8.81342C18.0574 9.17583 18.0574 9.77568 17.6948 10.1381Z" fill="#25745A"/>
</svg>
