<svg width="18" height="17" viewBox="0 0 18 17" fill="none" xmlns="http://www.w3.org/2000/svg">
<path fill-rule="evenodd" clip-rule="evenodd" d="M8.56273 2.08054C6.16212 0.665277 3.22618 0.434128 0.626854 1.45574C0.248256 1.60454 0 1.96483 0 2.36549V12.1846C0 12.8424 0.67608 13.2921 1.2976 13.0479C3.42618 12.2113 5.83041 12.4006 7.79626 13.5595L8.76935 14.1332C8.84356 14.1769 8.92295 14.1961 9 14.1947C9.07705 14.1961 9.15644 14.1769 9.23065 14.1332L10.2037 13.5595C12.1696 12.4006 14.5738 12.2113 16.7024 13.0479C17.3239 13.2921 18 12.8424 18 12.1846V2.36549C18 1.96483 17.7517 1.60454 17.3731 1.45574C14.7738 0.434128 11.8379 0.665277 9.43728 2.08054L9 2.33833L8.56273 2.08054ZM9.64286 4.09272C9.64286 3.74387 9.35504 3.46107 9 3.46107C8.64496 3.46107 8.35714 3.74387 8.35714 4.09272V12.0937C8.35714 12.4425 8.64496 12.7253 9 12.7253C9.35504 12.7253 9.64286 12.4425 9.64286 12.0937V4.09272Z" fill="black"/>
<path d="M1.04986 14.6558C2.7846 13.6616 4.92969 13.6616 6.66442 14.6558L7.59636 15.19C8.46373 15.6872 9.53627 15.6872 10.4036 15.19L11.3356 14.6558C13.0703 13.6616 15.2154 13.6616 16.9501 14.6558L17.0382 14.7063C17.3449 14.8821 17.4485 15.2689 17.2696 15.5702C17.0907 15.8715 16.697 15.9733 16.3904 15.7975L16.3023 15.7471C14.9679 14.9822 13.3178 14.9822 11.9834 15.7471L11.0515 16.2812C9.78378 17.0078 8.21622 17.0078 6.94853 16.2812L6.01659 15.7471C4.68218 14.9822 3.03211 14.9822 1.6977 15.7471L1.60963 15.7975C1.30296 15.9733 0.909322 15.8715 0.730428 15.5702C0.551533 15.2689 0.655121 14.8821 0.961797 14.7063L1.04986 14.6558Z" fill="black"/>
</svg>
