<svg width="19" height="21" viewBox="0 0 19 21" fill="none" xmlns="http://www.w3.org/2000/svg">
<path d="M18.32 9.93867V5.54867C18.32 4.72867 17.7 3.79867 16.93 3.48867L11.36 1.20867C10.11 0.698672 8.7 0.698672 7.45 1.20867L1.88 3.48867C1.12 3.79867 0.5 4.72867 0.5 5.54867V9.93867C0.5 14.8287 4.05 19.4087 8.9 20.7487C9.23 20.8387 9.59 20.8387 9.92 20.7487C14.77 19.4087 18.32 14.8287 18.32 9.93867ZM10.16 11.6887V14.3187C10.16 14.7287 9.82 15.0687 9.41 15.0687C9 15.0687 8.66 14.7287 8.66 14.3187V11.6887C7.65 11.3687 6.91 10.4287 6.91 9.31867C6.91 7.93867 8.03 6.81867 9.41 6.81867C10.79 6.81867 11.91 7.93867 11.91 9.31867C11.91 10.4387 11.17 11.3687 10.16 11.6887Z" fill="#25745A"/>
</svg>
