<svg width="30" height="14" viewBox="0 0 30 14" fill="none" xmlns="http://www.w3.org/2000/svg">
<rect width="30" height="14" rx="7" fill="black"/>
<rect x="2" y="2" width="10" height="10" rx="5" fill="white"/>
<path d="M6.6694 3.95109C6.77836 3.63764 7.22164 3.63764 7.3306 3.95109L7.86049 5.47552C7.90856 5.6138 8.0376 5.70755 8.18396 5.71054L9.79753 5.74342C10.1293 5.75018 10.2663 6.17177 10.0019 6.37225L8.71577 7.34729C8.59912 7.43573 8.54983 7.58743 8.59222 7.72754L9.05957 9.2723C9.15566 9.58993 8.79703 9.85049 8.52465 9.66094L7.19991 8.73911C7.07975 8.6555 6.92025 8.6555 6.80009 8.73911L5.47535 9.66094C5.20297 9.85049 4.84434 9.58993 4.94043 9.2723L5.40778 7.72754C5.45017 7.58743 5.40088 7.43573 5.28423 7.34729L3.99815 6.37225C3.73371 6.17177 3.8707 5.75018 4.20247 5.74342L5.81604 5.71054C5.9624 5.70755 6.09144 5.6138 6.13951 5.47552L6.6694 3.95109Z" fill="black"/>
<path d="M16.3828 6.31889C16.3639 6.1508 16.2857 6.0206 16.1484 5.92827C16.0111 5.83475 15.8383 5.788 15.63 5.788C15.4808 5.788 15.3518 5.81167 15.2429 5.85902C15.134 5.90518 15.0494 5.96911 14.989 6.05078C14.9298 6.13127 14.9002 6.22301 14.9002 6.32599C14.9002 6.41241 14.9203 6.48698 14.9606 6.54972C15.002 6.61245 15.0559 6.66513 15.1222 6.70774C15.1896 6.74917 15.2618 6.78409 15.3388 6.8125C15.4157 6.83973 15.4897 6.86222 15.5607 6.87997L15.9158 6.9723C16.0318 7.00071 16.1508 7.03918 16.2727 7.08771C16.3946 7.13625 16.5077 7.20017 16.6119 7.27947C16.716 7.35878 16.8001 7.45703 16.864 7.57422C16.9291 7.69141 16.9616 7.83168 16.9616 7.99503C16.9616 8.20099 16.9084 8.38388 16.8018 8.54368C16.6965 8.70348 16.5432 8.82955 16.342 8.92188C16.1419 9.0142 15.8999 9.06037 15.6158 9.06037C15.3435 9.06037 15.108 9.01716 14.9091 8.93075C14.7102 8.84434 14.5546 8.72183 14.4421 8.56321C14.3297 8.40341 14.2675 8.21402 14.2557 7.99503H14.8061C14.8168 8.12642 14.8594 8.23591 14.9339 8.32351C15.0097 8.40992 15.1062 8.47443 15.2234 8.51705C15.3417 8.55848 15.4714 8.57919 15.6122 8.57919C15.7673 8.57919 15.9052 8.55492 16.0259 8.50639C16.1478 8.45668 16.2437 8.38802 16.3136 8.30043C16.3834 8.21165 16.4183 8.10807 16.4183 7.9897C16.4183 7.88198 16.3875 7.7938 16.326 7.72514C16.2656 7.65649 16.1834 7.59967 16.0792 7.55469C15.9762 7.50971 15.8596 7.47005 15.7294 7.43572L15.2997 7.31854C15.0085 7.23923 14.7777 7.12263 14.6072 6.96875C14.438 6.81487 14.3533 6.61127 14.3533 6.35795C14.3533 6.14844 14.4102 5.96555 14.5238 5.8093C14.6374 5.65305 14.7913 5.53172 14.9854 5.44531C15.1796 5.35772 15.3986 5.31392 15.6424 5.31392C15.8886 5.31392 16.1058 5.35713 16.294 5.44354C16.4834 5.52995 16.6326 5.64891 16.7415 5.80043C16.8504 5.95076 16.9072 6.12358 16.9119 6.31889H16.3828ZM17.5747 9V6.27273H18.1056V9H17.5747ZM17.8428 5.85192C17.7504 5.85192 17.6711 5.82114 17.6048 5.75959C17.5397 5.69685 17.5072 5.62228 17.5072 5.53587C17.5072 5.44827 17.5397 5.3737 17.6048 5.31214C17.6711 5.24941 17.7504 5.21804 17.8428 5.21804C17.9351 5.21804 18.0138 5.24941 18.0789 5.31214C18.1452 5.3737 18.1784 5.44827 18.1784 5.53587C18.1784 5.62228 18.1452 5.69685 18.0789 5.75959C18.0138 5.82114 17.9351 5.85192 17.8428 5.85192ZM19.3507 5.36364V9H18.8198V5.36364H19.3507ZM22.398 6.27273L21.409 9H20.8408L19.8501 6.27273H20.42L21.1107 8.37145H21.1391L21.828 6.27273H22.398ZM23.9796 9.05504C23.7109 9.05504 23.4795 8.99763 23.2853 8.88281C23.0924 8.76681 22.9432 8.60405 22.8379 8.39453C22.7337 8.18383 22.6816 7.93703 22.6816 7.65412C22.6816 7.37476 22.7337 7.12855 22.8379 6.91548C22.9432 6.70241 23.09 6.5361 23.2782 6.41655C23.4676 6.29699 23.689 6.23722 23.9423 6.23722C24.0962 6.23722 24.2453 6.26267 24.3897 6.31357C24.5342 6.36446 24.6638 6.44437 24.7786 6.55327C24.8934 6.66217 24.984 6.80362 25.0502 6.97763C25.1165 7.15045 25.1497 7.36056 25.1497 7.60795V7.79616H22.9817V7.39844H24.6294C24.6294 7.25876 24.601 7.13506 24.5442 7.02734C24.4874 6.91844 24.4075 6.83262 24.3045 6.76989C24.2027 6.70715 24.0832 6.67578 23.9458 6.67578C23.7967 6.67578 23.6665 6.71248 23.5552 6.78587C23.4451 6.85807 23.3599 6.95277 23.2995 7.06996C23.2404 7.18596 23.2108 7.31203 23.2108 7.44815V7.75888C23.2108 7.94117 23.2427 8.09624 23.3066 8.22408C23.3717 8.35192 23.4623 8.44957 23.5783 8.51705C23.6943 8.58333 23.8298 8.61648 23.9849 8.61648C24.0855 8.61648 24.1773 8.60227 24.2601 8.57386C24.343 8.54427 24.4146 8.50047 24.475 8.44247C24.5353 8.38447 24.5815 8.31286 24.6135 8.22763L25.1159 8.31818C25.0757 8.46615 25.0035 8.59576 24.8993 8.70703C24.7963 8.81712 24.6667 8.90294 24.5105 8.96449C24.3554 9.02486 24.1784 9.05504 23.9796 9.05504ZM25.7387 9V6.27273H26.2519V6.70597H26.2803C26.33 6.55919 26.4176 6.44377 26.5431 6.35973C26.6697 6.2745 26.8129 6.23189 26.9727 6.23189C27.0059 6.23189 27.045 6.23307 27.0899 6.23544C27.1361 6.23781 27.1722 6.24077 27.1982 6.24432V6.75213C27.1769 6.74621 27.1391 6.7397 27.0846 6.7326C27.0302 6.72431 26.9757 6.72017 26.9213 6.72017C26.7958 6.72017 26.6839 6.7468 26.5857 6.80007C26.4886 6.85215 26.4117 6.92495 26.3548 7.01847C26.298 7.1108 26.2696 7.21615 26.2696 7.33452V9H25.7387Z" fill="white"/>
</svg>
