<svg width="25" height="25" viewBox="0 0 25 25" fill="none" xmlns="http://www.w3.org/2000/svg">
<path d="M22.5 19.8262V22.8262H2.5V19.8262C2.5 19.2762 2.95 18.8262 3.5 18.8262H21.5C22.05 18.8262 22.5 19.2762 22.5 19.8262Z" fill="black" stroke="white" stroke-width="1.5" stroke-miterlimit="10" stroke-linecap="round" stroke-linejoin="round"/>
<path d="M7.5 11.8262H5.5V18.8262H7.5V11.8262Z" fill="black"/>
<path d="M11.5 11.8262H9.5V18.8262H11.5V11.8262Z" fill="black"/>
<path d="M15.5 11.8262H13.5V18.8262H15.5V11.8262Z" fill="black"/>
<path d="M19.5 11.8262H17.5V18.8262H19.5V11.8262Z" fill="black"/>
<path d="M23.5 23.5762H1.5C1.09 23.5762 0.75 23.2362 0.75 22.8262C0.75 22.4162 1.09 22.0762 1.5 22.0762H23.5C23.91 22.0762 24.25 22.4162 24.25 22.8262C24.25 23.2362 23.91 23.5762 23.5 23.5762Z" fill="black"/>
<path d="M21.87 6.57602L12.87 2.97602C12.67 2.89602 12.33 2.89602 12.13 2.97602L3.13 6.57602C2.78 6.71602 2.5 7.12602 2.5 7.50602V10.826C2.5 11.376 2.95 11.826 3.5 11.826H21.5C22.05 11.826 22.5 11.376 22.5 10.826V7.50602C22.5 7.12602 22.22 6.71602 21.87 6.57602ZM12.5 9.32602C11.67 9.32602 11 8.65602 11 7.82602C11 6.99602 11.67 6.32602 12.5 6.32602C13.33 6.32602 14 6.99602 14 7.82602C14 8.65602 13.33 9.32602 12.5 9.32602Z" fill="black"/>
</svg>
