<svg width="26" height="26" viewBox="0 0 26 26" fill="none" xmlns="http://www.w3.org/2000/svg">
<path d="M16.125 11.7637C16.125 12.2272 15.9875 12.6804 15.73 13.0658C15.4725 13.4512 15.1064 13.7516 14.6782 13.929C14.2499 14.1064 13.7786 14.1528 13.324 14.0624C12.8694 13.972 12.4517 13.7487 12.124 13.421C11.7962 13.0932 11.573 12.6756 11.4825 12.2209C11.3921 11.7663 11.4385 11.295 11.6159 10.8668C11.7933 10.4385 12.0937 10.0724 12.4791 9.81492C12.8646 9.55738 13.3177 9.41992 13.7812 9.41992C14.4029 9.41992 14.999 9.66685 15.4385 10.1064C15.8781 10.5459 16.125 11.1421 16.125 11.7637ZM22.375 4.73242V21.9199C22.375 22.3343 22.2104 22.7318 21.9174 23.0248C21.6243 23.3178 21.2269 23.4824 20.8125 23.4824H6.75C6.3356 23.4824 5.93817 23.3178 5.64515 23.0248C5.35212 22.7318 5.1875 22.3343 5.1875 21.9199V19.5762H3.625C3.4178 19.5762 3.21909 19.4939 3.07257 19.3473C2.92606 19.2008 2.84375 19.0021 2.84375 18.7949C2.84375 18.5877 2.92606 18.389 3.07257 18.2425C3.21909 18.096 3.4178 18.0137 3.625 18.0137H5.1875V14.1074H3.625C3.4178 14.1074 3.21909 14.0251 3.07257 13.8786C2.92606 13.7321 2.84375 13.5334 2.84375 13.3262C2.84375 13.119 2.92606 12.9203 3.07257 12.7737C3.21909 12.6272 3.4178 12.5449 3.625 12.5449H5.1875V8.63867H3.625C3.4178 8.63867 3.21909 8.55636 3.07257 8.40985C2.92606 8.26334 2.84375 8.06462 2.84375 7.85742C2.84375 7.65022 2.92606 7.45151 3.07257 7.305C3.21909 7.15848 3.4178 7.07617 3.625 7.07617H5.1875V4.73242C5.1875 4.31802 5.35212 3.92059 5.64515 3.62757C5.93817 3.33454 6.3356 3.16992 6.75 3.16992H20.8125C21.2269 3.16992 21.6243 3.33454 21.9174 3.62757C22.2104 3.92059 22.375 4.31802 22.375 4.73242ZM19.0938 16.7637C18.402 15.8362 17.4795 15.1059 16.418 14.6455C16.9997 14.1144 17.4073 13.4198 17.5872 12.6529C17.7671 11.886 17.7109 11.0827 17.4261 10.3483C17.1413 9.61385 16.6411 8.98271 15.9911 8.53767C15.3412 8.09263 14.5719 7.85448 13.7842 7.85448C12.9965 7.85448 12.2272 8.09263 11.5772 8.53767C10.9273 8.98271 10.4271 9.61385 10.1422 10.3483C9.85741 11.0827 9.80127 11.886 9.98118 12.6529C10.1611 13.4198 10.5687 14.1144 11.1504 14.6455C10.0868 15.1051 9.16215 15.8354 8.46875 16.7637C8.40719 16.8457 8.3624 16.9391 8.33694 17.0385C8.31148 17.1379 8.30584 17.2413 8.32035 17.3429C8.33486 17.4445 8.36923 17.5422 8.4215 17.6305C8.47378 17.7187 8.54292 17.7959 8.625 17.8574C8.70708 17.919 8.80047 17.9638 8.89986 17.9892C8.99924 18.0147 9.10267 18.0203 9.20424 18.0058C9.3058 17.9913 9.40351 17.9569 9.49179 17.9047C9.58007 17.8524 9.65719 17.7832 9.71875 17.7012C10.1918 17.0705 10.8051 16.5586 11.5102 16.206C12.2154 15.8535 12.9929 15.6699 13.7812 15.6699C14.5696 15.6699 15.3471 15.8535 16.0523 16.206C16.7574 16.5586 17.3707 17.0705 17.8438 17.7012C17.9681 17.8669 18.1531 17.9765 18.3583 18.0058C18.5634 18.0351 18.7717 17.9817 18.9375 17.8574C19.1033 17.7331 19.2128 17.548 19.2421 17.3429C19.2715 17.1378 19.2181 16.9294 19.0938 16.7637Z" fill="#25745A"/>
</svg>
