<svg width="19" height="17" viewBox="0 0 19 17" fill="none" xmlns="http://www.w3.org/2000/svg">
<path fill-rule="evenodd" clip-rule="evenodd" d="M9.06273 2.08054C6.66212 0.665277 3.72618 0.434128 1.12685 1.45574C0.748256 1.60454 0.5 1.96483 0.5 2.36549V12.1846C0.5 12.8424 1.17608 13.2921 1.7976 13.0479C3.92618 12.2113 6.33041 12.4006 8.29626 13.5595L9.26935 14.1332C9.34356 14.1769 9.42295 14.1961 9.5 14.1947C9.57705 14.1961 9.65644 14.1769 9.73065 14.1332L10.7037 13.5595C12.6696 12.4006 15.0738 12.2113 17.2024 13.0479C17.8239 13.2921 18.5 12.8424 18.5 12.1846V2.36549C18.5 1.96483 18.2517 1.60454 17.8731 1.45574C15.2738 0.434128 12.3379 0.665277 9.93728 2.08054L9.5 2.33833L9.06273 2.08054ZM10.1429 4.09272C10.1429 3.74387 9.85504 3.46107 9.5 3.46107C9.14496 3.46107 8.85714 3.74387 8.85714 4.09272V12.0937C8.85714 12.4425 9.14496 12.7253 9.5 12.7253C9.85504 12.7253 10.1429 12.4425 10.1429 12.0937V4.09272Z" fill="#25745A"/>
<path d="M1.54986 14.6558C3.2846 13.6616 5.42969 13.6616 7.16442 14.6558L8.09636 15.19C8.96373 15.6872 10.0363 15.6872 10.9036 15.19L11.8356 14.6558C13.5703 13.6616 15.7154 13.6616 17.4501 14.6558L17.5382 14.7063C17.8449 14.8821 17.9485 15.2689 17.7696 15.5702C17.5907 15.8715 17.197 15.9733 16.8904 15.7975L16.8023 15.7471C15.4679 14.9822 13.8178 14.9822 12.4834 15.7471L11.5515 16.2812C10.2838 17.0078 8.71622 17.0078 7.44853 16.2812L6.51659 15.7471C5.18218 14.9822 3.53211 14.9822 2.1977 15.7471L2.10963 15.7975C1.80296 15.9733 1.40932 15.8715 1.23043 15.5702C1.05153 15.2689 1.15512 14.8821 1.4618 14.7063L1.54986 14.6558Z" fill="#25745A"/>
</svg>
