<svg width="29" height="29" viewBox="0 0 29 29" fill="none" xmlns="http://www.w3.org/2000/svg">
<path d="M16.215 9.14457L19.085 7.7329C19.435 7.5579 19.5283 7.1029 19.26 6.8229C18.2217 5.67957 17.1717 4.7229 16.3317 3.99957C15.9467 3.6729 15.375 3.94123 15.375 4.4429V8.61957C15.375 9.05123 15.83 9.33123 16.215 9.14457Z" fill="#65CDA9"/>
<path d="M15.375 23.5304V25.4554C15.375 25.8054 15.69 26.0971 16.04 26.0387C19.225 25.5137 21.885 23.3787 23.145 20.5087C23.3667 20.0187 22.83 19.5287 22.34 19.7621L15.7017 23.0171C15.5033 23.1104 15.375 23.3087 15.375 23.5304Z" fill="#65CDA9"/>
<path d="M13.6259 4.41957C13.6259 3.9179 13.0542 3.64957 12.6692 3.96457C9.91587 6.27457 5.02753 11.1396 5.05086 16.7162C5.05086 21.4062 8.48087 25.2912 12.9609 26.0379C13.3109 26.0962 13.6259 25.8046 13.6259 25.4546V4.41957Z" fill="#25745A"/>
<path d="M16.176 15.048L22.3477 12.458C22.6627 12.318 22.8144 11.9564 22.6627 11.653C22.231 10.8014 21.7294 9.97303 21.181 9.20303C21.0177 8.96969 20.7144 8.89969 20.4577 9.01636L15.686 11.338C15.4877 11.4314 15.3594 11.6414 15.3594 11.863V14.5114C15.371 14.9197 15.791 15.2114 16.176 15.048Z" fill="#65CDA9"/>
<path d="M23.635 17.1952C23.8217 17.1018 23.9383 16.9268 23.9383 16.7285C23.9383 15.9818 23.845 15.2468 23.6817 14.5235C23.6 14.1735 23.215 13.9868 22.8883 14.1268L15.725 17.1835C15.515 17.2768 15.375 17.4868 15.375 17.7202V20.2868C15.375 20.7185 15.83 20.9985 16.215 20.8118L23.0983 17.4635L23.635 17.1952Z" fill="#65CDA9"/>
</svg>
