<svg width="20" height="17" viewBox="0 0 20 17" fill="none" xmlns="http://www.w3.org/2000/svg">
<path fill-rule="evenodd" clip-rule="evenodd" d="M19.7872 7.36522C19.6518 7.49675 19.4681 7.57191 19.2747 7.57191C18.559 7.57191 17.9787 8.13563 17.9787 8.82147C17.9787 9.51202 18.5522 10.0729 19.2611 10.0804C19.6605 10.0842 20 10.3548 20 10.7428V13.1527C20 15.1811 18.3075 16.8262 16.2186 16.8262H13.0658C12.7398 16.8262 12.4758 16.5697 12.4758 16.2531V14.2237C12.4758 13.8291 12.1567 13.5191 11.7505 13.5191C11.354 13.5191 11.0251 13.8291 11.0251 14.2237V16.2531C11.0251 16.5697 10.7611 16.8262 10.4362 16.8262H3.78143C1.70213 16.8262 0 15.182 0 13.1527V10.7428C0 10.3548 0.339458 10.0842 0.738878 10.0804C1.44874 10.0729 2.02128 9.51202 2.02128 8.82147C2.02128 8.15442 1.46035 7.64708 0.725339 7.64708C0.531915 7.64708 0.348162 7.57191 0.212766 7.44038C0.0773694 7.30885 0 7.13034 0 6.94244V4.50908C0 2.48348 1.706 0.826172 3.7911 0.826172H10.4362C10.7611 0.826172 11.0251 1.08266 11.0251 1.39928V3.80445C11.0251 4.18965 11.354 4.50908 11.7505 4.50908C12.1567 4.50908 12.4758 4.18965 12.4758 3.80445V1.39928C12.4758 1.08266 12.7398 0.826172 13.0658 0.826172H16.2186C18.3075 0.826172 20 2.47033 20 4.49969V6.86728C20 7.05518 19.9226 7.23369 19.7872 7.36522ZM11.7505 11.6964C12.1567 11.6964 12.4758 11.377 12.4758 10.9918V7.23369C12.4758 6.84848 12.1567 6.52905 11.7505 6.52905C11.354 6.52905 11.0251 6.84848 11.0251 7.23369V10.9918C11.0251 11.377 11.354 11.6964 11.7505 11.6964Z" fill="black"/>
</svg>
