<svg width="19" height="19" viewBox="0 0 19 19" fill="none" xmlns="http://www.w3.org/2000/svg">
<path d="M9.5 12.8164L12.5 9.81641M12.5 9.81641L9.5 6.81641M12.5 9.81641L1.5 9.81641M6.5 14.8164C6.5 15.7483 6.5 16.2142 6.65224 16.5818C6.85523 17.0718 7.24432 17.4612 7.73438 17.6642C8.10192 17.8164 8.56812 17.8164 9.5 17.8164H14.3C15.4201 17.8164 15.98 17.8164 16.4078 17.5984C16.7841 17.4066 17.0905 17.1008 17.2822 16.7244C17.5002 16.2966 17.5 15.7365 17.5 14.6164V5.01636C17.5 3.89625 17.5002 3.33627 17.2822 2.90845C17.0905 2.53212 16.7841 2.22614 16.4078 2.03439C15.98 1.81641 15.4201 1.81641 14.3 1.81641H9.5C8.56812 1.81641 8.10192 1.81641 7.73438 1.96865C7.24432 2.17164 6.85523 2.56097 6.65224 3.05103C6.5 3.41857 6.5 3.88451 6.5 4.81639" stroke="#25745A" stroke-width="2" stroke-linecap="round" stroke-linejoin="round"/>
</svg>
