<svg width="29" height="28" viewBox="0 0 29 28" fill="none" xmlns="http://www.w3.org/2000/svg">
<path d="M16.215 8.64457L19.085 7.2329C19.435 7.0579 19.5283 6.6029 19.26 6.3229C18.2217 5.17957 17.1717 4.2229 16.3317 3.49957C15.9467 3.1729 15.375 3.44123 15.375 3.9429V8.11957C15.375 8.55123 15.83 8.83123 16.215 8.64457Z" fill="black"/>
<path d="M15.375 23.0304V24.9554C15.375 25.3054 15.69 25.5971 16.04 25.5387C19.225 25.0137 21.885 22.8787 23.145 20.0087C23.3667 19.5187 22.83 19.0287 22.34 19.2621L15.7017 22.5171C15.5033 22.6104 15.375 22.8087 15.375 23.0304Z" fill="black"/>
<path d="M13.6259 3.91957C13.6259 3.4179 13.0542 3.14957 12.6692 3.46457C9.91587 5.77457 5.02753 10.6396 5.05086 16.2162C5.05086 20.9062 8.48087 24.7912 12.9609 25.5379C13.3109 25.5962 13.6259 25.3046 13.6259 24.9546V3.91957Z" fill="black"/>
<path d="M16.176 14.548L22.3477 11.958C22.6627 11.818 22.8144 11.4564 22.6627 11.153C22.231 10.3014 21.7294 9.47303 21.181 8.70303C21.0177 8.46969 20.7144 8.39969 20.4577 8.51636L15.686 10.838C15.4877 10.9314 15.3594 11.1414 15.3594 11.363V14.0114C15.371 14.4197 15.791 14.7114 16.176 14.548Z" fill="black"/>
<path d="M23.635 16.6952C23.8217 16.6018 23.9383 16.4268 23.9383 16.2285C23.9383 15.4818 23.845 14.7468 23.6817 14.0235C23.6 13.6735 23.215 13.4868 22.8883 13.6268L15.725 16.6835C15.515 16.7768 15.375 16.9868 15.375 17.2202V19.7868C15.375 20.2185 15.83 20.4985 16.215 20.3118L23.0983 16.9635L23.635 16.6952Z" fill="black"/>
</svg>
