<svg width="29" height="22" viewBox="0 0 29 22" fill="none" xmlns="http://www.w3.org/2000/svg">
<g id="send fast">
<path id="Combo shape" fill-rule="evenodd" clip-rule="evenodd" d="M11.6047 0.680433L26.5789 8.16299C28.9181 9.3319 28.9181 12.6681 26.5789 13.837L11.6047 21.3196C8.94138 22.6504 6.07572 19.9137 7.28505 17.1943L9.46687 12.2882C9.50896 12.1936 9.54619 12.0974 9.57857 12L15 12C15.5522 12 16 11.5523 16 11C16 10.4477 15.5522 10 15 10L9.57857 10C9.54619 9.90261 9.50896 9.80642 9.46687 9.71178L7.28505 4.80566C6.07572 2.08632 8.94139 -0.650393 11.6047 0.680433ZM0.666626 8.33333C0.666626 7.78104 1.11434 7.33333 1.66663 7.33333H4.33329C4.88558 7.33333 5.33329 7.78104 5.33329 8.33333C5.33329 8.88561 4.88558 9.33333 4.33329 9.33333H1.66663C1.11434 9.33333 0.666626 8.88561 0.666626 8.33333ZM1.66663 12.6667C1.11434 12.6667 0.666626 13.1144 0.666626 13.6667C0.666626 14.2189 1.11434 14.6667 1.66663 14.6667H4.33329C4.88558 14.6667 5.33329 14.2189 5.33329 13.6667C5.33329 13.1144 4.88558 12.6667 4.33329 12.6667H1.66663Z" fill="#8C8C8C"/>
</g>
</svg>
