<svg width="50" height="50" viewBox="0 0 50 50" fill="none" xmlns="http://www.w3.org/2000/svg">
<path d="M27.3438 6.25V12.5C27.3438 13.1216 27.0968 13.7177 26.6573 14.1573C26.2177 14.5968 25.6216 14.8438 25 14.8438C24.3784 14.8438 23.7823 14.5968 23.3427 14.1573C22.9032 13.7177 22.6562 13.1216 22.6562 12.5V6.25C22.6562 5.6284 22.9032 5.03226 23.3427 4.59272C23.7823 4.15318 24.3784 3.90625 25 3.90625C25.6216 3.90625 26.2177 4.15318 26.6573 4.59272C27.0968 5.03226 27.3438 5.6284 27.3438 6.25ZM43.75 22.6562H37.5C36.8784 22.6562 36.2823 22.9032 35.8427 23.3427C35.4032 23.7823 35.1562 24.3784 35.1562 25C35.1562 25.6216 35.4032 26.2177 35.8427 26.6573C36.2823 27.0968 36.8784 27.3438 37.5 27.3438H43.75C44.3716 27.3438 44.9677 27.0968 45.4073 26.6573C45.8468 26.2177 46.0938 25.6216 46.0938 25C46.0938 24.3784 45.8468 23.7823 45.4073 23.3427C44.9677 22.9032 44.3716 22.6562 43.75 22.6562ZM35.4961 32.1816C35.2781 31.9636 35.0193 31.7907 34.7344 31.6727C34.4496 31.5547 34.1443 31.494 33.8359 31.494C33.5276 31.494 33.2223 31.5547 32.9375 31.6727C32.6526 31.7907 32.3938 31.9636 32.1758 32.1816C31.9578 32.3997 31.7848 32.6585 31.6668 32.9433C31.5489 33.2282 31.4881 33.5335 31.4881 33.8418C31.4881 34.1501 31.5489 34.4554 31.6668 34.7403C31.7848 35.0251 31.9578 35.2839 32.1758 35.502L36.5957 39.9219C37.036 40.3622 37.6332 40.6095 38.2559 40.6095C38.8785 40.6095 39.4757 40.3622 39.916 39.9219C40.3563 39.4816 40.6037 38.8844 40.6037 38.2617C40.6037 37.639 40.3563 37.0419 39.916 36.6016L35.4961 32.1816ZM25 35.1562C24.3784 35.1562 23.7823 35.4032 23.3427 35.8427C22.9032 36.2823 22.6562 36.8784 22.6562 37.5V43.75C22.6562 44.3716 22.9032 44.9677 23.3427 45.4073C23.7823 45.8468 24.3784 46.0938 25 46.0938C25.6216 46.0938 26.2177 45.8468 26.6573 45.4073C27.0968 44.9677 27.3438 44.3716 27.3438 43.75V37.5C27.3438 36.8784 27.0968 36.2823 26.6573 35.8427C26.2177 35.4032 25.6216 35.1562 25 35.1562ZM14.5039 32.1816L10.084 36.6016C9.64368 37.0419 9.39633 37.639 9.39633 38.2617C9.39633 38.8844 9.64368 39.4816 10.084 39.9219C10.5243 40.3622 11.1215 40.6095 11.7441 40.6095C12.3668 40.6095 12.964 40.3622 13.4043 39.9219L17.8242 35.502C18.2645 35.0617 18.5119 34.4645 18.5119 33.8418C18.5119 33.2191 18.2645 32.6219 17.8242 32.1816C17.3839 31.7413 16.7867 31.494 16.1641 31.494C15.5414 31.494 14.9442 31.7413 14.5039 32.1816ZM14.8438 25C14.8438 24.3784 14.5968 23.7823 14.1573 23.3427C13.7177 22.9032 13.1216 22.6562 12.5 22.6562H6.25C5.6284 22.6562 5.03226 22.9032 4.59272 23.3427C4.15318 23.7823 3.90625 24.3784 3.90625 25C3.90625 25.6216 4.15318 26.2177 4.59272 26.6573C5.03226 27.0968 5.6284 27.3438 6.25 27.3438H12.5C13.1216 27.3438 13.7177 27.0968 14.1573 26.6573C14.5968 26.2177 14.8438 25.6216 14.8438 25ZM13.3984 10.084C12.9581 9.64368 12.361 9.39633 11.7383 9.39633C11.1156 9.39633 10.5184 9.64368 10.0781 10.084C9.63782 10.5243 9.39047 11.1215 9.39047 11.7441C9.39047 12.3668 9.63782 12.964 10.0781 13.4043L14.5039 17.8184C14.9442 18.2587 15.5414 18.506 16.1641 18.506C16.7867 18.506 17.3839 18.2587 17.8242 17.8184C18.2645 17.3781 18.5119 16.7809 18.5119 16.1582C18.5119 15.5355 18.2645 14.9383 17.8242 14.498L13.3984 10.084Z" fill="#25745A"/>
</svg>
