<svg width="50" height="51" viewBox="0 0 50 51" fill="none" xmlns="http://www.w3.org/2000/svg">
<path d="M35.976 18.3702C36.1548 18.5488 36.2966 18.7609 36.3934 18.9943C36.4902 19.2278 36.54 19.478 36.54 19.7308C36.54 19.9835 36.4902 20.2337 36.3934 20.4672C36.2966 20.7006 36.1548 20.9127 35.976 21.0913L22.5144 34.5529C22.3358 34.7317 22.1237 34.8735 21.8903 34.9703C21.6568 35.0671 21.4066 35.1169 21.1539 35.1169C20.9011 35.1169 20.6509 35.0671 20.4174 34.9703C20.184 34.8735 19.9719 34.7317 19.7933 34.5529L14.024 28.7836C13.6632 28.4228 13.4605 27.9334 13.4605 27.4231C13.4605 26.9128 13.6632 26.4233 14.024 26.0625C14.3849 25.7016 14.8743 25.4989 15.3846 25.4989C15.8949 25.4989 16.3844 25.7016 16.7452 26.0625L21.1539 30.4736L33.2548 18.3702C33.4334 18.1914 33.6455 18.0495 33.879 17.9528C34.1124 17.856 34.3627 17.8062 34.6154 17.8062C34.8681 17.8062 35.1184 17.856 35.3518 17.9528C35.5853 18.0495 35.7974 18.1914 35.976 18.3702ZM50 25.5C50 30.4445 48.5338 35.278 45.7867 39.3892C43.0397 43.5005 39.1352 46.7048 34.5671 48.597C29.9989 50.4892 24.9723 50.9843 20.1227 50.0196C15.2732 49.055 10.8187 46.674 7.32234 43.1777C3.82603 39.6814 1.44501 35.2268 0.480379 30.3773C-0.484251 25.5277 0.010832 20.5011 1.90302 15.9329C3.79521 11.3648 6.99952 7.46029 11.1108 4.71326C15.222 1.96622 20.0555 0.5 25 0.5C31.6283 0.507 37.983 3.14317 42.6699 7.83006C47.3568 12.517 49.993 18.8717 50 25.5ZM46.1539 25.5C46.1539 21.3162 44.9132 17.2263 42.5888 13.7476C40.2644 10.2688 36.9606 7.55748 33.0952 5.95639C29.2299 4.35531 24.9765 3.93639 20.8731 4.75262C16.7697 5.56884 13.0004 7.58355 10.042 10.542C7.08356 13.5004 5.06885 17.2696 4.25263 21.3731C3.4364 25.4765 3.85532 29.7299 5.4564 33.5952C7.05749 37.4606 9.76883 40.7644 13.2476 43.0888C16.7263 45.4132 20.8162 46.6538 25 46.6538C30.6084 46.6475 35.9853 44.4167 39.951 40.451C43.9167 36.4853 46.1475 31.1084 46.1539 25.5Z" fill="#05E600"/>
</svg>
