<svg width="50" height="50" viewBox="0 0 50 50" fill="none" xmlns="http://www.w3.org/2000/svg">
<path d="M25 4.6875C20.9826 4.6875 17.0554 5.87881 13.715 8.11077C10.3746 10.3427 7.77111 13.5151 6.23371 17.2267C4.6963 20.9384 4.29405 25.0225 5.07781 28.9628C5.86157 32.903 7.79615 36.5224 10.6369 39.3631C13.4777 42.2039 17.097 44.1384 21.0372 44.9222C24.9775 45.706 29.0616 45.3037 32.7733 43.7663C36.4849 42.2289 39.6573 39.6254 41.8892 36.285C44.1212 32.9446 45.3125 29.0174 45.3125 25C45.3068 19.6145 43.1649 14.4513 39.3568 10.6432C35.5487 6.83507 30.3855 4.69319 25 4.6875ZM32.3555 30.1445C32.5007 30.2897 32.6158 30.462 32.6944 30.6517C32.7729 30.8414 32.8134 31.0447 32.8134 31.25C32.8134 31.4553 32.7729 31.6586 32.6944 31.8483C32.6158 32.038 32.5007 32.2103 32.3555 32.3555C32.2103 32.5006 32.038 32.6158 31.8483 32.6944C31.6586 32.7729 31.4553 32.8134 31.25 32.8134C31.0447 32.8134 30.8414 32.7729 30.6517 32.6944C30.4621 32.6158 30.2897 32.5006 30.1445 32.3555L25 27.209L19.8555 32.3555C19.7103 32.5006 19.538 32.6158 19.3483 32.6944C19.1586 32.7729 18.9553 32.8134 18.75 32.8134C18.5447 32.8134 18.3414 32.7729 18.1517 32.6944C17.9621 32.6158 17.7897 32.5006 17.6445 32.3555C17.4994 32.2103 17.3842 32.038 17.3056 31.8483C17.2271 31.6586 17.1866 31.4553 17.1866 31.25C17.1866 31.0447 17.2271 30.8414 17.3056 30.6517C17.3842 30.462 17.4994 30.2897 17.6445 30.1445L22.791 25L17.6445 19.8555C17.3514 19.5623 17.1866 19.1646 17.1866 18.75C17.1866 18.3354 17.3514 17.9377 17.6445 17.6445C17.9377 17.3513 18.3354 17.1866 18.75 17.1866C19.1646 17.1866 19.5623 17.3513 19.8555 17.6445L25 22.791L30.1445 17.6445C30.2897 17.4994 30.4621 17.3842 30.6517 17.3056C30.8414 17.2271 31.0447 17.1866 31.25 17.1866C31.4553 17.1866 31.6586 17.2271 31.8483 17.3056C32.038 17.3842 32.2103 17.4994 32.3555 17.6445C32.5007 17.7897 32.6158 17.962 32.6944 18.1517C32.7729 18.3414 32.8134 18.5447 32.8134 18.75C32.8134 18.9553 32.7729 19.1586 32.6944 19.3483C32.6158 19.538 32.5007 19.7103 32.3555 19.8555L27.209 25L32.3555 30.1445Z" fill="#25745A"/>
</svg>
